<svg xmlns="http://www.w3.org/2000/svg" xmlns:xlink="http://www.w3.org/1999/xlink" width="500" zoomAndPan="magnify" viewBox="0 0 375 374.999991" height="500" preserveAspectRatio="xMidYMid meet" version="1.0"><path fill="#ffffff" d="M 187.507812 207.714844 C 186.917969 207.714844 186.328125 207.746094 185.742188 207.800781 C 185.15625 207.859375 184.574219 207.945312 183.996094 208.0625 C 183.417969 208.175781 182.847656 208.316406 182.285156 208.488281 C 181.71875 208.660156 181.164062 208.859375 180.621094 209.082031 C 180.078125 209.308594 179.546875 209.5625 179.023438 209.839844 C 178.503906 210.117188 178 210.417969 177.511719 210.746094 C 177.019531 211.074219 176.546875 211.421875 176.09375 211.796875 C 175.636719 212.171875 175.199219 212.566406 174.785156 212.984375 C 174.367188 213.398438 173.972656 213.835938 173.597656 214.289062 C 173.226562 214.746094 172.875 215.21875 172.546875 215.707031 C 172.21875 216.199219 171.917969 216.703125 171.640625 217.222656 C 171.359375 217.742188 171.109375 218.273438 170.882812 218.820312 C 170.660156 219.363281 170.460938 219.917969 170.289062 220.480469 C 170.117188 221.042969 169.976562 221.617188 169.859375 222.191406 C 169.746094 222.769531 169.65625 223.351562 169.601562 223.941406 C 169.542969 224.527344 169.511719 225.113281 169.511719 225.703125 C 169.511719 226.292969 169.542969 226.878906 169.601562 227.464844 C 169.65625 228.050781 169.742188 228.636719 169.859375 229.210938 C 169.972656 229.789062 170.117188 230.363281 170.289062 230.925781 C 170.457031 231.488281 170.65625 232.042969 170.882812 232.585938 C 171.109375 233.132812 171.359375 233.664062 171.636719 234.183594 C 171.914062 234.703125 172.21875 235.207031 172.542969 235.699219 C 172.871094 236.1875 173.222656 236.660156 173.597656 237.117188 C 173.96875 237.570312 174.363281 238.007812 174.78125 238.425781 C 175.199219 238.839844 175.632812 239.238281 176.089844 239.609375 C 176.546875 239.984375 177.019531 240.335938 177.507812 240.660156 C 177.996094 240.988281 178.503906 241.292969 179.023438 241.570312 C 179.542969 241.847656 180.074219 242.097656 180.617188 242.324219 C 181.160156 242.550781 181.714844 242.75 182.28125 242.917969 C 182.84375 243.089844 183.414062 243.234375 183.992188 243.347656 C 184.570312 243.464844 185.152344 243.550781 185.738281 243.609375 C 186.324219 243.664062 186.914062 243.695312 187.503906 243.695312 C 188.089844 243.695312 188.679688 243.664062 189.265625 243.609375 C 189.851562 243.550781 190.433594 243.464844 191.011719 243.347656 C 191.589844 243.234375 192.160156 243.089844 192.722656 242.921875 C 193.289062 242.75 193.84375 242.550781 194.386719 242.324219 C 194.929688 242.101562 195.464844 241.847656 195.984375 241.570312 C 196.503906 241.292969 197.007812 240.992188 197.496094 240.664062 C 197.988281 240.335938 198.460938 239.984375 198.914062 239.613281 C 199.371094 239.238281 199.804688 238.84375 200.222656 238.425781 C 200.640625 238.007812 201.035156 237.574219 201.410156 237.117188 C 201.78125 236.664062 202.132812 236.191406 202.460938 235.699219 C 202.789062 235.210938 203.089844 234.707031 203.367188 234.183594 C 203.644531 233.664062 203.898438 233.132812 204.125 232.589844 C 204.347656 232.046875 204.546875 231.492188 204.71875 230.925781 C 204.890625 230.363281 205.03125 229.792969 205.148438 229.214844 C 205.261719 228.636719 205.347656 228.054688 205.40625 227.46875 C 205.464844 226.882812 205.492188 226.292969 205.492188 225.703125 C 205.492188 225.117188 205.460938 224.527344 205.40625 223.941406 C 205.347656 223.355469 205.257812 222.773438 205.144531 222.195312 C 205.027344 221.621094 204.886719 221.050781 204.714844 220.484375 C 204.542969 219.921875 204.34375 219.367188 204.117188 218.824219 C 203.894531 218.28125 203.640625 217.75 203.363281 217.230469 C 203.085938 216.710938 202.78125 216.207031 202.457031 215.714844 C 202.128906 215.226562 201.777344 214.753906 201.40625 214.296875 C 201.03125 213.84375 200.636719 213.40625 200.21875 212.992188 C 199.804688 212.574219 199.367188 212.179688 198.910156 211.804688 C 198.457031 211.433594 197.984375 211.082031 197.496094 210.753906 C 197.003906 210.425781 196.5 210.125 195.980469 209.847656 C 195.460938 209.566406 194.929688 209.316406 194.386719 209.089844 C 193.84375 208.863281 193.289062 208.667969 192.726562 208.496094 C 192.160156 208.324219 191.589844 208.179688 191.015625 208.066406 C 190.4375 207.949219 189.855469 207.863281 189.269531 207.804688 C 188.683594 207.746094 188.09375 207.714844 187.507812 207.714844 Z M 187.507812 242.460938 C 186.957031 242.460938 186.410156 242.433594 185.863281 242.378906 C 185.316406 242.324219 184.773438 242.246094 184.238281 242.136719 C 183.699219 242.03125 183.167969 241.898438 182.640625 241.738281 C 182.117188 241.578125 181.597656 241.394531 181.09375 241.183594 C 180.585938 240.976562 180.089844 240.742188 179.605469 240.480469 C 179.121094 240.222656 178.652344 239.941406 178.195312 239.636719 C 177.738281 239.332031 177.296875 239.003906 176.875 238.65625 C 176.449219 238.308594 176.042969 237.941406 175.65625 237.554688 C 175.265625 237.164062 174.898438 236.757812 174.550781 236.335938 C 174.203125 235.910156 173.875 235.46875 173.570312 235.015625 C 173.265625 234.558594 172.984375 234.085938 172.722656 233.601562 C 172.464844 233.117188 172.230469 232.625 172.019531 232.117188 C 171.8125 231.609375 171.625 231.09375 171.46875 230.566406 C 171.308594 230.042969 171.175781 229.511719 171.066406 228.972656 C 170.960938 228.433594 170.878906 227.890625 170.824219 227.34375 C 170.773438 226.800781 170.746094 226.25 170.746094 225.703125 C 170.746094 225.152344 170.773438 224.605469 170.824219 224.058594 C 170.878906 223.515625 170.960938 222.972656 171.066406 222.433594 C 171.175781 221.894531 171.308594 221.363281 171.464844 220.839844 C 171.625 220.3125 171.808594 219.796875 172.019531 219.289062 C 172.230469 218.78125 172.464844 218.285156 172.722656 217.800781 C 172.980469 217.320312 173.265625 216.847656 173.570312 216.390625 C 173.875 215.933594 174.199219 215.496094 174.550781 215.070312 C 174.898438 214.648438 175.265625 214.242188 175.652344 213.851562 C 176.042969 213.464844 176.449219 213.097656 176.871094 212.746094 C 177.296875 212.398438 177.738281 212.074219 178.191406 211.769531 C 178.648438 211.464844 179.121094 211.179688 179.605469 210.921875 C 180.085938 210.664062 180.582031 210.429688 181.089844 210.21875 C 181.597656 210.007812 182.113281 209.824219 182.640625 209.664062 C 183.164062 209.507812 183.695312 209.371094 184.234375 209.265625 C 184.773438 209.160156 185.316406 209.078125 185.863281 209.023438 C 186.40625 208.972656 186.957031 208.945312 187.503906 208.945312 C 188.054688 208.945312 188.601562 208.972656 189.148438 209.023438 C 189.691406 209.078125 190.234375 209.160156 190.773438 209.265625 C 191.3125 209.375 191.84375 209.507812 192.367188 209.664062 C 192.894531 209.824219 193.410156 210.011719 193.917969 210.21875 C 194.425781 210.429688 194.921875 210.664062 195.402344 210.921875 C 195.886719 211.183594 196.359375 211.464844 196.816406 211.769531 C 197.269531 212.074219 197.710938 212.402344 198.136719 212.75 C 198.558594 213.097656 198.964844 213.464844 199.355469 213.855469 C 199.742188 214.242188 200.109375 214.648438 200.457031 215.074219 C 200.808594 215.496094 201.132812 215.9375 201.4375 216.394531 C 201.742188 216.851562 202.023438 217.320312 202.285156 217.804688 C 202.542969 218.289062 202.777344 218.785156 202.988281 219.292969 C 203.195312 219.796875 203.382812 220.316406 203.539062 220.839844 C 203.699219 221.367188 203.832031 221.898438 203.941406 222.433594 C 204.046875 222.972656 204.128906 223.515625 204.179688 224.0625 C 204.234375 224.609375 204.261719 225.15625 204.261719 225.703125 C 204.261719 226.253906 204.234375 226.800781 204.179688 227.347656 C 204.125 227.890625 204.042969 228.433594 203.933594 228.972656 C 203.828125 229.507812 203.695312 230.039062 203.535156 230.566406 C 203.375 231.089844 203.1875 231.605469 202.980469 232.113281 C 202.769531 232.621094 202.535156 233.113281 202.273438 233.597656 C 202.015625 234.082031 201.734375 234.550781 201.429688 235.007812 C 201.125 235.464844 200.796875 235.902344 200.449219 236.328125 C 200.101562 236.75 199.734375 237.15625 199.347656 237.542969 C 198.957031 237.933594 198.550781 238.300781 198.128906 238.648438 C 197.703125 238.996094 197.265625 239.324219 196.808594 239.628906 C 196.351562 239.933594 195.882812 240.214844 195.398438 240.472656 C 194.914062 240.730469 194.421875 240.964844 193.914062 241.175781 C 193.40625 241.386719 192.890625 241.570312 192.367188 241.730469 C 191.84375 241.890625 191.3125 242.023438 190.773438 242.132812 C 190.234375 242.238281 189.691406 242.320312 189.148438 242.375 C 188.601562 242.429688 188.054688 242.457031 187.507812 242.457031 Z M 187.507812 242.460938 " fill-opacity="1" fill-rule="nonzero"/><path fill="#ffffff" d="M 187.507812 197.859375 C 186.734375 197.859375 185.960938 197.898438 185.191406 197.972656 C 184.421875 198.050781 183.660156 198.164062 182.902344 198.3125 C 182.144531 198.464844 181.394531 198.652344 180.652344 198.875 C 179.914062 199.101562 179.1875 199.359375 178.472656 199.65625 C 177.757812 199.953125 177.0625 200.28125 176.378906 200.644531 C 175.699219 201.011719 175.035156 201.40625 174.390625 201.835938 C 173.75 202.265625 173.128906 202.726562 172.53125 203.214844 C 171.933594 203.707031 171.363281 204.226562 170.816406 204.773438 C 170.269531 205.316406 169.75 205.890625 169.257812 206.488281 C 168.769531 207.085938 168.308594 207.707031 167.878906 208.347656 C 167.449219 208.992188 167.054688 209.652344 166.6875 210.335938 C 166.324219 211.015625 165.992188 211.714844 165.699219 212.429688 C 165.402344 213.144531 165.140625 213.871094 164.917969 214.609375 C 164.691406 215.347656 164.503906 216.097656 164.355469 216.855469 C 164.203125 217.613281 164.089844 218.378906 164.015625 219.148438 C 163.9375 219.917969 163.902344 220.6875 163.902344 221.460938 C 163.902344 222.234375 163.9375 223.003906 164.015625 223.773438 C 164.089844 224.542969 164.203125 225.308594 164.355469 226.066406 C 164.503906 226.824219 164.691406 227.574219 164.917969 228.3125 C 165.140625 229.054688 165.402344 229.78125 165.695312 230.492188 C 165.992188 231.207031 166.324219 231.90625 166.6875 232.589844 C 167.050781 233.269531 167.449219 233.933594 167.878906 234.574219 C 168.308594 235.21875 168.769531 235.835938 169.257812 236.433594 C 169.75 237.03125 170.265625 237.605469 170.8125 238.152344 C 171.359375 238.699219 171.933594 239.21875 172.53125 239.707031 C 173.128906 240.199219 173.746094 240.65625 174.390625 241.085938 C 175.035156 241.515625 175.695312 241.914062 176.378906 242.277344 C 177.058594 242.640625 177.757812 242.972656 178.472656 243.269531 C 179.1875 243.5625 179.914062 243.824219 180.652344 244.046875 C 181.390625 244.273438 182.140625 244.460938 182.898438 244.609375 C 183.65625 244.761719 184.421875 244.875 185.191406 244.949219 C 185.960938 245.027344 186.730469 245.066406 187.503906 245.066406 C 188.277344 245.066406 189.046875 245.027344 189.816406 244.949219 C 190.585938 244.875 191.351562 244.761719 192.109375 244.609375 C 192.867188 244.460938 193.617188 244.273438 194.355469 244.046875 C 195.09375 243.824219 195.824219 243.5625 196.535156 243.265625 C 197.25 242.972656 197.949219 242.640625 198.628906 242.277344 C 199.3125 241.914062 199.972656 241.515625 200.617188 241.085938 C 201.261719 240.65625 201.878906 240.195312 202.476562 239.707031 C 203.074219 239.214844 203.648438 238.695312 204.195312 238.148438 C 204.742188 237.605469 205.257812 237.03125 205.75 236.433594 C 206.238281 235.835938 206.699219 235.214844 207.128906 234.574219 C 207.558594 233.929688 207.957031 233.269531 208.320312 232.585938 C 208.683594 231.90625 209.015625 231.207031 209.308594 230.492188 C 209.605469 229.777344 209.867188 229.050781 210.089844 228.3125 C 210.3125 227.570312 210.5 226.824219 210.652344 226.0625 C 210.804688 225.304688 210.917969 224.542969 210.992188 223.773438 C 211.066406 223.003906 211.105469 222.230469 211.105469 221.460938 C 211.105469 220.6875 211.066406 219.914062 210.988281 219.148438 C 210.914062 218.378906 210.796875 217.613281 210.648438 216.855469 C 210.496094 216.101562 210.308594 215.351562 210.082031 214.613281 C 209.859375 213.871094 209.597656 213.144531 209.300781 212.433594 C 209.003906 211.71875 208.675781 211.023438 208.3125 210.339844 C 207.945312 209.660156 207.550781 208.996094 207.121094 208.355469 C 206.691406 207.710938 206.230469 207.09375 205.738281 206.496094 C 205.25 205.898438 204.730469 205.328125 204.183594 204.78125 C 203.640625 204.234375 203.066406 203.714844 202.46875 203.226562 C 201.871094 202.734375 201.253906 202.273438 200.609375 201.847656 C 199.96875 201.417969 199.304688 201.019531 198.625 200.65625 C 197.945312 200.289062 197.246094 199.960938 196.53125 199.664062 C 195.820312 199.367188 195.09375 199.105469 194.355469 198.882812 C 193.613281 198.65625 192.867188 198.46875 192.109375 198.316406 C 191.351562 198.167969 190.585938 198.054688 189.820312 197.976562 C 189.050781 197.898438 188.277344 197.859375 187.507812 197.859375 Z M 187.507812 243.828125 C 186.773438 243.832031 186.042969 243.792969 185.3125 243.722656 C 184.585938 243.652344 183.859375 243.542969 183.140625 243.402344 C 182.421875 243.257812 181.714844 243.082031 181.011719 242.867188 C 180.3125 242.65625 179.621094 242.410156 178.945312 242.128906 C 178.269531 241.847656 177.605469 241.535156 176.960938 241.191406 C 176.3125 240.84375 175.6875 240.46875 175.078125 240.0625 C 174.46875 239.65625 173.878906 239.21875 173.3125 238.753906 C 172.746094 238.289062 172.203125 237.796875 171.6875 237.28125 C 171.167969 236.761719 170.675781 236.21875 170.210938 235.652344 C 169.746094 235.085938 169.3125 234.5 168.902344 233.890625 C 168.496094 233.28125 168.121094 232.652344 167.773438 232.007812 C 167.429688 231.359375 167.117188 230.699219 166.835938 230.023438 C 166.554688 229.34375 166.308594 228.65625 166.097656 227.957031 C 165.882812 227.253906 165.707031 226.542969 165.5625 225.824219 C 165.417969 225.105469 165.3125 224.382812 165.242188 223.652344 C 165.167969 222.925781 165.132812 222.195312 165.132812 221.460938 C 165.132812 220.730469 165.167969 219.996094 165.238281 219.269531 C 165.3125 218.539062 165.417969 217.816406 165.5625 217.097656 C 165.703125 216.378906 165.882812 215.667969 166.09375 214.96875 C 166.308594 214.265625 166.554688 213.578125 166.835938 212.898438 C 167.113281 212.222656 167.425781 211.5625 167.773438 210.914062 C 168.117188 210.269531 168.496094 209.640625 168.902344 209.03125 C 169.308594 208.421875 169.746094 207.835938 170.210938 207.269531 C 170.675781 206.703125 171.164062 206.160156 171.683594 205.640625 C 172.203125 205.125 172.742188 204.632812 173.308594 204.167969 C 173.875 203.703125 174.464844 203.265625 175.074219 202.859375 C 175.683594 202.453125 176.308594 202.078125 176.957031 201.730469 C 177.601562 201.386719 178.265625 201.074219 178.941406 200.792969 C 179.617188 200.511719 180.308594 200.265625 181.007812 200.050781 C 181.710938 199.839844 182.417969 199.660156 183.136719 199.519531 C 183.855469 199.375 184.582031 199.269531 185.308594 199.195312 C 186.039062 199.125 186.769531 199.089844 187.503906 199.089844 C 188.234375 199.089844 188.964844 199.125 189.695312 199.195312 C 190.425781 199.269531 191.148438 199.375 191.867188 199.519531 C 192.585938 199.660156 193.296875 199.839844 193.996094 200.050781 C 194.699219 200.265625 195.386719 200.511719 196.0625 200.792969 C 196.738281 201.070312 197.402344 201.382812 198.046875 201.730469 C 198.695312 202.074219 199.320312 202.453125 199.929688 202.859375 C 200.539062 203.265625 201.128906 203.703125 201.695312 204.167969 C 202.261719 204.632812 202.804688 205.121094 203.320312 205.640625 C 203.839844 206.160156 204.332031 206.699219 204.796875 207.265625 C 205.261719 207.832031 205.695312 208.421875 206.101562 209.03125 C 206.511719 209.640625 206.886719 210.265625 207.230469 210.914062 C 207.578125 211.558594 207.890625 212.222656 208.171875 212.898438 C 208.453125 213.574219 208.699219 214.265625 208.910156 214.964844 C 209.125 215.667969 209.300781 216.375 209.445312 217.09375 C 209.585938 217.8125 209.695312 218.539062 209.765625 219.265625 C 209.835938 219.996094 209.875 220.726562 209.875 221.460938 C 209.871094 222.191406 209.835938 222.921875 209.765625 223.652344 C 209.691406 224.378906 209.582031 225.101562 209.441406 225.820312 C 209.296875 226.539062 209.117188 227.25 208.90625 227.949219 C 208.691406 228.652344 208.445312 229.339844 208.164062 230.015625 C 207.882812 230.691406 207.570312 231.351562 207.226562 232 C 206.878906 232.644531 206.503906 233.273438 206.097656 233.882812 C 205.691406 234.488281 205.253906 235.078125 204.789062 235.644531 C 204.324219 236.210938 203.832031 236.75 203.316406 237.269531 C 202.796875 237.789062 202.253906 238.277344 201.691406 238.742188 C 201.125 239.207031 200.535156 239.644531 199.925781 240.050781 C 199.320312 240.457031 198.691406 240.835938 198.046875 241.179688 C 197.398438 241.527344 196.738281 241.839844 196.0625 242.121094 C 195.386719 242.402344 194.695312 242.648438 193.996094 242.859375 C 193.296875 243.074219 192.585938 243.253906 191.867188 243.394531 C 191.148438 243.539062 190.425781 243.648438 189.699219 243.71875 C 188.96875 243.792969 188.238281 243.828125 187.507812 243.828125 Z M 187.507812 243.828125 " fill-opacity="1" fill-rule="nonzero"/><path fill="#ffffff" d="M 187.507812 188 C 186.550781 188 185.59375 188.046875 184.640625 188.140625 C 183.691406 188.234375 182.746094 188.375 181.804688 188.5625 C 180.867188 188.75 179.941406 188.980469 179.023438 189.257812 C 178.109375 189.535156 177.210938 189.859375 176.324219 190.226562 C 175.441406 190.589844 174.578125 191 173.734375 191.449219 C 172.890625 191.902344 172.070312 192.394531 171.273438 192.925781 C 170.476562 193.457031 169.710938 194.023438 168.96875 194.632812 C 168.230469 195.238281 167.523438 195.882812 166.847656 196.558594 C 166.167969 197.234375 165.527344 197.941406 164.921875 198.683594 C 164.3125 199.421875 163.742188 200.1875 163.210938 200.984375 C 162.679688 201.78125 162.1875 202.601562 161.738281 203.445312 C 161.289062 204.289062 160.878906 205.152344 160.511719 206.035156 C 160.144531 206.921875 159.824219 207.820312 159.546875 208.734375 C 159.269531 209.652344 159.035156 210.578125 158.847656 211.515625 C 158.664062 212.457031 158.523438 213.402344 158.429688 214.351562 C 158.335938 215.304688 158.289062 216.261719 158.289062 217.214844 C 158.289062 218.171875 158.335938 219.128906 158.429688 220.082031 C 158.523438 221.03125 158.664062 221.976562 158.847656 222.917969 C 159.035156 223.855469 159.269531 224.78125 159.546875 225.699219 C 159.824219 226.613281 160.144531 227.511719 160.511719 228.398438 C 160.878906 229.28125 161.289062 230.144531 161.738281 230.988281 C 162.1875 231.832031 162.679688 232.652344 163.210938 233.449219 C 163.742188 234.246094 164.3125 235.011719 164.921875 235.75 C 165.527344 236.492188 166.167969 237.199219 166.847656 237.875 C 167.523438 238.550781 168.230469 239.195312 168.96875 239.800781 C 169.710938 240.410156 170.476562 240.976562 171.273438 241.507812 C 172.070312 242.039062 172.890625 242.53125 173.734375 242.984375 C 174.578125 243.433594 175.441406 243.84375 176.324219 244.207031 C 177.210938 244.574219 178.109375 244.898438 179.023438 245.175781 C 179.941406 245.453125 180.867188 245.683594 181.804688 245.871094 C 182.746094 246.058594 183.691406 246.199219 184.640625 246.292969 C 185.59375 246.386719 186.550781 246.433594 187.507812 246.429688 C 188.464844 246.429688 189.417969 246.382812 190.371094 246.289062 C 191.320312 246.195312 192.265625 246.054688 193.207031 245.871094 C 194.144531 245.683594 195.070312 245.449219 195.988281 245.171875 C 196.902344 244.894531 197.800781 244.574219 198.6875 244.207031 C 199.570312 243.839844 200.433594 243.429688 201.277344 242.980469 C 202.121094 242.527344 202.941406 242.039062 203.738281 241.503906 C 204.53125 240.972656 205.300781 240.40625 206.039062 239.796875 C 206.78125 239.191406 207.488281 238.546875 208.164062 237.871094 C 208.839844 237.195312 209.484375 236.488281 210.089844 235.746094 C 210.695312 235.007812 211.265625 234.238281 211.796875 233.445312 C 212.328125 232.648438 212.820312 231.828125 213.269531 230.984375 C 213.722656 230.140625 214.128906 229.277344 214.496094 228.390625 C 214.863281 227.507812 215.183594 226.609375 215.460938 225.691406 C 215.738281 224.777344 215.972656 223.847656 216.15625 222.910156 C 216.34375 221.972656 216.484375 221.027344 216.578125 220.074219 C 216.671875 219.121094 216.71875 218.167969 216.71875 217.210938 C 216.714844 216.253906 216.667969 215.300781 216.574219 214.347656 C 216.480469 213.398438 216.335938 212.453125 216.148438 211.515625 C 215.960938 210.578125 215.730469 209.652344 215.449219 208.734375 C 215.171875 207.820312 214.851562 206.921875 214.484375 206.039062 C 214.117188 205.15625 213.707031 204.292969 213.257812 203.449219 C 212.804688 202.605469 212.3125 201.785156 211.78125 200.992188 C 211.25 200.195312 210.683594 199.429688 210.074219 198.691406 C 209.46875 197.953125 208.828125 197.242188 208.148438 196.566406 C 207.472656 195.890625 206.765625 195.25 206.027344 194.644531 C 205.289062 194.035156 204.519531 193.46875 203.726562 192.9375 C 202.929688 192.402344 202.113281 191.914062 201.269531 191.460938 C 200.425781 191.011719 199.5625 190.601562 198.679688 190.234375 C 197.796875 189.867188 196.894531 189.546875 195.980469 189.269531 C 195.066406 188.988281 194.140625 188.757812 193.203125 188.570312 C 192.265625 188.382812 191.320312 188.242188 190.367188 188.144531 C 189.417969 188.050781 188.460938 188.003906 187.507812 188 Z M 187.507812 245.195312 C 186.589844 245.195312 185.675781 245.152344 184.761719 245.0625 C 183.851562 244.972656 182.945312 244.839844 182.046875 244.660156 C 181.148438 244.480469 180.261719 244.257812 179.382812 243.992188 C 178.503906 243.726562 177.644531 243.417969 176.796875 243.066406 C 175.949219 242.71875 175.121094 242.328125 174.316406 241.894531 C 173.507812 241.460938 172.722656 240.992188 171.957031 240.484375 C 171.195312 239.972656 170.460938 239.429688 169.753906 238.847656 C 169.042969 238.265625 168.367188 237.652344 167.71875 237.003906 C 167.070312 236.355469 166.453125 235.675781 165.875 234.96875 C 165.292969 234.261719 164.746094 233.523438 164.238281 232.761719 C 163.726562 232 163.257812 231.214844 162.824219 230.40625 C 162.394531 229.597656 162 228.773438 161.652344 227.925781 C 161.300781 227.078125 160.992188 226.214844 160.726562 225.339844 C 160.460938 224.460938 160.238281 223.574219 160.058594 222.675781 C 159.878906 221.777344 159.746094 220.871094 159.65625 219.960938 C 159.566406 219.046875 159.519531 218.132812 159.519531 217.214844 C 159.519531 216.300781 159.5625 215.386719 159.652344 214.472656 C 159.742188 213.5625 159.878906 212.65625 160.058594 211.757812 C 160.234375 210.859375 160.457031 209.96875 160.722656 209.09375 C 160.988281 208.214844 161.296875 207.355469 161.648438 206.507812 C 162 205.660156 162.390625 204.832031 162.824219 204.023438 C 163.253906 203.214844 163.726562 202.429688 164.234375 201.667969 C 164.742188 200.90625 165.289062 200.171875 165.871094 199.464844 C 166.449219 198.753906 167.066406 198.078125 167.714844 197.429688 C 168.363281 196.78125 169.039062 196.164062 169.75 195.585938 C 170.457031 195.003906 171.191406 194.457031 171.953125 193.949219 C 172.714844 193.4375 173.5 192.96875 174.308594 192.535156 C 175.117188 192.105469 175.945312 191.710938 176.792969 191.363281 C 177.636719 191.011719 178.5 190.703125 179.378906 190.4375 C 180.253906 190.171875 181.140625 189.949219 182.039062 189.769531 C 182.941406 189.589844 183.84375 189.457031 184.757812 189.367188 C 185.667969 189.277344 186.582031 189.230469 187.5 189.230469 C 188.417969 189.230469 189.332031 189.273438 190.242188 189.363281 C 191.15625 189.453125 192.058594 189.589844 192.960938 189.765625 C 193.859375 189.945312 194.746094 190.167969 195.625 190.433594 C 196.5 190.699219 197.363281 191.007812 198.210938 191.359375 C 199.054688 191.710938 199.882812 192.101562 200.691406 192.53125 C 201.5 192.964844 202.285156 193.433594 203.046875 193.945312 C 203.808594 194.453125 204.542969 195 205.253906 195.582031 C 205.960938 196.160156 206.640625 196.777344 207.289062 197.425781 C 207.9375 198.070312 208.550781 198.75 209.132812 199.457031 C 209.714844 200.167969 210.257812 200.902344 210.769531 201.664062 C 211.277344 202.425781 211.75 203.210938 212.179688 204.019531 C 212.613281 204.828125 213.003906 205.65625 213.355469 206.503906 C 213.707031 207.347656 214.015625 208.210938 214.28125 209.085938 C 214.546875 209.964844 214.769531 210.851562 214.949219 211.75 C 215.128906 212.648438 215.261719 213.554688 215.351562 214.46875 C 215.441406 215.378906 215.488281 216.292969 215.488281 217.210938 C 215.484375 218.125 215.441406 219.039062 215.347656 219.953125 C 215.257812 220.863281 215.125 221.769531 214.945312 222.667969 C 214.765625 223.566406 214.542969 224.453125 214.273438 225.332031 C 214.007812 226.207031 213.699219 227.066406 213.347656 227.914062 C 212.996094 228.761719 212.605469 229.585938 212.171875 230.394531 C 211.742188 231.203125 211.269531 231.988281 210.761719 232.75 C 210.253906 233.511719 209.707031 234.246094 209.125 234.953125 C 208.542969 235.664062 207.929688 236.339844 207.28125 236.988281 C 206.636719 237.636719 205.957031 238.25 205.25 238.832031 C 204.539062 239.414062 203.804688 239.960938 203.042969 240.46875 C 202.28125 240.976562 201.5 241.449219 200.691406 241.882812 C 199.882812 242.3125 199.054688 242.707031 198.210938 243.058594 C 197.363281 243.40625 196.5 243.71875 195.625 243.984375 C 194.75 244.25 193.863281 244.472656 192.964844 244.652344 C 192.066406 244.832031 191.160156 244.96875 190.246094 245.058594 C 189.335938 245.148438 188.421875 245.195312 187.507812 245.195312 Z M 187.507812 245.195312 " fill-opacity="1" fill-rule="nonzero"/><path fill="#ffffff" d="M 187.507812 178.144531 C 186.367188 178.144531 185.226562 178.199219 184.09375 178.3125 C 182.957031 178.421875 181.832031 178.589844 180.710938 178.8125 C 179.59375 179.035156 178.488281 179.3125 177.394531 179.644531 C 176.304688 179.972656 175.230469 180.359375 174.179688 180.792969 C 173.125 181.230469 172.09375 181.71875 171.089844 182.253906 C 170.082031 182.792969 169.105469 183.378906 168.15625 184.011719 C 167.207031 184.648438 166.292969 185.324219 165.410156 186.050781 C 164.53125 186.773438 163.6875 187.539062 162.878906 188.34375 C 162.074219 189.152344 161.308594 189.996094 160.585938 190.875 C 159.859375 191.757812 159.183594 192.671875 158.546875 193.621094 C 157.914062 194.570312 157.328125 195.546875 156.789062 196.554688 C 156.253906 197.558594 155.765625 198.589844 155.328125 199.644531 C 154.894531 200.695312 154.507812 201.769531 154.179688 202.859375 C 153.847656 203.953125 153.570312 205.058594 153.347656 206.175781 C 153.125 207.296875 152.957031 208.421875 152.847656 209.558594 C 152.734375 210.691406 152.679688 211.832031 152.679688 212.972656 C 152.679688 214.113281 152.734375 215.25 152.847656 216.382812 C 152.957031 217.519531 153.125 218.648438 153.347656 219.765625 C 153.570312 220.882812 153.847656 221.988281 154.179688 223.082031 C 154.507812 224.171875 154.894531 225.246094 155.328125 226.300781 C 155.765625 227.351562 156.253906 228.382812 156.789062 229.386719 C 157.328125 230.394531 157.914062 231.371094 158.546875 232.320312 C 159.183594 233.269531 159.859375 234.183594 160.585938 235.066406 C 161.308594 235.945312 162.074219 236.792969 162.878906 237.597656 C 163.6875 238.40625 164.53125 239.167969 165.410156 239.894531 C 166.292969 240.617188 167.207031 241.296875 168.15625 241.929688 C 169.105469 242.5625 170.082031 243.148438 171.089844 243.6875 C 172.09375 244.222656 173.125 244.710938 174.179688 245.148438 C 175.230469 245.585938 176.304688 245.96875 177.394531 246.300781 C 178.488281 246.628906 179.59375 246.90625 180.710938 247.128906 C 181.832031 247.351562 182.957031 247.519531 184.09375 247.632812 C 185.226562 247.742188 186.367188 247.796875 187.507812 247.796875 C 188.648438 247.796875 189.785156 247.742188 190.917969 247.632812 C 192.054688 247.519531 193.183594 247.351562 194.300781 247.128906 C 195.417969 246.90625 196.523438 246.628906 197.617188 246.300781 C 198.707031 245.96875 199.78125 245.585938 200.835938 245.148438 C 201.886719 244.710938 202.917969 244.222656 203.921875 243.6875 C 204.929688 243.148438 205.90625 242.5625 206.855469 241.929688 C 207.804688 241.296875 208.71875 240.617188 209.601562 239.894531 C 210.480469 239.167969 211.328125 238.40625 212.132812 237.597656 C 212.941406 236.792969 213.703125 235.945312 214.429688 235.066406 C 215.152344 234.183594 215.832031 233.269531 216.464844 232.320312 C 217.097656 231.371094 217.683594 230.394531 218.222656 229.386719 C 218.757812 228.382812 219.246094 227.351562 219.683594 226.300781 C 220.117188 225.246094 220.503906 224.171875 220.835938 223.082031 C 221.164062 221.988281 221.441406 220.882812 221.664062 219.765625 C 221.886719 218.648438 222.054688 217.519531 222.167969 216.382812 C 222.277344 215.25 222.332031 214.113281 222.332031 212.972656 C 222.332031 211.832031 222.277344 210.691406 222.164062 209.558594 C 222.050781 208.421875 221.882812 207.296875 221.660156 206.179688 C 221.433594 205.0625 221.15625 203.957031 220.824219 202.867188 C 220.492188 201.773438 220.109375 200.703125 219.671875 199.648438 C 219.234375 198.59375 218.75 197.566406 218.210938 196.5625 C 217.671875 195.554688 217.085938 194.578125 216.453125 193.628906 C 215.820312 192.683594 215.140625 191.769531 214.417969 190.886719 C 213.695312 190.003906 212.929688 189.160156 212.121094 188.355469 C 211.316406 187.546875 210.472656 186.785156 209.589844 186.058594 C 208.710938 185.335938 207.792969 184.65625 206.847656 184.023438 C 205.898438 183.390625 204.921875 182.804688 203.917969 182.265625 C 202.910156 181.730469 201.882812 181.242188 200.828125 180.804688 C 199.773438 180.367188 198.703125 179.984375 197.613281 179.652344 C 196.519531 179.320312 195.417969 179.042969 194.296875 178.820312 C 193.179688 178.59375 192.054688 178.425781 190.917969 178.316406 C 189.785156 178.203125 188.644531 178.144531 187.507812 178.144531 Z M 187.507812 246.566406 C 186.40625 246.566406 185.308594 246.511719 184.214844 246.40625 C 183.117188 246.296875 182.03125 246.136719 180.953125 245.921875 C 179.871094 245.707031 178.808594 245.441406 177.753906 245.121094 C 176.699219 244.800781 175.667969 244.429688 174.648438 244.007812 C 173.632812 243.589844 172.640625 243.117188 171.667969 242.601562 C 170.699219 242.082031 169.757812 241.515625 168.839844 240.90625 C 167.925781 240.292969 167.042969 239.640625 166.191406 238.941406 C 165.34375 238.242188 164.527344 237.503906 163.75 236.726562 C 162.972656 235.949219 162.234375 235.132812 161.535156 234.285156 C 160.839844 233.433594 160.183594 232.550781 159.570312 231.636719 C 158.960938 230.722656 158.394531 229.777344 157.878906 228.808594 C 157.359375 227.835938 156.886719 226.84375 156.46875 225.828125 C 156.046875 224.8125 155.675781 223.777344 155.355469 222.722656 C 155.039062 221.671875 154.769531 220.605469 154.554688 219.523438 C 154.339844 218.445312 154.179688 217.359375 154.070312 216.265625 C 153.964844 215.167969 153.910156 214.070312 153.910156 212.972656 C 153.910156 211.871094 153.964844 210.773438 154.070312 209.679688 C 154.179688 208.582031 154.339844 207.496094 154.554688 206.417969 C 154.769531 205.335938 155.039062 204.273438 155.355469 203.21875 C 155.675781 202.164062 156.046875 201.132812 156.46875 200.113281 C 156.886719 199.097656 157.359375 198.105469 157.878906 197.132812 C 158.394531 196.164062 158.960938 195.222656 159.570312 194.304688 C 160.183594 193.390625 160.839844 192.507812 161.535156 191.65625 C 162.234375 190.808594 162.972656 189.992188 163.75 189.214844 C 164.527344 188.4375 165.34375 187.699219 166.191406 187 C 167.042969 186.304688 167.925781 185.648438 168.839844 185.035156 C 169.757812 184.425781 170.699219 183.859375 171.667969 183.34375 C 172.640625 182.824219 173.632812 182.351562 174.648438 181.933594 C 175.667969 181.511719 176.699219 181.140625 177.753906 180.820312 C 178.808594 180.503906 179.871094 180.234375 180.953125 180.019531 C 182.03125 179.804688 183.117188 179.644531 184.214844 179.535156 C 185.308594 179.429688 186.40625 179.375 187.507812 179.375 C 188.605469 179.375 189.703125 179.429688 190.800781 179.535156 C 191.894531 179.644531 192.980469 179.804688 194.058594 180.019531 C 195.140625 180.234375 196.207031 180.503906 197.257812 180.820312 C 198.3125 181.140625 199.347656 181.511719 200.363281 181.933594 C 201.378906 182.351562 202.371094 182.824219 203.34375 183.34375 C 204.3125 183.859375 205.257812 184.425781 206.171875 185.035156 C 207.085938 185.648438 207.96875 186.304688 208.820312 187 C 209.667969 187.699219 210.484375 188.4375 211.261719 189.214844 C 212.039062 189.992188 212.777344 190.808594 213.476562 191.65625 C 214.175781 192.507812 214.828125 193.390625 215.441406 194.304688 C 216.050781 195.222656 216.617188 196.164062 217.136719 197.132812 C 217.652344 198.105469 218.125 199.097656 218.542969 200.113281 C 218.964844 201.132812 219.335938 202.164062 219.65625 203.21875 C 219.976562 204.273438 220.242188 205.335938 220.457031 206.417969 C 220.671875 207.496094 220.832031 208.582031 220.941406 209.679688 C 221.046875 210.773438 221.101562 211.871094 221.101562 212.972656 C 221.101562 214.070312 221.046875 215.167969 220.9375 216.261719 C 220.828125 217.359375 220.667969 218.445312 220.449219 219.523438 C 220.234375 220.601562 219.96875 221.667969 219.648438 222.71875 C 219.328125 223.773438 218.957031 224.804688 218.535156 225.820312 C 218.113281 226.839844 217.644531 227.832031 217.125 228.800781 C 216.605469 229.769531 216.039062 230.710938 215.429688 231.628906 C 214.816406 232.542969 214.164062 233.425781 213.464844 234.273438 C 212.765625 235.125 212.027344 235.9375 211.25 236.714844 C 210.472656 237.492188 209.660156 238.230469 208.808594 238.929688 C 207.960938 239.628906 207.078125 240.28125 206.164062 240.894531 C 205.246094 241.503906 204.304688 242.070312 203.335938 242.589844 C 202.367188 243.109375 201.375 243.578125 200.355469 244 C 199.339844 244.421875 198.308594 244.792969 197.253906 245.113281 C 196.203125 245.433594 195.136719 245.699219 194.058594 245.914062 C 192.980469 246.132812 191.890625 246.292969 190.796875 246.402344 C 189.703125 246.511719 188.605469 246.566406 187.507812 246.566406 Z M 187.507812 246.566406 " fill-opacity="1" fill-rule="nonzero"/><path fill="#ffffff" d="M 187.507812 168.285156 C 165.207031 168.285156 147.0625 186.429688 147.0625 208.726562 C 147.0625 231.023438 165.207031 249.167969 187.507812 249.167969 C 209.804688 249.167969 227.945312 231.023438 227.945312 208.726562 C 227.945312 186.425781 209.804688 168.285156 187.507812 168.285156 Z M 187.507812 247.9375 C 186.222656 247.9375 184.941406 247.875 183.664062 247.75 C 182.382812 247.621094 181.117188 247.433594 179.855469 247.183594 C 178.597656 246.933594 177.351562 246.621094 176.125 246.25 C 174.894531 245.875 173.6875 245.445312 172.5 244.953125 C 171.3125 244.460938 170.152344 243.914062 169.019531 243.308594 C 167.886719 242.703125 166.789062 242.042969 165.71875 241.332031 C 164.652344 240.617188 163.621094 239.851562 162.628906 239.039062 C 161.636719 238.222656 160.6875 237.363281 159.777344 236.453125 C 158.871094 235.546875 158.007812 234.59375 157.195312 233.601562 C 156.378906 232.609375 155.613281 231.578125 154.902344 230.511719 C 154.1875 229.445312 153.527344 228.34375 152.921875 227.210938 C 152.316406 226.078125 151.769531 224.917969 151.277344 223.734375 C 150.785156 222.546875 150.351562 221.339844 149.980469 220.109375 C 149.609375 218.882812 149.296875 217.636719 149.046875 216.378906 C 148.792969 215.117188 148.605469 213.847656 148.480469 212.570312 C 148.355469 211.292969 148.292969 210.011719 148.292969 208.726562 C 148.292969 207.441406 148.355469 206.160156 148.480469 204.882812 C 148.605469 203.605469 148.792969 202.335938 149.042969 201.078125 C 149.292969 199.816406 149.605469 198.574219 149.980469 197.34375 C 150.351562 196.117188 150.785156 194.90625 151.273438 193.722656 C 151.765625 192.535156 152.316406 191.375 152.921875 190.242188 C 153.527344 189.109375 154.183594 188.007812 154.898438 186.941406 C 155.613281 185.875 156.375 184.84375 157.191406 183.851562 C 158.003906 182.859375 158.867188 181.90625 159.773438 181 C 160.683594 180.089844 161.632812 179.230469 162.625 178.414062 C 163.617188 177.601562 164.648438 176.835938 165.71875 176.121094 C 166.785156 175.410156 167.886719 174.75 169.015625 174.144531 C 170.148438 173.539062 171.308594 172.992188 172.496094 172.5 C 173.683594 172.007812 174.890625 171.574219 176.121094 171.203125 C 177.347656 170.828125 178.59375 170.519531 179.851562 170.265625 C 181.113281 170.015625 182.378906 169.828125 183.660156 169.703125 C 184.9375 169.578125 186.21875 169.511719 187.503906 169.511719 C 188.785156 169.511719 190.066406 169.578125 191.34375 169.703125 C 192.625 169.828125 193.890625 170.015625 195.152344 170.265625 C 196.410156 170.515625 197.65625 170.828125 198.886719 171.203125 C 200.113281 171.574219 201.320312 172.007812 202.507812 172.5 C 203.695312 172.988281 204.855469 173.539062 205.988281 174.144531 C 207.121094 174.75 208.21875 175.40625 209.289062 176.121094 C 210.355469 176.835938 211.386719 177.597656 212.378906 178.414062 C 213.371094 179.230469 214.320312 180.089844 215.230469 180.996094 C 216.136719 181.90625 217 182.855469 217.8125 183.847656 C 218.628906 184.84375 219.394531 185.871094 220.105469 186.941406 C 220.820312 188.007812 221.480469 189.109375 222.085938 190.242188 C 222.691406 191.375 223.238281 192.53125 223.730469 193.71875 C 224.222656 194.90625 224.652344 196.113281 225.027344 197.34375 C 225.398438 198.570312 225.710938 199.816406 225.960938 201.074219 C 226.210938 202.335938 226.398438 203.605469 226.527344 204.882812 C 226.652344 206.160156 226.714844 207.441406 226.714844 208.726562 C 226.714844 210.007812 226.648438 211.289062 226.523438 212.566406 C 226.394531 213.84375 226.207031 215.113281 225.953125 216.371094 C 225.703125 217.628906 225.390625 218.875 225.015625 220.101562 C 224.644531 221.332031 224.210938 222.539062 223.71875 223.722656 C 223.226562 224.910156 222.679688 226.066406 222.074219 227.199219 C 221.46875 228.332031 220.808594 229.433594 220.09375 230.5 C 219.378906 231.566406 218.617188 232.597656 217.800781 233.589844 C 216.988281 234.582031 216.125 235.53125 215.21875 236.4375 C 214.3125 237.347656 213.359375 238.207031 212.367188 239.023438 C 211.375 239.835938 210.347656 240.601562 209.28125 241.316406 C 208.210938 242.027344 207.113281 242.6875 205.980469 243.292969 C 204.847656 243.898438 203.691406 244.449219 202.503906 244.941406 C 201.320312 245.433594 200.113281 245.863281 198.882812 246.238281 C 197.65625 246.613281 196.410156 246.925781 195.152344 247.175781 C 193.894531 247.425781 192.625 247.617188 191.347656 247.746094 C 190.070312 247.871094 188.789062 247.9375 187.507812 247.9375 Z M 187.507812 247.9375 " fill-opacity="1" fill-rule="nonzero"/><path fill="#ffffff" d="M 187.507812 158.425781 C 162.109375 158.425781 141.449219 179.089844 141.449219 204.484375 C 141.449219 229.875 162.101562 250.535156 187.507812 250.535156 C 212.914062 250.535156 233.558594 229.875 233.558594 204.484375 C 233.558594 179.089844 212.898438 158.425781 187.507812 158.425781 Z M 187.507812 249.304688 C 162.789062 249.304688 142.683594 229.195312 142.683594 204.484375 C 142.683594 179.769531 162.789062 159.660156 187.507812 159.660156 C 212.222656 159.660156 232.328125 179.765625 232.328125 204.484375 C 232.328125 229.199219 212.21875 249.304688 187.507812 249.304688 Z M 187.507812 249.304688 " fill-opacity="1" fill-rule="nonzero"/><path fill="#ffffff" d="M 187.507812 148.566406 C 159.019531 148.566406 135.835938 171.75 135.835938 200.238281 C 135.835938 228.726562 159.019531 251.90625 187.507812 251.90625 C 215.992188 251.90625 239.171875 228.726562 239.171875 200.238281 C 239.171875 171.746094 215.996094 148.566406 187.507812 148.566406 Z M 187.507812 250.675781 C 159.695312 250.675781 137.070312 228.046875 137.070312 200.238281 C 137.070312 172.425781 159.695312 149.800781 187.507812 149.800781 C 215.316406 149.800781 237.941406 172.425781 237.941406 200.238281 C 237.941406 228.046875 215.316406 250.675781 187.507812 250.675781 Z M 187.507812 250.675781 " fill-opacity="1" fill-rule="nonzero"/><path fill="#ffffff" d="M 187.507812 138.699219 C 155.921875 138.699219 130.222656 164.410156 130.222656 195.996094 C 130.222656 227.578125 155.921875 253.261719 187.507812 253.261719 C 219.089844 253.261719 244.773438 227.566406 244.773438 195.996094 C 244.773438 164.425781 219.089844 138.699219 187.507812 138.699219 Z M 187.507812 252.03125 C 156.597656 252.03125 131.453125 226.886719 131.453125 195.996094 C 131.453125 165.109375 156.597656 139.933594 187.507812 139.933594 C 218.414062 139.933594 243.539062 165.074219 243.539062 195.980469 C 243.539062 226.890625 218.410156 252.042969 187.507812 252.042969 Z M 187.507812 252.03125 " fill-opacity="1" fill-rule="nonzero"/><path fill="#ffffff" d="M 187.507812 128.847656 C 152.824219 128.847656 124.609375 157.070312 124.609375 191.75 C 124.609375 226.429688 152.824219 254.644531 187.507812 254.644531 C 222.1875 254.644531 250.398438 226.429688 250.398438 191.75 C 250.398438 157.070312 222.1875 128.847656 187.507812 128.847656 Z M 187.507812 253.40625 C 153.503906 253.40625 125.839844 225.746094 125.839844 191.742188 C 125.839844 157.738281 153.503906 130.078125 187.507812 130.078125 C 221.507812 130.078125 249.167969 157.75 249.167969 191.75 C 249.167969 225.75 221.519531 253.410156 187.507812 253.410156 Z M 187.507812 253.40625 " fill-opacity="1" fill-rule="nonzero"/><path fill="#ffffff" d="M 235.949219 139.0625 C 235.15625 138.269531 234.34375 137.5 233.511719 136.75 C 232.679688 136 231.832031 135.273438 230.964844 134.5625 C 230.097656 133.855469 229.214844 133.167969 228.3125 132.503906 C 227.410156 131.839844 226.496094 131.195312 225.5625 130.574219 C 224.632812 129.957031 223.683594 129.359375 222.722656 128.785156 C 221.761719 128.210938 220.785156 127.660156 219.796875 127.136719 C 218.808594 126.609375 217.808594 126.109375 216.796875 125.632812 C 215.785156 125.152344 214.757812 124.703125 213.722656 124.277344 C 212.6875 123.847656 211.644531 123.449219 210.589844 123.074219 C 209.535156 122.695312 208.472656 122.347656 207.398438 122.023438 C 206.328125 121.699219 205.25 121.40625 204.164062 121.132812 C 203.074219 120.863281 201.984375 120.621094 200.886719 120.402344 C 199.785156 120.1875 198.683594 119.996094 197.574219 119.832031 C 196.46875 119.671875 195.355469 119.535156 194.242188 119.425781 C 193.128906 119.320312 192.011719 119.238281 190.894531 119.183594 C 189.777344 119.128906 188.65625 119.105469 187.535156 119.105469 C 186.417969 119.105469 185.296875 119.136719 184.179688 119.191406 C 183.0625 119.246094 181.945312 119.332031 180.832031 119.441406 C 179.71875 119.554688 178.605469 119.691406 177.5 119.855469 C 176.394531 120.023438 175.289062 120.214844 174.191406 120.433594 C 173.09375 120.652344 172.003906 120.898438 170.917969 121.171875 C 169.832031 121.445312 168.753906 121.746094 167.679688 122.070312 C 166.609375 122.394531 165.546875 122.746094 164.492188 123.125 C 163.441406 123.503906 162.394531 123.90625 161.363281 124.335938 C 160.328125 124.765625 159.304688 125.21875 158.292969 125.699219 C 157.28125 126.175781 156.28125 126.679688 155.292969 127.210938 C 154.308594 127.738281 153.332031 128.289062 152.375 128.867188 C 151.414062 129.441406 150.46875 130.039062 149.539062 130.664062 C 148.605469 131.285156 147.691406 131.929688 146.792969 132.597656 C 145.894531 133.265625 145.011719 133.953125 144.144531 134.664062 C 143.28125 135.375 142.433594 136.105469 141.605469 136.855469 C 140.773438 137.609375 139.964844 138.378906 139.171875 139.171875 C 138.378906 139.964844 137.609375 140.773438 136.855469 141.601562 C 136.105469 142.433594 135.375 143.28125 134.664062 144.144531 C 133.953125 145.011719 133.265625 145.894531 132.597656 146.792969 C 131.929688 147.691406 131.285156 148.605469 130.664062 149.539062 C 130.039062 150.46875 129.441406 151.414062 128.867188 152.375 C 128.289062 153.332031 127.738281 154.308594 127.210938 155.292969 C 126.679688 156.28125 126.175781 157.28125 125.699219 158.292969 C 125.21875 159.304688 124.765625 160.328125 124.335938 161.363281 C 123.90625 162.394531 123.503906 163.441406 123.125 164.492188 C 122.746094 165.546875 122.394531 166.609375 122.070312 167.679688 C 121.746094 168.753906 121.445312 169.832031 121.171875 170.917969 C 120.898438 172.003906 120.652344 173.09375 120.433594 174.191406 C 120.214844 175.289062 120.023438 176.394531 119.855469 177.5 C 119.691406 178.605469 119.554688 179.71875 119.441406 180.832031 C 119.332031 181.945312 119.246094 183.0625 119.191406 184.179688 C 119.136719 185.296875 119.105469 186.417969 119.105469 187.535156 C 119.105469 188.65625 119.128906 189.777344 119.183594 190.894531 C 119.238281 192.011719 119.320312 193.128906 119.425781 194.242188 C 119.535156 195.355469 119.671875 196.46875 119.832031 197.574219 C 119.996094 198.683594 120.1875 199.785156 120.402344 200.886719 C 120.621094 201.984375 120.863281 203.074219 121.132812 204.164062 C 121.40625 205.25 121.699219 206.328125 122.023438 207.398438 C 122.347656 208.472656 122.695312 209.535156 123.074219 210.589844 C 123.449219 211.644531 123.847656 212.6875 124.277344 213.722656 C 124.703125 214.757812 125.152344 215.785156 125.632812 216.796875 C 126.109375 217.808594 126.609375 218.808594 127.136719 219.796875 C 127.660156 220.785156 128.210938 221.761719 128.785156 222.722656 C 129.359375 223.683594 129.957031 224.632812 130.574219 225.5625 C 131.195312 226.496094 131.839844 227.410156 132.503906 228.3125 C 133.167969 229.214844 133.855469 230.097656 134.5625 230.964844 C 135.273438 231.832031 136 232.679688 136.75 233.511719 C 137.5 234.34375 138.269531 235.15625 139.0625 235.949219 C 139.855469 236.738281 140.667969 237.507812 141.496094 238.257812 C 142.328125 239.007812 143.179688 239.738281 144.046875 240.445312 C 144.914062 241.152344 145.796875 241.839844 146.695312 242.507812 C 147.597656 243.171875 148.515625 243.8125 149.445312 244.433594 C 150.378906 245.054688 151.324219 245.652344 152.285156 246.222656 C 153.246094 246.796875 154.222656 247.347656 155.210938 247.875 C 156.199219 248.398438 157.199219 248.902344 158.210938 249.378906 C 159.226562 249.855469 160.25 250.308594 161.285156 250.734375 C 162.320312 251.160156 163.363281 251.5625 164.417969 251.9375 C 165.472656 252.3125 166.539062 252.660156 167.609375 252.984375 C 168.679688 253.308594 169.761719 253.605469 170.847656 253.875 C 171.933594 254.144531 173.027344 254.390625 174.125 254.605469 C 175.222656 254.824219 176.324219 255.011719 177.433594 255.175781 C 178.542969 255.339844 179.652344 255.472656 180.765625 255.582031 C 181.878906 255.691406 182.996094 255.769531 184.117188 255.824219 C 185.234375 255.878906 186.351562 255.90625 187.472656 255.902344 C 188.589844 255.902344 189.710938 255.875 190.828125 255.816406 C 191.945312 255.761719 193.0625 255.675781 194.175781 255.566406 C 195.292969 255.457031 196.402344 255.316406 197.507812 255.152344 C 198.617188 254.988281 199.71875 254.796875 200.816406 254.574219 C 201.914062 254.355469 203.007812 254.109375 204.09375 253.835938 C 205.179688 253.5625 206.257812 253.265625 207.328125 252.9375 C 208.398438 252.613281 209.460938 252.261719 210.515625 251.882812 C 211.570312 251.507812 212.613281 251.101562 213.648438 250.671875 C 214.679688 250.246094 215.703125 249.789062 216.714844 249.3125 C 217.726562 248.832031 218.726562 248.328125 219.714844 247.800781 C 220.703125 247.273438 221.675781 246.71875 222.636719 246.144531 C 223.597656 245.566406 224.542969 244.96875 225.472656 244.347656 C 226.402344 243.722656 227.316406 243.078125 228.214844 242.414062 C 229.117188 241.746094 230 241.054688 230.863281 240.347656 C 231.730469 239.636719 232.578125 238.90625 233.40625 238.152344 C 234.234375 237.402344 235.046875 236.628906 235.835938 235.835938 C 236.628906 235.046875 237.402344 234.234375 238.152344 233.40625 C 238.90625 232.578125 239.636719 231.730469 240.347656 230.863281 C 241.054688 230 241.746094 229.117188 242.414062 228.214844 C 243.078125 227.316406 243.722656 226.402344 244.347656 225.472656 C 244.96875 224.542969 245.566406 223.597656 246.144531 222.636719 C 246.71875 221.675781 247.273438 220.703125 247.800781 219.714844 C 248.328125 218.726562 248.832031 217.726562 249.3125 216.714844 C 249.789062 215.703125 250.246094 214.679688 250.671875 213.648438 C 251.101562 212.613281 251.507812 211.570312 251.882812 210.515625 C 252.261719 209.460938 252.613281 208.398438 252.9375 207.328125 C 253.265625 206.257812 253.5625 205.179688 253.835938 204.09375 C 254.109375 203.007812 254.355469 201.914062 254.574219 200.816406 C 254.796875 199.71875 254.988281 198.617188 255.152344 197.507812 C 255.316406 196.402344 255.457031 195.292969 255.566406 194.175781 C 255.675781 193.0625 255.761719 191.945312 255.816406 190.828125 C 255.875 189.710938 255.902344 188.589844 255.902344 187.472656 C 255.90625 186.351562 255.878906 185.234375 255.824219 184.117188 C 255.769531 182.996094 255.691406 181.878906 255.582031 180.765625 C 255.472656 179.652344 255.339844 178.542969 255.175781 177.433594 C 255.011719 176.324219 254.824219 175.222656 254.605469 174.125 C 254.390625 173.027344 254.144531 171.933594 253.875 170.847656 C 253.605469 169.761719 253.308594 168.679688 252.984375 167.609375 C 252.660156 166.539062 252.3125 165.472656 251.9375 164.417969 C 251.5625 163.363281 251.160156 162.320312 250.734375 161.285156 C 250.308594 160.25 249.855469 159.226562 249.378906 158.210938 C 248.902344 157.199219 248.398438 156.199219 247.875 155.210938 C 247.347656 154.222656 246.796875 153.246094 246.222656 152.285156 C 245.652344 151.324219 245.054688 150.378906 244.433594 149.445312 C 243.8125 148.515625 243.171875 147.597656 242.507812 146.695312 C 241.839844 145.796875 241.152344 144.914062 240.445312 144.046875 C 239.738281 143.179688 239.007812 142.328125 238.257812 141.496094 C 237.507812 140.667969 236.738281 139.855469 235.949219 139.0625 Z M 235.066406 235.066406 C 234.285156 235.828125 233.484375 236.566406 232.667969 237.289062 C 231.847656 238.007812 231.011719 238.710938 230.160156 239.390625 C 229.304688 240.070312 228.4375 240.730469 227.554688 241.367188 C 226.667969 242.003906 225.769531 242.621094 224.855469 243.214844 C 223.941406 243.808594 223.011719 244.378906 222.070312 244.929688 C 221.125 245.476562 220.171875 246.003906 219.203125 246.507812 C 218.234375 247.007812 217.253906 247.488281 216.265625 247.941406 C 215.273438 248.398438 214.269531 248.828125 213.257812 249.234375 C 212.246094 249.640625 211.226562 250.023438 210.195312 250.378906 C 209.164062 250.734375 208.125 251.066406 207.078125 251.371094 C 206.03125 251.679688 204.976562 251.957031 203.917969 252.210938 C 202.855469 252.46875 201.789062 252.695312 200.71875 252.898438 C 199.648438 253.101562 198.570312 253.277344 197.492188 253.429688 C 196.410156 253.578125 195.328125 253.703125 194.242188 253.800781 C 193.15625 253.898438 192.066406 253.972656 190.976562 254.015625 C 189.886719 254.0625 188.796875 254.078125 187.707031 254.070312 C 186.617188 254.0625 185.527344 254.027344 184.4375 253.96875 C 183.347656 253.90625 182.261719 253.820312 181.175781 253.707031 C 180.09375 253.589844 179.011719 253.449219 177.933594 253.285156 C 176.855469 253.117188 175.78125 252.925781 174.714844 252.707031 C 173.644531 252.488281 172.582031 252.242188 171.527344 251.972656 C 170.46875 251.703125 169.417969 251.40625 168.378906 251.085938 C 167.335938 250.765625 166.300781 250.417969 165.277344 250.046875 C 164.25 249.671875 163.234375 249.277344 162.230469 248.855469 C 161.222656 248.433594 160.226562 247.988281 159.242188 247.519531 C 158.257812 247.050781 157.285156 246.558594 156.324219 246.039062 C 155.363281 245.523438 154.417969 244.984375 153.484375 244.421875 C 152.550781 243.859375 151.628906 243.273438 150.722656 242.664062 C 149.816406 242.058594 148.925781 241.429688 148.050781 240.777344 C 147.175781 240.125 146.320312 239.453125 145.476562 238.761719 C 144.632812 238.070312 143.808594 237.355469 143 236.625 C 142.191406 235.890625 141.402344 235.140625 140.632812 234.367188 C 139.859375 233.597656 139.109375 232.808594 138.375 232 C 137.644531 231.191406 136.929688 230.367188 136.238281 229.523438 C 135.546875 228.679688 134.875 227.824219 134.222656 226.949219 C 133.570312 226.074219 132.941406 225.183594 132.335938 224.277344 C 131.726562 223.371094 131.140625 222.449219 130.578125 221.515625 C 130.015625 220.582031 129.476562 219.636719 128.960938 218.675781 C 128.441406 217.714844 127.949219 216.742188 127.480469 215.757812 C 127.011719 214.773438 126.566406 213.777344 126.144531 212.769531 C 125.722656 211.765625 125.328125 210.75 124.953125 209.722656 C 124.582031 208.699219 124.234375 207.664062 123.914062 206.621094 C 123.59375 205.582031 123.296875 204.53125 123.027344 203.472656 C 122.757812 202.417969 122.511719 201.355469 122.292969 200.285156 C 122.074219 199.21875 121.882812 198.144531 121.714844 197.066406 C 121.550781 195.988281 121.410156 194.90625 121.292969 193.824219 C 121.179688 192.738281 121.09375 191.652344 121.03125 190.5625 C 120.972656 189.472656 120.9375 188.382812 120.929688 187.292969 C 120.921875 186.203125 120.9375 185.113281 120.984375 184.023438 C 121.027344 182.933594 121.101562 181.84375 121.199219 180.757812 C 121.296875 179.671875 121.421875 178.589844 121.570312 177.507812 C 121.722656 176.429688 121.898438 175.351562 122.101562 174.28125 C 122.304688 173.210938 122.53125 172.144531 122.785156 171.082031 C 123.042969 170.023438 123.320312 168.96875 123.628906 167.921875 C 123.933594 166.875 124.265625 165.835938 124.621094 164.804688 C 124.976562 163.773438 125.359375 162.753906 125.765625 161.742188 C 126.171875 160.730469 126.601562 159.726562 127.058594 158.734375 C 127.511719 157.746094 127.992188 156.765625 128.492188 155.796875 C 128.996094 154.828125 129.523438 153.875 130.070312 152.929688 C 130.621094 151.988281 131.191406 151.058594 131.785156 150.144531 C 132.378906 149.230469 132.996094 148.332031 133.632812 147.445312 C 134.269531 146.5625 134.929688 145.695312 135.609375 144.839844 C 136.289062 143.988281 136.992188 143.152344 137.710938 142.332031 C 138.433594 141.515625 139.171875 140.714844 139.933594 139.933594 C 140.714844 139.171875 141.515625 138.433594 142.332031 137.710938 C 143.152344 136.992188 143.988281 136.289062 144.839844 135.609375 C 145.695312 134.929688 146.5625 134.269531 147.445312 133.632812 C 148.332031 132.996094 149.230469 132.378906 150.144531 131.785156 C 151.058594 131.191406 151.988281 130.621094 152.929688 130.070312 C 153.875 129.523438 154.828125 128.996094 155.796875 128.492188 C 156.765625 127.992188 157.746094 127.511719 158.734375 127.058594 C 159.726562 126.601562 160.730469 126.171875 161.742188 125.765625 C 162.753906 125.359375 163.773438 124.976562 164.804688 124.621094 C 165.835938 124.265625 166.875 123.933594 167.921875 123.628906 C 168.96875 123.320312 170.023438 123.042969 171.082031 122.785156 C 172.144531 122.53125 173.210938 122.304688 174.28125 122.101562 C 175.351562 121.898438 176.429688 121.722656 177.507812 121.570312 C 178.589844 121.421875 179.671875 121.296875 180.757812 121.199219 C 181.84375 121.101562 182.933594 121.027344 184.023438 120.984375 C 185.113281 120.9375 186.203125 120.921875 187.292969 120.929688 C 188.382812 120.9375 189.472656 120.972656 190.5625 121.03125 C 191.652344 121.09375 192.738281 121.179688 193.824219 121.292969 C 194.90625 121.410156 195.988281 121.550781 197.066406 121.714844 C 198.144531 121.882812 199.21875 122.074219 200.285156 122.292969 C 201.355469 122.511719 202.417969 122.757812 203.472656 123.027344 C 204.53125 123.296875 205.582031 123.59375 206.621094 123.914062 C 207.664062 124.234375 208.699219 124.582031 209.722656 124.953125 C 210.75 125.328125 211.765625 125.722656 212.769531 126.144531 C 213.777344 126.566406 214.773438 127.011719 215.757812 127.480469 C 216.742188 127.949219 217.714844 128.441406 218.675781 128.960938 C 219.636719 129.476562 220.582031 130.015625 221.515625 130.578125 C 222.449219 131.140625 223.371094 131.726562 224.277344 132.335938 C 225.183594 132.941406 226.074219 133.570312 226.949219 134.222656 C 227.824219 134.875 228.679688 135.546875 229.523438 136.238281 C 230.367188 136.929688 231.191406 137.644531 232 138.375 C 232.808594 139.109375 233.597656 139.859375 234.367188 140.632812 C 235.140625 141.402344 235.890625 142.191406 236.625 143 C 237.355469 143.808594 238.070312 144.632812 238.761719 145.476562 C 239.453125 146.320312 240.125 147.175781 240.777344 148.050781 C 241.429688 148.925781 242.058594 149.816406 242.664062 150.722656 C 243.273438 151.628906 243.859375 152.550781 244.421875 153.484375 C 244.984375 154.417969 245.523438 155.363281 246.039062 156.324219 C 246.558594 157.285156 247.050781 158.257812 247.519531 159.242188 C 247.988281 160.226562 248.433594 161.222656 248.855469 162.230469 C 249.277344 163.234375 249.671875 164.25 250.046875 165.277344 C 250.417969 166.300781 250.765625 167.335938 251.085938 168.378906 C 251.40625 169.417969 251.703125 170.46875 251.972656 171.527344 C 252.242188 172.582031 252.488281 173.644531 252.707031 174.714844 C 252.925781 175.78125 253.117188 176.855469 253.285156 177.933594 C 253.449219 179.011719 253.589844 180.09375 253.707031 181.175781 C 253.820312 182.261719 253.90625 183.347656 253.96875 184.4375 C 254.027344 185.527344 254.0625 186.617188 254.070312 187.707031 C 254.078125 188.796875 254.0625 189.886719 254.015625 190.976562 C 253.972656 192.066406 253.898438 193.15625 253.800781 194.242188 C 253.703125 195.328125 253.578125 196.410156 253.429688 197.492188 C 253.277344 198.570312 253.101562 199.648438 252.898438 200.71875 C 252.695312 201.789062 252.46875 202.855469 252.214844 203.917969 C 251.957031 204.976562 251.679688 206.03125 251.371094 207.078125 C 251.066406 208.125 250.734375 209.164062 250.378906 210.195312 C 250.023438 211.226562 249.640625 212.246094 249.234375 213.257812 C 248.828125 214.269531 248.398438 215.273438 247.941406 216.265625 C 247.488281 217.253906 247.007812 218.234375 246.507812 219.203125 C 246.003906 220.171875 245.476562 221.125 244.929688 222.070312 C 244.378906 223.011719 243.808594 223.941406 243.214844 224.855469 C 242.621094 225.769531 242.003906 226.667969 241.367188 227.554688 C 240.730469 228.4375 240.070312 229.304688 239.390625 230.160156 C 238.710938 231.011719 238.007812 231.847656 237.289062 232.667969 C 236.566406 233.484375 235.828125 234.285156 235.066406 235.066406 Z M 235.066406 235.066406 " fill-opacity="1" fill-rule="nonzero"/></svg>