<svg xmlns="http://www.w3.org/2000/svg" xmlns:xlink="http://www.w3.org/1999/xlink" width="500" zoomAndPan="magnify" viewBox="0 0 375 374.999991" height="500" preserveAspectRatio="xMidYMid meet" version="1.0"><defs><clipPath id="a0b16228d8"><path d="M 66.753906 94.367188 L 216.753906 94.367188 L 216.753906 170.117188 L 66.753906 170.117188 Z M 66.753906 94.367188 " clip-rule="nonzero"/></clipPath><clipPath id="a7ee3b30cf"><path d="M 66.753906 168.066406 L 216.753906 168.066406 L 216.753906 243.816406 L 66.753906 243.816406 Z M 66.753906 168.066406 " clip-rule="nonzero"/></clipPath></defs><g clip-path="url(#a0b16228d8)"><path fill="#ffffff" d="M 216.050781 168.847656 L 149.785156 168.847656 L 215.230469 158.457031 C 215.40625 158.429688 215.546875 158.34375 215.648438 158.199219 C 215.753906 158.058594 215.792969 157.898438 215.765625 157.722656 C 215.738281 157.546875 215.652344 157.40625 215.507812 157.304688 C 215.367188 157.199219 215.207031 157.160156 215.03125 157.1875 L 149.585938 167.582031 L 212.605469 147.050781 C 212.765625 146.992188 212.882812 146.886719 212.957031 146.734375 C 213.03125 146.582031 213.042969 146.421875 212.988281 146.261719 C 212.9375 146.097656 212.835938 145.976562 212.683594 145.898438 C 212.535156 145.816406 212.378906 145.800781 212.214844 145.847656 L 149.199219 166.390625 L 208.238281 136.230469 C 208.402344 136.160156 208.519531 136.035156 208.578125 135.863281 C 208.640625 135.695312 208.628906 135.527344 208.546875 135.363281 C 208.464844 135.203125 208.335938 135.09375 208.164062 135.042969 C 207.988281 134.992188 207.824219 135.011719 207.664062 135.105469 L 148.625 165.261719 L 202.230469 126.214844 C 202.371094 126.113281 202.457031 125.976562 202.484375 125.804688 C 202.511719 125.628906 202.476562 125.472656 202.371094 125.328125 C 202.269531 125.1875 202.132812 125.101562 201.960938 125.074219 C 201.785156 125.046875 201.628906 125.085938 201.488281 125.191406 L 147.878906 164.234375 L 194.734375 117.261719 C 194.84375 117.136719 194.894531 116.992188 194.886719 116.828125 C 194.878906 116.660156 194.816406 116.519531 194.703125 116.402344 C 194.585938 116.285156 194.445312 116.222656 194.277344 116.21875 C 194.113281 116.210938 193.96875 116.261719 193.84375 116.371094 L 146.988281 163.339844 L 185.9375 109.597656 C 186.039062 109.457031 186.078125 109.300781 186.050781 109.125 C 186.023438 108.953125 185.9375 108.816406 185.796875 108.710938 C 185.65625 108.609375 185.496094 108.570312 185.324219 108.597656 C 185.152344 108.628906 185.015625 108.710938 184.910156 108.855469 L 145.964844 162.59375 L 176.046875 103.40625 C 176.136719 103.25 176.15625 103.082031 176.105469 102.90625 C 176.054688 102.734375 175.949219 102.605469 175.785156 102.523438 C 175.625 102.441406 175.457031 102.429688 175.285156 102.492188 C 175.117188 102.550781 174.992188 102.664062 174.921875 102.832031 L 144.839844 162.019531 L 165.3125 98.84375 C 165.375 98.671875 165.367188 98.507812 165.289062 98.347656 C 165.210938 98.183594 165.085938 98.074219 164.914062 98.019531 C 164.746094 97.964844 164.582031 97.980469 164.421875 98.0625 C 164.265625 98.148438 164.160156 98.277344 164.109375 98.449219 L 143.648438 161.625 L 154.015625 96.019531 C 154.042969 95.847656 154.003906 95.6875 153.902344 95.546875 C 153.800781 95.40625 153.664062 95.324219 153.492188 95.296875 C 153.320312 95.269531 153.164062 95.304688 153.023438 95.40625 C 152.878906 95.507812 152.796875 95.644531 152.765625 95.820312 L 142.382812 161.429688 L 142.382812 95 C 142.382812 94.824219 142.324219 94.675781 142.199219 94.550781 C 142.074219 94.429688 141.925781 94.367188 141.753906 94.367188 C 141.578125 94.367188 141.429688 94.429688 141.304688 94.550781 C 141.183594 94.675781 141.121094 94.824219 141.121094 95 L 141.121094 161.429688 L 130.753906 95.820312 C 130.726562 95.648438 130.640625 95.507812 130.496094 95.402344 C 130.355469 95.296875 130.195312 95.261719 130.019531 95.289062 C 129.847656 95.316406 129.707031 95.402344 129.601562 95.542969 C 129.5 95.6875 129.460938 95.847656 129.488281 96.019531 L 139.855469 161.628906 L 119.394531 98.449219 C 119.335938 98.289062 119.230469 98.171875 119.074219 98.097656 C 118.921875 98.023438 118.765625 98.011719 118.605469 98.066406 C 118.441406 98.117188 118.320312 98.21875 118.242188 98.371094 C 118.160156 98.519531 118.144531 98.679688 118.191406 98.84375 L 138.667969 162.019531 L 108.582031 102.832031 C 108.511719 102.664062 108.390625 102.550781 108.21875 102.492188 C 108.046875 102.429688 107.878906 102.441406 107.71875 102.523438 C 107.554688 102.605469 107.449219 102.734375 107.398438 102.90625 C 107.347656 103.082031 107.367188 103.25 107.457031 103.40625 L 137.542969 162.59375 L 98.59375 108.855469 C 98.492188 108.710938 98.351562 108.628906 98.179688 108.597656 C 98.007812 108.570312 97.851562 108.609375 97.707031 108.710938 C 97.566406 108.816406 97.484375 108.953125 97.457031 109.125 C 97.429688 109.300781 97.464844 109.457031 97.570312 109.597656 L 136.515625 163.339844 L 89.660156 116.371094 C 89.535156 116.261719 89.390625 116.210938 89.226562 116.21875 C 89.0625 116.222656 88.921875 116.285156 88.804688 116.402344 C 88.6875 116.519531 88.625 116.660156 88.617188 116.828125 C 88.613281 116.992188 88.664062 117.136719 88.769531 117.261719 L 135.625 164.234375 L 82.015625 125.191406 C 81.875 125.085938 81.71875 125.046875 81.546875 125.074219 C 81.371094 125.101562 81.234375 125.1875 81.132812 125.332031 C 81.03125 125.472656 80.992188 125.628906 81.019531 125.804688 C 81.046875 125.976562 81.132812 126.113281 81.273438 126.214844 L 134.878906 165.261719 L 75.839844 135.105469 C 75.683594 135.011719 75.515625 134.992188 75.34375 135.042969 C 75.167969 135.09375 75.039062 135.203125 74.957031 135.363281 C 74.875 135.527344 74.863281 135.695312 74.925781 135.863281 C 74.988281 136.035156 75.101562 136.160156 75.265625 136.230469 L 134.308594 166.390625 L 71.285156 145.863281 C 71.117188 145.800781 70.953125 145.808594 70.792969 145.886719 C 70.628906 145.96875 70.523438 146.089844 70.464844 146.261719 C 70.410156 146.433594 70.425781 146.597656 70.507812 146.757812 C 70.59375 146.914062 70.722656 147.019531 70.894531 147.070312 L 133.914062 167.597656 L 68.46875 157.203125 C 68.292969 157.175781 68.136719 157.214844 67.992188 157.320312 C 67.851562 157.421875 67.765625 157.5625 67.738281 157.738281 C 67.710938 157.914062 67.75 158.074219 67.851562 158.214844 C 67.957031 158.359375 68.09375 158.445312 68.269531 158.472656 L 133.714844 168.863281 L 67.453125 168.863281 C 67.28125 168.863281 67.128906 168.925781 67.007812 169.050781 C 66.882812 169.175781 66.820312 169.324219 66.820312 169.5 C 66.820312 169.671875 66.882812 169.824219 67.007812 169.945312 C 67.128906 170.070312 67.28125 170.132812 67.453125 170.132812 L 216.050781 170.132812 C 216.226562 170.132812 216.375 170.070312 216.496094 169.945312 C 216.621094 169.824219 216.683594 169.671875 216.683594 169.5 C 216.683594 169.324219 216.621094 169.175781 216.496094 169.050781 C 216.375 168.925781 216.226562 168.863281 216.050781 168.863281 Z M 216.050781 168.847656 " fill-opacity="1" fill-rule="nonzero"/></g><g clip-path="url(#a7ee3b30cf)"><path fill="#ffffff" d="M 67.453125 169.335938 L 133.71875 169.335938 L 68.273438 179.730469 C 68.097656 179.757812 67.960938 179.839844 67.855469 179.984375 C 67.75 180.128906 67.714844 180.289062 67.742188 180.460938 C 67.769531 180.636719 67.851562 180.777344 67.996094 180.882812 C 68.140625 180.984375 68.296875 181.023438 68.472656 180.996094 L 133.917969 170.605469 L 70.898438 191.132812 C 70.738281 191.191406 70.621094 191.296875 70.546875 191.449219 C 70.472656 191.605469 70.460938 191.761719 70.515625 191.925781 C 70.566406 192.085938 70.667969 192.207031 70.820312 192.285156 C 70.96875 192.367188 71.125 192.382812 71.289062 192.335938 L 134.308594 171.796875 L 75.265625 201.953125 C 75.101562 202.027344 74.988281 202.148438 74.925781 202.320312 C 74.863281 202.492188 74.875 202.660156 74.957031 202.820312 C 75.039062 202.984375 75.167969 203.089844 75.34375 203.140625 C 75.515625 203.191406 75.683594 203.171875 75.839844 203.082031 L 134.878906 172.925781 L 81.273438 211.96875 C 81.132812 212.070312 81.046875 212.210938 81.019531 212.382812 C 80.992188 212.554688 81.027344 212.714844 81.132812 212.855469 C 81.234375 212.996094 81.371094 213.082031 81.546875 213.109375 C 81.71875 213.136719 81.875 213.097656 82.015625 212.996094 L 135.625 173.949219 L 88.769531 220.921875 C 88.664062 221.046875 88.613281 221.195312 88.617188 221.359375 C 88.625 221.523438 88.6875 221.664062 88.804688 221.78125 C 88.921875 221.898438 89.0625 221.960938 89.226562 221.96875 C 89.390625 221.972656 89.535156 221.921875 89.660156 221.816406 L 136.515625 174.84375 L 97.570312 228.585938 C 97.464844 228.726562 97.429688 228.886719 97.453125 229.058594 C 97.480469 229.230469 97.566406 229.371094 97.707031 229.472656 C 97.851562 229.578125 98.007812 229.613281 98.179688 229.585938 C 98.351562 229.558594 98.492188 229.472656 98.59375 229.332031 L 137.542969 175.59375 L 107.457031 234.777344 C 107.367188 234.9375 107.347656 235.101562 107.398438 235.277344 C 107.449219 235.453125 107.554688 235.582031 107.71875 235.664062 C 107.878906 235.746094 108.046875 235.753906 108.21875 235.695312 C 108.390625 235.632812 108.511719 235.519531 108.582031 235.351562 L 138.667969 176.167969 L 118.191406 239.34375 C 118.128906 239.511719 118.136719 239.675781 118.214844 239.839844 C 118.292969 240 118.417969 240.109375 118.589844 240.164062 C 118.757812 240.21875 118.925781 240.207031 119.082031 240.121094 C 119.242188 240.039062 119.34375 239.910156 119.394531 239.734375 L 139.855469 176.558594 L 129.488281 242.167969 C 129.460938 242.339844 129.5 242.496094 129.601562 242.636719 C 129.703125 242.777344 129.84375 242.863281 130.015625 242.890625 C 130.1875 242.917969 130.34375 242.878906 130.484375 242.777344 C 130.625 242.675781 130.707031 242.539062 130.738281 242.367188 L 141.121094 176.753906 L 141.121094 243.183594 C 141.121094 243.359375 141.183594 243.507812 141.304688 243.632812 C 141.429688 243.757812 141.578125 243.816406 141.753906 243.816406 C 141.925781 243.816406 142.074219 243.757812 142.199219 243.632812 C 142.324219 243.507812 142.382812 243.359375 142.382812 243.183594 L 142.382812 176.753906 L 152.75 242.363281 C 152.777344 242.539062 152.863281 242.679688 153.007812 242.78125 C 153.148438 242.886719 153.308594 242.925781 153.484375 242.898438 C 153.65625 242.871094 153.796875 242.785156 153.902344 242.640625 C 154.003906 242.5 154.042969 242.339844 154.015625 242.164062 L 143.648438 176.554688 L 164.109375 239.734375 C 164.171875 239.894531 164.277344 240.011719 164.429688 240.085938 C 164.582031 240.160156 164.738281 240.171875 164.902344 240.121094 C 165.0625 240.066406 165.183594 239.964844 165.261719 239.816406 C 165.34375 239.664062 165.359375 239.507812 165.3125 239.34375 L 144.839844 176.167969 L 174.921875 235.351562 C 174.992188 235.519531 175.117188 235.632812 175.285156 235.695312 C 175.457031 235.753906 175.625 235.746094 175.785156 235.664062 C 175.949219 235.582031 176.054688 235.453125 176.105469 235.277344 C 176.15625 235.101562 176.136719 234.9375 176.046875 234.777344 L 145.964844 175.59375 L 184.910156 229.332031 C 185.015625 229.472656 185.152344 229.558594 185.324219 229.585938 C 185.496094 229.613281 185.652344 229.574219 185.796875 229.472656 C 185.9375 229.371094 186.023438 229.230469 186.050781 229.058594 C 186.078125 228.886719 186.039062 228.726562 185.9375 228.585938 L 146.988281 174.84375 L 193.84375 221.816406 C 193.96875 221.921875 194.113281 221.972656 194.277344 221.96875 C 194.445312 221.960938 194.585938 221.898438 194.703125 221.78125 C 194.816406 221.664062 194.878906 221.523438 194.886719 221.359375 C 194.890625 221.195312 194.84375 221.046875 194.734375 220.921875 L 147.878906 173.949219 L 201.488281 212.996094 C 201.628906 213.097656 201.785156 213.136719 201.960938 213.109375 C 202.132812 213.082031 202.269531 212.996094 202.371094 212.855469 C 202.476562 212.714844 202.511719 212.554688 202.484375 212.382812 C 202.457031 212.210938 202.371094 212.070312 202.230469 211.96875 L 148.625 172.925781 L 207.664062 203.082031 C 207.824219 203.171875 207.988281 203.191406 208.164062 203.140625 C 208.335938 203.089844 208.464844 202.984375 208.546875 202.820312 C 208.628906 202.660156 208.640625 202.492188 208.578125 202.320312 C 208.519531 202.148438 208.402344 202.027344 208.238281 201.953125 L 149.199219 171.796875 L 212.21875 192.320312 C 212.386719 192.382812 212.550781 192.375 212.710938 192.296875 C 212.875 192.21875 212.980469 192.09375 213.039062 191.921875 C 213.09375 191.753906 213.078125 191.585938 212.996094 191.429688 C 212.910156 191.269531 212.78125 191.164062 212.609375 191.117188 L 149.589844 170.589844 L 215.035156 180.980469 C 215.210938 181.007812 215.367188 180.96875 215.511719 180.867188 C 215.65625 180.761719 215.738281 180.621094 215.765625 180.445312 C 215.792969 180.273438 215.757812 180.113281 215.652344 179.96875 C 215.546875 179.824219 215.410156 179.742188 215.234375 179.714844 L 149.789062 169.320312 L 216.050781 169.320312 C 216.226562 169.320312 216.375 169.257812 216.496094 169.132812 C 216.621094 169.011719 216.683594 168.863281 216.683594 168.6875 C 216.683594 168.511719 216.621094 168.363281 216.496094 168.238281 C 216.375 168.113281 216.226562 168.050781 216.050781 168.050781 L 67.453125 168.050781 C 67.28125 168.050781 67.132812 168.113281 67.007812 168.238281 C 66.882812 168.363281 66.820312 168.511719 66.820312 168.6875 C 66.820312 168.863281 66.882812 169.011719 67.007812 169.132812 C 67.132812 169.257812 67.28125 169.320312 67.453125 169.320312 Z M 67.453125 169.335938 " fill-opacity="1" fill-rule="nonzero"/></g></svg>