<!DOCTYPE svg PUBLIC "-//W3C//DTD SVG 1.1//EN" "http://www.w3.org/Graphics/SVG/1.1/DTD/svg11.dtd">

<svg fill="#000" width="25px" height="25px" viewBox="0 0 24 24" xmlns="http://www.w3.org/2000/svg" stroke="#000">

<g id="SVGRepo_bgCarrier" stroke-width="0"/>

<g id="SVGRepo_tracerCarrier" stroke-linecap="round" stroke-linejoin="round"/>

<g id="SVGRepo_iconCarrier">

<path d="M8.89289 16.3208H9.80102V15.0774C10.605 15.0378 11.3446 14.7781 12.0199 14.2982C12.6952 13.8183 13.0329 13.0992 13.0329 12.1408C13.0329 11.3608 12.7978 10.7223 12.3277 10.225C11.8576 9.72779 11.0061 9.24502 9.77297 8.77672C8.62981 8.35648 7.89018 7.993 7.55409 7.6863C7.21799 7.37958 7.04995 6.94355 7.04995 6.3782C7.04995 5.82443 7.2693 5.36214 7.70799 4.99133C8.14669 4.62051 8.71972 4.4351 9.42708 4.4351C9.95059 4.4351 10.3984 4.55207 10.7706 4.78599C11.1427 5.01991 11.4566 5.33431 11.7121 5.72917L12.4866 5.39797C12.2084 4.89717 11.8375 4.49253 11.3739 4.18404C10.9102 3.87553 10.4033 3.70058 9.8531 3.65919V2.43323H8.94497V3.65919C8.03419 3.79051 7.34153 4.11369 6.86698 4.62872C6.39245 5.14378 6.15518 5.72693 6.15518 6.3782C6.15518 7.14164 6.39612 7.74839 6.87799 8.19844C7.35989 8.64851 8.16551 9.08566 9.29487 9.5099C10.4349 9.95372 11.1983 10.3524 11.5849 10.7058C11.9715 11.0593 12.1648 11.5376 12.1648 12.1408C12.1648 12.8713 11.8911 13.4076 11.3438 13.7497C10.7965 14.0918 10.1936 14.2628 9.53526 14.2628C8.91069 14.2628 8.34367 14.0862 7.83419 13.733C7.32471 13.3797 6.92575 12.8846 6.63729 12.2476L5.83333 12.5815C6.1663 13.2804 6.58575 13.8207 7.09167 14.2024C7.5976 14.5841 8.19801 14.8584 8.89289 15.0254V16.3208ZM9.375 18.75C8.08359 18.75 6.86987 18.5033 5.73383 18.0098C4.59779 17.5164 3.60487 16.8447 2.75508 15.9949C1.90527 15.1451 1.23364 14.1522 0.740182 13.0162C0.246728 11.8801 0 10.6664 0 9.375C0 8.08092 0.246728 6.86364 0.740182 5.72315C1.23364 4.58266 1.90527 3.59041 2.75508 2.74638C3.60487 1.90237 4.59779 1.23364 5.73383 0.740182C6.86987 0.246727 8.08359 0 9.375 0C10.6691 0 11.8864 0.246727 13.0268 0.740182C14.1673 1.23364 15.1596 1.90237 16.0036 2.74638C16.8476 3.59041 17.5164 4.58266 18.0098 5.72315C18.5033 6.86364 18.75 8.08092 18.75 9.375C18.75 10.6664 18.5033 11.8801 18.0098 13.0162C17.5164 14.1522 16.8476 15.1451 16.0036 15.9949C15.1596 16.8447 14.1673 17.5164 13.0268 18.0098C11.8864 18.5033 10.6691 18.75 9.375 18.75ZM9.375 17.8686C11.7406 17.8686 13.7475 17.0437 15.396 15.394C17.0444 13.7442 17.8686 11.7379 17.8686 9.375C17.8686 7.00944 17.0444 5.00246 15.396 3.35404C13.7475 1.70562 11.7406 0.881406 9.375 0.881406C7.0121 0.881406 5.00578 1.70562 3.35604 3.35404C1.70628 5.00246 0.881406 7.00944 0.881406 9.375C0.881406 11.7379 1.70628 13.7442 3.35604 15.394C5.00578 17.0437 7.0121 17.8686 9.375 17.8686Z" fill="black"/>

</g>

</svg>