<svg xmlns="http://www.w3.org/2000/svg" xmlns:xlink="http://www.w3.org/1999/xlink" width="500" zoomAndPan="magnify" viewBox="0 0 375 374.999991" height="500" preserveAspectRatio="xMidYMid meet" version="1.0"><defs><clipPath id="7521e22ac1"><path d="M 99 120 L 225.835938 120 L 225.835938 194 L 99 194 Z M 99 120 " clip-rule="nonzero"/></clipPath><clipPath id="0a0ce59707"><path d="M 98.535156 120.324219 L 225.695312 120.324219 L 225.695312 194.324219 L 98.535156 194.324219 Z M 98.535156 120.324219 " clip-rule="nonzero"/></clipPath><clipPath id="bfcdf5d504"><path d="M 98.335938 117 L 163 117 L 163 159 L 98.335938 159 Z M 98.335938 117 " clip-rule="nonzero"/></clipPath><clipPath id="c267412054"><path d="M 98.335938 44.324219 L 163 44.324219 L 163 155 L 98.335938 155 Z M 98.335938 44.324219 " clip-rule="nonzero"/></clipPath><clipPath id="03b9966d59"><path d="M 98.335938 53 L 163 53 L 163 91 L 98.335938 91 Z M 98.335938 53 " clip-rule="nonzero"/></clipPath><clipPath id="13690e4c35"><path d="M 98.335938 62 L 163 62 L 163 100 L 98.335938 100 Z M 98.335938 62 " clip-rule="nonzero"/></clipPath><clipPath id="b58ae56484"><path d="M 98.335938 71 L 163 71 L 163 110 L 98.335938 110 Z M 98.335938 71 " clip-rule="nonzero"/></clipPath><clipPath id="74117dfb4a"><path d="M 98.335938 80 L 163 80 L 163 119 L 98.335938 119 Z M 98.335938 80 " clip-rule="nonzero"/></clipPath><clipPath id="1ff5b9075c"><path d="M 98.335938 90 L 163 90 L 163 128 L 98.335938 128 Z M 98.335938 90 " clip-rule="nonzero"/></clipPath><clipPath id="b1ef2d3825"><path d="M 98.335938 99 L 163 99 L 163 137 L 98.335938 137 Z M 98.335938 99 " clip-rule="nonzero"/></clipPath><clipPath id="d0e579ed17"><path d="M 98.335938 108 L 163 108 L 163 147 L 98.335938 147 Z M 98.335938 108 " clip-rule="nonzero"/></clipPath><clipPath id="cb82c8d6a3"><path d="M 98.335938 80 L 163 80 L 163 191 L 98.335938 191 Z M 98.335938 80 " clip-rule="nonzero"/></clipPath><clipPath id="a39182308e"><path d="M 98.335938 153 L 163 153 L 163 194.324219 L 98.335938 194.324219 Z M 98.335938 153 " clip-rule="nonzero"/></clipPath><clipPath id="c5f5ee130e"><path d="M 98.335938 89 L 163 89 L 163 127 L 98.335938 127 Z M 98.335938 89 " clip-rule="nonzero"/></clipPath><clipPath id="077604ec5c"><path d="M 98.335938 98 L 163 98 L 163 136 L 98.335938 136 Z M 98.335938 98 " clip-rule="nonzero"/></clipPath><clipPath id="d1a22d3df8"><path d="M 98.335938 107 L 163 107 L 163 146 L 98.335938 146 Z M 98.335938 107 " clip-rule="nonzero"/></clipPath><clipPath id="2775a8ec40"><path d="M 98.335938 117 L 163 117 L 163 155 L 98.335938 155 Z M 98.335938 117 " clip-rule="nonzero"/></clipPath><clipPath id="6305265836"><path d="M 98.335938 126 L 163 126 L 163 164 L 98.335938 164 Z M 98.335938 126 " clip-rule="nonzero"/></clipPath><clipPath id="a85e3bc89d"><path d="M 98.335938 135 L 163 135 L 163 173 L 98.335938 173 Z M 98.335938 135 " clip-rule="nonzero"/></clipPath><clipPath id="98af08c7db"><path d="M 98.335938 144 L 163 144 L 163 183 L 98.335938 183 Z M 98.335938 144 " clip-rule="nonzero"/></clipPath><clipPath id="a6d7e482b2"><path d="M 161.386719 44.324219 L 225.695312 44.324219 L 225.695312 154.65625 L 161.386719 154.65625 Z M 161.386719 44.324219 " clip-rule="nonzero"/></clipPath><clipPath id="f28a915d55"><path d="M 162 117 L 225.835938 117 L 225.835938 158 L 162 158 Z M 162 117 " clip-rule="nonzero"/></clipPath><clipPath id="eab66ffe30"><path d="M 161.386719 117 L 225.695312 117 L 225.695312 158.324219 L 161.386719 158.324219 Z M 161.386719 117 " clip-rule="nonzero"/></clipPath><clipPath id="e451638163"><path d="M 161.386719 53 L 225.695312 53 L 225.695312 90.65625 L 161.386719 90.65625 Z M 161.386719 53 " clip-rule="nonzero"/></clipPath><clipPath id="dc7cabde25"><path d="M 161.386719 62.324219 L 225.695312 62.324219 L 225.695312 99.988281 L 161.386719 99.988281 Z M 161.386719 62.324219 " clip-rule="nonzero"/></clipPath><clipPath id="924ea2849f"><path d="M 161.386719 71.65625 L 225.695312 71.65625 L 225.695312 109.324219 L 161.386719 109.324219 Z M 161.386719 71.65625 " clip-rule="nonzero"/></clipPath><clipPath id="d761d25ee8"><path d="M 161.386719 80.65625 L 225.695312 80.65625 L 225.695312 118.65625 L 161.386719 118.65625 Z M 161.386719 80.65625 " clip-rule="nonzero"/></clipPath><clipPath id="948e7647f7"><path d="M 161.386719 90 L 225.695312 90 L 225.695312 127.65625 L 161.386719 127.65625 Z M 161.386719 90 " clip-rule="nonzero"/></clipPath><clipPath id="6ba36c4e8c"><path d="M 161.386719 99.324219 L 225.695312 99.324219 L 225.695312 136.988281 L 161.386719 136.988281 Z M 161.386719 99.324219 " clip-rule="nonzero"/></clipPath><clipPath id="913234e0b2"><path d="M 161.386719 108.324219 L 225.695312 108.324219 L 225.695312 146.324219 L 161.386719 146.324219 Z M 161.386719 108.324219 " clip-rule="nonzero"/></clipPath><clipPath id="fbcbfff23d"><path d="M 162 153 L 225.835938 153 L 225.835938 194 L 162 194 Z M 162 153 " clip-rule="nonzero"/></clipPath><clipPath id="2a9bbf7b4e"><path d="M 161.386719 153 L 225.695312 153 L 225.695312 194.324219 L 161.386719 194.324219 Z M 161.386719 153 " clip-rule="nonzero"/></clipPath><clipPath id="37fb965baa"><path d="M 161.386719 80.65625 L 225.695312 80.65625 L 225.695312 190.988281 L 161.386719 190.988281 Z M 161.386719 80.65625 " clip-rule="nonzero"/></clipPath><clipPath id="db95d67181"><path d="M 161.386719 89.324219 L 225.695312 89.324219 L 225.695312 126.988281 L 161.386719 126.988281 Z M 161.386719 89.324219 " clip-rule="nonzero"/></clipPath><clipPath id="c940b86e0c"><path d="M 161.386719 98.324219 L 225.695312 98.324219 L 225.695312 135.988281 L 161.386719 135.988281 Z M 161.386719 98.324219 " clip-rule="nonzero"/></clipPath><clipPath id="9fbfba6aff"><path d="M 161.386719 107.65625 L 225.695312 107.65625 L 225.695312 145.324219 L 161.386719 145.324219 Z M 161.386719 107.65625 " clip-rule="nonzero"/></clipPath><clipPath id="f75af4b589"><path d="M 161.386719 117 L 225.695312 117 L 225.695312 154.65625 L 161.386719 154.65625 Z M 161.386719 117 " clip-rule="nonzero"/></clipPath><clipPath id="0790d5b2d6"><path d="M 161.386719 126 L 225.695312 126 L 225.695312 163.988281 L 161.386719 163.988281 Z M 161.386719 126 " clip-rule="nonzero"/></clipPath><clipPath id="7dd37f26ed"><path d="M 161.386719 135.324219 L 225.695312 135.324219 L 225.695312 172.988281 L 161.386719 172.988281 Z M 161.386719 135.324219 " clip-rule="nonzero"/></clipPath><clipPath id="ca61a66cd5"><path d="M 161.386719 144.65625 L 225.695312 144.65625 L 225.695312 182.324219 L 161.386719 182.324219 Z M 161.386719 144.65625 " clip-rule="nonzero"/></clipPath><clipPath id="8de9c3c5f2"><path d="M 98.535156 44.324219 L 225.695312 44.324219 L 225.695312 118 L 98.535156 118 Z M 98.535156 44.324219 " clip-rule="nonzero"/></clipPath></defs><g clip-path="url(#7521e22ac1)"><path fill="#ffffff" d="M 162.113281 193.472656 L 99.101562 157.203125 L 162.113281 120.929688 L 225.125 157.203125 L 162.113281 193.472656 " fill-opacity="1" fill-rule="nonzero"/></g><g clip-path="url(#0a0ce59707)"><path fill="#ffffff" d="M 100.238281 157.199219 L 162.113281 192.820312 L 223.984375 157.203125 L 162.113281 121.585938 Z M 162.113281 194.039062 C 162.015625 194.039062 161.917969 194.015625 161.828125 193.964844 L 98.816406 157.691406 C 98.640625 157.589844 98.535156 157.402344 98.535156 157.199219 C 98.535156 157 98.640625 156.8125 98.816406 156.710938 L 161.828125 120.4375 C 162.003906 120.339844 162.222656 120.339844 162.394531 120.4375 L 225.40625 156.710938 C 225.582031 156.8125 225.691406 157 225.691406 157.203125 C 225.691406 157.40625 225.582031 157.59375 225.40625 157.691406 L 162.398438 193.964844 C 162.308594 194.015625 162.210938 194.039062 162.113281 194.039062 " fill-opacity="1" fill-rule="nonzero"/></g><path fill="#ffffff" d="M 162.113281 121.339844 L 99.101562 157.613281 L 99.101562 154.015625 L 162.113281 117.742188 L 162.113281 121.339844 " fill-opacity="1" fill-rule="nonzero"/><g clip-path="url(#bfcdf5d504)"><path fill="#ffffff" d="M 162.113281 121.339844 L 162.117188 121.339844 Z M 99.671875 154.34375 L 99.671875 156.632812 L 161.546875 121.015625 L 161.546875 118.726562 Z M 99.101562 158.179688 C 99.003906 158.179688 98.90625 158.15625 98.816406 158.105469 C 98.640625 158.003906 98.535156 157.816406 98.535156 157.613281 L 98.535156 154.015625 C 98.535156 153.8125 98.640625 153.625 98.816406 153.523438 L 161.828125 117.253906 C 162.003906 117.152344 162.222656 117.152344 162.398438 117.253906 C 162.574219 117.355469 162.683594 117.539062 162.683594 117.742188 L 162.683594 121.339844 C 162.683594 121.542969 162.574219 121.730469 162.398438 121.832031 L 99.386719 158.105469 C 99.296875 158.15625 99.199219 158.179688 99.101562 158.179688 " fill-opacity="1" fill-rule="nonzero"/></g><g clip-path="url(#c267412054)"><path fill="#ffffff" d="M 162.113281 117.742188 L 162.117188 117.742188 Z M 99.671875 81.800781 L 99.671875 153.035156 L 161.546875 117.417969 L 161.546875 46.183594 Z M 99.101562 154.582031 C 99.003906 154.582031 98.90625 154.558594 98.816406 154.507812 C 98.640625 154.40625 98.535156 154.21875 98.535156 154.015625 L 98.535156 81.472656 C 98.535156 81.269531 98.640625 81.082031 98.816406 80.980469 L 161.828125 44.707031 C 162.003906 44.609375 162.222656 44.609375 162.398438 44.707031 C 162.574219 44.808594 162.683594 44.996094 162.683594 45.199219 L 162.683594 117.742188 C 162.683594 117.945312 162.574219 118.132812 162.398438 118.234375 L 99.386719 154.507812 C 99.296875 154.558594 99.199219 154.582031 99.101562 154.582031 " fill-opacity="1" fill-rule="nonzero"/></g><g clip-path="url(#03b9966d59)"><path fill="#ffffff" d="M 99.101562 90.613281 C 98.90625 90.613281 98.714844 90.511719 98.609375 90.332031 C 98.453125 90.058594 98.546875 89.714844 98.816406 89.558594 L 161.828125 53.285156 C 162.101562 53.125 162.449219 53.21875 162.605469 53.492188 C 162.761719 53.761719 162.671875 54.109375 162.398438 54.265625 L 99.386719 90.539062 C 99.296875 90.589844 99.199219 90.613281 99.101562 90.613281 " fill-opacity="1" fill-rule="nonzero"/></g><g clip-path="url(#13690e4c35)"><path fill="#ffffff" d="M 99.101562 99.847656 C 98.90625 99.847656 98.714844 99.746094 98.609375 99.5625 C 98.453125 99.292969 98.546875 98.945312 98.816406 98.789062 L 161.828125 62.515625 C 162.101562 62.359375 162.449219 62.453125 162.605469 62.722656 C 162.761719 62.996094 162.671875 63.339844 162.398438 63.5 L 99.386719 99.769531 C 99.296875 99.824219 99.199219 99.847656 99.101562 99.847656 " fill-opacity="1" fill-rule="nonzero"/></g><g clip-path="url(#b58ae56484)"><path fill="#ffffff" d="M 99.101562 109.078125 C 98.90625 109.078125 98.714844 108.976562 98.609375 108.796875 C 98.453125 108.523438 98.546875 108.175781 98.816406 108.019531 L 161.828125 71.75 C 162.101562 71.589844 162.449219 71.683594 162.605469 71.957031 C 162.761719 72.226562 162.671875 72.574219 162.398438 72.730469 L 99.386719 109.003906 C 99.296875 109.054688 99.199219 109.078125 99.101562 109.078125 " fill-opacity="1" fill-rule="nonzero"/></g><g clip-path="url(#74117dfb4a)"><path fill="#ffffff" d="M 99.101562 118.3125 C 98.90625 118.3125 98.714844 118.210938 98.609375 118.027344 C 98.453125 117.757812 98.546875 117.410156 98.816406 117.253906 L 161.828125 80.980469 C 162.101562 80.824219 162.449219 80.917969 162.605469 81.1875 C 162.761719 81.460938 162.671875 81.804688 162.398438 81.964844 L 99.386719 118.234375 C 99.296875 118.285156 99.199219 118.3125 99.101562 118.3125 " fill-opacity="1" fill-rule="nonzero"/></g><g clip-path="url(#1ff5b9075c)"><path fill="#ffffff" d="M 99.101562 127.542969 C 98.90625 127.542969 98.714844 127.441406 98.609375 127.261719 C 98.453125 126.988281 98.546875 126.640625 98.816406 126.484375 L 161.828125 90.210938 C 162.101562 90.054688 162.449219 90.148438 162.605469 90.421875 C 162.761719 90.691406 162.671875 91.039062 162.398438 91.195312 L 99.386719 127.46875 C 99.296875 127.519531 99.199219 127.542969 99.101562 127.542969 " fill-opacity="1" fill-rule="nonzero"/></g><g clip-path="url(#b1ef2d3825)"><path fill="#ffffff" d="M 99.101562 136.777344 C 98.90625 136.777344 98.714844 136.675781 98.609375 136.492188 C 98.453125 136.21875 98.546875 135.875 98.816406 135.71875 L 161.828125 99.445312 C 162.101562 99.289062 162.449219 99.378906 162.605469 99.652344 C 162.761719 99.921875 162.671875 100.269531 162.398438 100.425781 L 99.386719 136.699219 C 99.296875 136.75 99.199219 136.777344 99.101562 136.777344 " fill-opacity="1" fill-rule="nonzero"/></g><g clip-path="url(#d0e579ed17)"><path fill="#ffffff" d="M 99.101562 146.007812 C 98.90625 146.007812 98.714844 145.90625 98.609375 145.722656 C 98.453125 145.453125 98.546875 145.105469 98.816406 144.949219 L 161.828125 108.675781 C 162.101562 108.519531 162.449219 108.613281 162.605469 108.886719 C 162.761719 109.15625 162.671875 109.503906 162.398438 109.660156 L 99.386719 145.929688 C 99.296875 145.984375 99.199219 146.007812 99.101562 146.007812 " fill-opacity="1" fill-rule="nonzero"/></g><path fill="#ffffff" d="M 154.296875 122.808594 C 153.980469 122.808594 153.726562 122.558594 153.726562 122.242188 L 153.726562 49.699219 C 153.726562 49.386719 153.980469 49.132812 154.296875 49.132812 C 154.609375 49.132812 154.863281 49.386719 154.863281 49.699219 L 154.863281 122.242188 C 154.863281 122.558594 154.609375 122.808594 154.296875 122.808594 " fill-opacity="1" fill-rule="nonzero"/><path fill="#ffffff" d="M 146.402344 127.355469 C 146.085938 127.355469 145.832031 127.101562 145.832031 126.789062 L 145.832031 54.246094 C 145.832031 53.933594 146.085938 53.679688 146.402344 53.679688 C 146.714844 53.679688 146.96875 53.933594 146.96875 54.246094 L 146.96875 126.789062 C 146.96875 127.101562 146.714844 127.355469 146.402344 127.355469 " fill-opacity="1" fill-rule="nonzero"/><path fill="#ffffff" d="M 138.503906 131.902344 C 138.1875 131.902344 137.9375 131.648438 137.9375 131.335938 L 137.9375 58.792969 C 137.9375 58.476562 138.1875 58.222656 138.503906 58.222656 C 138.820312 58.222656 139.070312 58.476562 139.070312 58.792969 L 139.070312 131.335938 C 139.070312 131.648438 138.820312 131.902344 138.503906 131.902344 " fill-opacity="1" fill-rule="nonzero"/><path fill="#ffffff" d="M 130.609375 136.445312 C 130.292969 136.445312 130.039062 136.191406 130.039062 135.878906 L 130.039062 63.335938 C 130.039062 63.023438 130.292969 62.769531 130.609375 62.769531 C 130.921875 62.769531 131.175781 63.023438 131.175781 63.335938 L 131.175781 135.878906 C 131.175781 136.191406 130.921875 136.445312 130.609375 136.445312 " fill-opacity="1" fill-rule="nonzero"/><path fill="#ffffff" d="M 122.710938 140.992188 C 122.398438 140.992188 122.144531 140.738281 122.144531 140.425781 L 122.144531 67.882812 C 122.144531 67.570312 122.398438 67.316406 122.710938 67.316406 C 123.027344 67.316406 123.28125 67.570312 123.28125 67.882812 L 123.28125 140.425781 C 123.28125 140.738281 123.027344 140.992188 122.710938 140.992188 " fill-opacity="1" fill-rule="nonzero"/><path fill="#ffffff" d="M 114.816406 145.539062 C 114.5 145.539062 114.246094 145.285156 114.246094 144.96875 L 114.246094 72.425781 C 114.246094 72.113281 114.5 71.859375 114.816406 71.859375 C 115.128906 71.859375 115.382812 72.113281 115.382812 72.425781 L 115.382812 144.96875 C 115.382812 145.285156 115.128906 145.539062 114.816406 145.539062 " fill-opacity="1" fill-rule="nonzero"/><path fill="#ffffff" d="M 106.917969 150.082031 C 106.605469 150.082031 106.351562 149.828125 106.351562 149.515625 L 106.351562 76.972656 C 106.351562 76.660156 106.605469 76.40625 106.917969 76.40625 C 107.234375 76.40625 107.488281 76.660156 107.488281 76.972656 L 107.488281 149.515625 C 107.488281 149.828125 107.234375 150.082031 106.917969 150.082031 " fill-opacity="1" fill-rule="nonzero"/><g clip-path="url(#cb82c8d6a3)"><path fill="#ffffff" d="M 99.671875 153.558594 L 161.546875 189.175781 L 161.546875 117.941406 L 99.671875 82.324219 Z M 162.113281 190.726562 C 162.015625 190.726562 161.917969 190.699219 161.828125 190.648438 L 98.816406 154.375 C 98.640625 154.273438 98.535156 154.089844 98.535156 153.886719 L 98.535156 81.34375 C 98.535156 81.140625 98.640625 80.953125 98.816406 80.851562 C 98.992188 80.75 99.210938 80.75 99.386719 80.851562 L 162.398438 117.125 C 162.574219 117.226562 162.683594 117.414062 162.683594 117.613281 L 162.683594 190.15625 C 162.683594 190.359375 162.574219 190.546875 162.398438 190.648438 C 162.308594 190.699219 162.210938 190.726562 162.113281 190.726562 " fill-opacity="1" fill-rule="nonzero"/></g><path fill="#ffffff" d="M 162.113281 193.757812 L 99.101562 157.484375 L 99.101562 153.886719 L 162.113281 190.160156 L 162.113281 193.757812 " fill-opacity="1" fill-rule="nonzero"/><g clip-path="url(#a39182308e)"><path fill="#ffffff" d="M 99.671875 157.15625 L 161.546875 192.773438 L 161.546875 190.484375 L 99.671875 154.867188 Z M 162.113281 194.324219 C 162.015625 194.324219 161.917969 194.296875 161.828125 194.246094 L 98.816406 157.972656 C 98.640625 157.871094 98.535156 157.6875 98.535156 157.484375 L 98.535156 153.886719 C 98.535156 153.683594 98.640625 153.496094 98.816406 153.394531 C 98.992188 153.292969 99.210938 153.292969 99.386719 153.394531 L 162.398438 189.667969 C 162.574219 189.769531 162.683594 189.953125 162.683594 190.15625 L 162.683594 193.757812 C 162.683594 193.957031 162.574219 194.144531 162.398438 194.246094 C 162.308594 194.296875 162.210938 194.324219 162.113281 194.324219 " fill-opacity="1" fill-rule="nonzero"/></g><g clip-path="url(#c5f5ee130e)"><path fill="#ffffff" d="M 162.113281 126.757812 C 162.015625 126.757812 161.917969 126.734375 161.828125 126.679688 L 98.816406 90.410156 C 98.546875 90.25 98.453125 89.90625 98.609375 89.632812 C 98.765625 89.363281 99.113281 89.269531 99.386719 89.425781 L 162.398438 125.699219 C 162.671875 125.855469 162.761719 126.203125 162.605469 126.472656 C 162.5 126.65625 162.308594 126.757812 162.113281 126.757812 " fill-opacity="1" fill-rule="nonzero"/></g><g clip-path="url(#077604ec5c)"><path fill="#ffffff" d="M 162.113281 135.988281 C 162.015625 135.988281 161.917969 135.964844 161.828125 135.914062 L 98.816406 99.640625 C 98.546875 99.484375 98.453125 99.136719 98.609375 98.867188 C 98.765625 98.59375 99.113281 98.5 99.386719 98.660156 L 162.398438 134.929688 C 162.671875 135.085938 162.761719 135.433594 162.605469 135.707031 C 162.5 135.886719 162.308594 135.988281 162.113281 135.988281 " fill-opacity="1" fill-rule="nonzero"/></g><g clip-path="url(#d1a22d3df8)"><path fill="#ffffff" d="M 162.113281 145.222656 C 162.015625 145.222656 161.917969 145.195312 161.828125 145.144531 L 98.816406 108.871094 C 98.546875 108.714844 98.453125 108.371094 98.609375 108.097656 C 98.765625 107.828125 99.113281 107.734375 99.386719 107.890625 L 162.398438 144.164062 C 162.671875 144.320312 162.761719 144.667969 162.605469 144.9375 C 162.5 145.121094 162.308594 145.222656 162.113281 145.222656 " fill-opacity="1" fill-rule="nonzero"/></g><g clip-path="url(#2775a8ec40)"><path fill="#ffffff" d="M 162.113281 154.453125 C 162.015625 154.453125 161.917969 154.429688 161.828125 154.378906 L 98.816406 118.105469 C 98.546875 117.949219 98.453125 117.601562 98.609375 117.332031 C 98.765625 117.058594 99.113281 116.964844 99.386719 117.121094 L 162.398438 153.394531 C 162.671875 153.550781 162.761719 153.898438 162.605469 154.167969 C 162.5 154.351562 162.308594 154.453125 162.113281 154.453125 " fill-opacity="1" fill-rule="nonzero"/></g><g clip-path="url(#6305265836)"><path fill="#ffffff" d="M 162.113281 163.6875 C 162.015625 163.6875 161.917969 163.660156 161.828125 163.609375 L 98.816406 127.335938 C 98.546875 127.179688 98.453125 126.832031 98.609375 126.5625 C 98.765625 126.289062 99.113281 126.199219 99.386719 126.355469 L 162.398438 162.628906 C 162.671875 162.785156 162.761719 163.128906 162.605469 163.402344 C 162.5 163.585938 162.308594 163.6875 162.113281 163.6875 " fill-opacity="1" fill-rule="nonzero"/></g><g clip-path="url(#a85e3bc89d)"><path fill="#ffffff" d="M 162.113281 172.917969 C 162.015625 172.917969 161.917969 172.894531 161.828125 172.84375 L 98.816406 136.570312 C 98.546875 136.414062 98.453125 136.066406 98.609375 135.792969 C 98.765625 135.523438 99.113281 135.429688 99.386719 135.585938 L 162.398438 171.859375 C 162.671875 172.015625 162.761719 172.363281 162.605469 172.632812 C 162.5 172.816406 162.308594 172.917969 162.113281 172.917969 " fill-opacity="1" fill-rule="nonzero"/></g><g clip-path="url(#98af08c7db)"><path fill="#ffffff" d="M 162.113281 182.148438 C 162.015625 182.148438 161.917969 182.125 161.828125 182.074219 L 98.816406 145.800781 C 98.546875 145.644531 98.453125 145.296875 98.609375 145.027344 C 98.765625 144.753906 99.113281 144.664062 99.386719 144.820312 L 162.398438 181.09375 C 162.671875 181.25 162.761719 181.59375 162.605469 181.867188 C 162.5 182.046875 162.308594 182.148438 162.113281 182.148438 " fill-opacity="1" fill-rule="nonzero"/></g><path fill="#ffffff" d="M 154.296875 186.226562 C 153.980469 186.226562 153.726562 185.972656 153.726562 185.660156 L 153.726562 113.113281 C 153.726562 112.800781 153.980469 112.546875 154.296875 112.546875 C 154.609375 112.546875 154.863281 112.800781 154.863281 113.113281 L 154.863281 185.660156 C 154.863281 185.972656 154.609375 186.226562 154.296875 186.226562 " fill-opacity="1" fill-rule="nonzero"/><path fill="#ffffff" d="M 146.402344 181.679688 C 146.085938 181.679688 145.832031 181.425781 145.832031 181.113281 L 145.832031 108.570312 C 145.832031 108.257812 146.085938 108.003906 146.402344 108.003906 C 146.714844 108.003906 146.96875 108.257812 146.96875 108.570312 L 146.96875 181.113281 C 146.96875 181.425781 146.714844 181.679688 146.402344 181.679688 " fill-opacity="1" fill-rule="nonzero"/><path fill="#ffffff" d="M 138.503906 177.132812 C 138.1875 177.132812 137.9375 176.878906 137.9375 176.566406 L 137.9375 104.023438 C 137.9375 103.710938 138.1875 103.457031 138.503906 103.457031 C 138.820312 103.457031 139.070312 103.710938 139.070312 104.023438 L 139.070312 176.566406 C 139.070312 176.878906 138.820312 177.132812 138.503906 177.132812 " fill-opacity="1" fill-rule="nonzero"/><path fill="#ffffff" d="M 130.609375 172.589844 C 130.292969 172.589844 130.039062 172.335938 130.039062 172.023438 L 130.039062 99.480469 C 130.039062 99.164062 130.292969 98.910156 130.609375 98.910156 C 130.921875 98.910156 131.175781 99.164062 131.175781 99.480469 L 131.175781 172.023438 C 131.175781 172.335938 130.921875 172.589844 130.609375 172.589844 " fill-opacity="1" fill-rule="nonzero"/><path fill="#ffffff" d="M 122.710938 168.042969 C 122.398438 168.042969 122.144531 167.789062 122.144531 167.476562 L 122.144531 94.933594 C 122.144531 94.621094 122.398438 94.367188 122.710938 94.367188 C 123.027344 94.367188 123.28125 94.621094 123.28125 94.933594 L 123.28125 167.476562 C 123.28125 167.789062 123.027344 168.042969 122.710938 168.042969 " fill-opacity="1" fill-rule="nonzero"/><path fill="#ffffff" d="M 114.816406 163.496094 C 114.5 163.496094 114.246094 163.242188 114.246094 162.929688 L 114.246094 90.386719 C 114.246094 90.074219 114.5 89.820312 114.816406 89.820312 C 115.128906 89.820312 115.382812 90.074219 115.382812 90.386719 L 115.382812 162.929688 C 115.382812 163.242188 115.128906 163.496094 114.816406 163.496094 " fill-opacity="1" fill-rule="nonzero"/><path fill="#ffffff" d="M 106.917969 158.953125 C 106.605469 158.953125 106.351562 158.699219 106.351562 158.386719 L 106.351562 85.84375 C 106.351562 85.527344 106.605469 85.273438 106.917969 85.273438 C 107.234375 85.273438 107.488281 85.527344 107.488281 85.84375 L 107.488281 158.386719 C 107.488281 158.699219 107.234375 158.953125 106.917969 158.953125 " fill-opacity="1" fill-rule="nonzero"/><g clip-path="url(#a6d7e482b2)"><path fill="#ffffff" d="M 162.683594 117.433594 L 224.554688 153.050781 L 224.554688 81.816406 L 162.683594 46.199219 Z M 225.125 154.601562 C 225.023438 154.601562 224.925781 154.574219 224.839844 154.523438 L 161.828125 118.253906 C 161.652344 118.152344 161.542969 117.964844 161.542969 117.761719 L 161.542969 45.21875 C 161.542969 45.015625 161.652344 44.828125 161.828125 44.726562 C 162.003906 44.625 162.222656 44.625 162.398438 44.726562 L 225.40625 81 C 225.585938 81.101562 225.691406 81.289062 225.691406 81.492188 L 225.691406 154.035156 C 225.691406 154.238281 225.585938 154.425781 225.40625 154.523438 C 225.320312 154.574219 225.222656 154.601562 225.125 154.601562 " fill-opacity="1" fill-rule="nonzero"/></g><g clip-path="url(#f28a915d55)"><path fill="#ffffff" d="M 225.125 157.632812 L 162.113281 121.359375 L 162.113281 117.761719 L 225.125 154.035156 L 225.125 157.632812 " fill-opacity="1" fill-rule="nonzero"/></g><g clip-path="url(#eab66ffe30)"><path fill="#ffffff" d="M 162.683594 121.03125 L 224.554688 156.648438 L 224.554688 154.359375 L 162.683594 118.742188 Z M 225.125 158.199219 C 225.023438 158.199219 224.925781 158.171875 224.839844 158.121094 L 161.828125 121.851562 C 161.652344 121.75 161.542969 121.5625 161.542969 121.359375 L 161.542969 117.761719 C 161.542969 117.558594 161.652344 117.371094 161.828125 117.269531 C 162.003906 117.167969 162.222656 117.167969 162.398438 117.269531 L 225.40625 153.542969 C 225.585938 153.644531 225.691406 153.832031 225.691406 154.035156 L 225.691406 157.632812 C 225.691406 157.835938 225.585938 158.023438 225.40625 158.121094 C 225.320312 158.171875 225.222656 158.199219 225.125 158.199219 " fill-opacity="1" fill-rule="nonzero"/></g><g clip-path="url(#e451638163)"><path fill="#ffffff" d="M 225.125 90.632812 C 225.027344 90.632812 224.929688 90.609375 224.839844 90.554688 L 161.828125 54.285156 C 161.554688 54.128906 161.464844 53.78125 161.621094 53.511719 C 161.777344 53.238281 162.125 53.144531 162.398438 53.300781 L 225.40625 89.574219 C 225.679688 89.730469 225.773438 90.078125 225.617188 90.347656 C 225.511719 90.53125 225.320312 90.632812 225.125 90.632812 " fill-opacity="1" fill-rule="nonzero"/></g><g clip-path="url(#dc7cabde25)"><path fill="#ffffff" d="M 225.125 99.863281 C 225.027344 99.863281 224.929688 99.839844 224.839844 99.789062 L 161.828125 63.515625 C 161.554688 63.359375 161.464844 63.011719 161.621094 62.742188 C 161.777344 62.46875 162.125 62.378906 162.398438 62.535156 L 225.40625 98.808594 C 225.679688 98.964844 225.773438 99.308594 225.617188 99.582031 C 225.511719 99.761719 225.320312 99.863281 225.125 99.863281 " fill-opacity="1" fill-rule="nonzero"/></g><g clip-path="url(#924ea2849f)"><path fill="#ffffff" d="M 225.125 109.097656 C 225.027344 109.097656 224.929688 109.074219 224.839844 109.019531 L 161.828125 72.75 C 161.554688 72.59375 161.464844 72.246094 161.621094 71.972656 C 161.777344 71.703125 162.125 71.609375 162.398438 71.765625 L 225.40625 108.039062 C 225.679688 108.195312 225.773438 108.542969 225.617188 108.8125 C 225.511719 108.996094 225.320312 109.097656 225.125 109.097656 " fill-opacity="1" fill-rule="nonzero"/></g><g clip-path="url(#d761d25ee8)"><path fill="#ffffff" d="M 225.125 118.328125 C 225.027344 118.328125 224.929688 118.304688 224.839844 118.253906 L 161.828125 81.980469 C 161.554688 81.824219 161.464844 81.476562 161.621094 81.207031 C 161.777344 80.933594 162.125 80.84375 162.398438 81 L 225.40625 117.269531 C 225.679688 117.429688 225.773438 117.773438 225.617188 118.046875 C 225.511719 118.226562 225.320312 118.328125 225.125 118.328125 " fill-opacity="1" fill-rule="nonzero"/></g><g clip-path="url(#948e7647f7)"><path fill="#ffffff" d="M 225.125 127.5625 C 225.027344 127.5625 224.929688 127.535156 224.839844 127.484375 L 161.828125 91.210938 C 161.554688 91.054688 161.464844 90.710938 161.621094 90.4375 C 161.777344 90.164062 162.125 90.074219 162.398438 90.230469 L 225.40625 126.503906 C 225.679688 126.660156 225.773438 127.007812 225.617188 127.277344 C 225.511719 127.460938 225.320312 127.5625 225.125 127.5625 " fill-opacity="1" fill-rule="nonzero"/></g><g clip-path="url(#6ba36c4e8c)"><path fill="#ffffff" d="M 225.125 136.792969 C 225.027344 136.792969 224.929688 136.769531 224.839844 136.71875 L 161.828125 100.445312 C 161.554688 100.289062 161.464844 99.941406 161.621094 99.671875 C 161.777344 99.398438 162.125 99.304688 162.398438 99.464844 L 225.40625 135.734375 C 225.679688 135.890625 225.773438 136.238281 225.617188 136.511719 C 225.511719 136.691406 225.320312 136.792969 225.125 136.792969 " fill-opacity="1" fill-rule="nonzero"/></g><g clip-path="url(#913234e0b2)"><path fill="#ffffff" d="M 225.125 146.027344 C 225.027344 146.027344 224.929688 146 224.839844 145.949219 L 161.828125 109.675781 C 161.554688 109.519531 161.464844 109.175781 161.621094 108.902344 C 161.777344 108.628906 162.125 108.539062 162.398438 108.695312 L 225.40625 144.96875 C 225.679688 145.125 225.773438 145.472656 225.617188 145.742188 C 225.511719 145.925781 225.320312 146.027344 225.125 146.027344 " fill-opacity="1" fill-rule="nonzero"/></g><path fill="#ffffff" d="M 217.308594 150.101562 C 216.992188 150.101562 216.738281 149.847656 216.738281 149.535156 L 216.738281 76.992188 C 216.738281 76.675781 216.992188 76.421875 217.308594 76.421875 C 217.621094 76.421875 217.875 76.675781 217.875 76.992188 L 217.875 149.535156 C 217.875 149.847656 217.621094 150.101562 217.308594 150.101562 " fill-opacity="1" fill-rule="nonzero"/><path fill="#ffffff" d="M 209.410156 145.554688 C 209.097656 145.554688 208.84375 145.300781 208.84375 144.988281 L 208.84375 72.445312 C 208.84375 72.132812 209.097656 71.878906 209.410156 71.878906 C 209.726562 71.878906 209.980469 72.132812 209.980469 72.445312 L 209.980469 144.988281 C 209.980469 145.300781 209.726562 145.554688 209.410156 145.554688 " fill-opacity="1" fill-rule="nonzero"/><path fill="#ffffff" d="M 201.515625 141.011719 C 201.199219 141.011719 200.945312 140.757812 200.945312 140.441406 L 200.945312 67.898438 C 200.945312 67.585938 201.199219 67.332031 201.515625 67.332031 C 201.828125 67.332031 202.082031 67.585938 202.082031 67.898438 L 202.082031 140.441406 C 202.082031 140.757812 201.828125 141.011719 201.515625 141.011719 " fill-opacity="1" fill-rule="nonzero"/><path fill="#ffffff" d="M 193.617188 136.464844 C 193.304688 136.464844 193.050781 136.210938 193.050781 135.898438 L 193.050781 63.355469 C 193.050781 63.039062 193.304688 62.789062 193.617188 62.789062 C 193.933594 62.789062 194.1875 63.039062 194.1875 63.355469 L 194.1875 135.898438 C 194.1875 136.210938 193.933594 136.464844 193.617188 136.464844 " fill-opacity="1" fill-rule="nonzero"/><path fill="#ffffff" d="M 185.722656 131.917969 C 185.40625 131.917969 185.152344 131.664062 185.152344 131.351562 L 185.152344 58.808594 C 185.152344 58.496094 185.40625 58.242188 185.722656 58.242188 C 186.035156 58.242188 186.289062 58.496094 186.289062 58.808594 L 186.289062 131.351562 C 186.289062 131.664062 186.035156 131.917969 185.722656 131.917969 " fill-opacity="1" fill-rule="nonzero"/><path fill="#ffffff" d="M 177.828125 127.375 C 177.511719 127.375 177.257812 127.121094 177.257812 126.804688 L 177.257812 54.261719 C 177.257812 53.949219 177.511719 53.695312 177.828125 53.695312 C 178.140625 53.695312 178.394531 53.949219 178.394531 54.261719 L 178.394531 126.804688 C 178.394531 127.121094 178.140625 127.375 177.828125 127.375 " fill-opacity="1" fill-rule="nonzero"/><path fill="#ffffff" d="M 169.929688 122.828125 C 169.613281 122.828125 169.363281 122.574219 169.363281 122.261719 L 169.363281 49.71875 C 169.363281 49.40625 169.613281 49.152344 169.929688 49.152344 C 170.242188 49.152344 170.496094 49.40625 170.496094 49.71875 L 170.496094 122.261719 C 170.496094 122.574219 170.242188 122.828125 169.929688 122.828125 " fill-opacity="1" fill-rule="nonzero"/><g clip-path="url(#fbcbfff23d)"><path fill="#ffffff" d="M 225.125 157.484375 L 162.113281 193.757812 L 162.113281 190.160156 L 225.125 153.886719 L 225.125 157.484375 " fill-opacity="1" fill-rule="nonzero"/></g><g clip-path="url(#2a9bbf7b4e)"><path fill="#ffffff" d="M 225.125 157.484375 L 225.128906 157.484375 Z M 162.683594 190.484375 L 162.683594 192.773438 L 224.554688 157.15625 L 224.554688 154.867188 Z M 162.113281 194.324219 C 162.015625 194.324219 161.917969 194.296875 161.828125 194.246094 C 161.652344 194.144531 161.542969 193.957031 161.542969 193.757812 L 161.542969 190.15625 C 161.542969 189.953125 161.652344 189.769531 161.828125 189.667969 L 224.839844 153.394531 C 225.015625 153.292969 225.234375 153.292969 225.40625 153.394531 C 225.585938 153.496094 225.691406 153.683594 225.691406 153.886719 L 225.691406 157.484375 C 225.691406 157.6875 225.585938 157.871094 225.40625 157.972656 L 162.398438 194.246094 C 162.308594 194.296875 162.210938 194.324219 162.113281 194.324219 " fill-opacity="1" fill-rule="nonzero"/></g><g clip-path="url(#37fb965baa)"><path fill="#ffffff" d="M 225.125 153.886719 L 225.128906 153.886719 Z M 162.683594 117.941406 L 162.683594 189.175781 L 224.554688 153.558594 L 224.554688 82.324219 Z M 162.113281 190.726562 C 162.015625 190.726562 161.917969 190.699219 161.828125 190.648438 C 161.652344 190.546875 161.542969 190.359375 161.542969 190.15625 L 161.542969 117.613281 C 161.542969 117.414062 161.652344 117.226562 161.828125 117.125 L 224.839844 80.851562 C 225.015625 80.75 225.234375 80.75 225.40625 80.851562 C 225.585938 80.953125 225.691406 81.140625 225.691406 81.34375 L 225.691406 153.886719 C 225.691406 154.089844 225.585938 154.273438 225.40625 154.375 L 162.398438 190.648438 C 162.308594 190.699219 162.210938 190.726562 162.113281 190.726562 " fill-opacity="1" fill-rule="nonzero"/></g><g clip-path="url(#db95d67181)"><path fill="#ffffff" d="M 162.113281 126.757812 C 161.917969 126.757812 161.726562 126.65625 161.621094 126.472656 C 161.464844 126.203125 161.554688 125.855469 161.828125 125.699219 L 224.839844 89.425781 C 225.109375 89.269531 225.457031 89.363281 225.617188 89.632812 C 225.773438 89.90625 225.679688 90.25 225.40625 90.410156 L 162.398438 126.679688 C 162.308594 126.734375 162.210938 126.757812 162.113281 126.757812 " fill-opacity="1" fill-rule="nonzero"/></g><g clip-path="url(#c940b86e0c)"><path fill="#ffffff" d="M 162.113281 135.988281 C 161.917969 135.988281 161.726562 135.886719 161.621094 135.707031 C 161.464844 135.433594 161.554688 135.085938 161.828125 134.929688 L 224.839844 98.660156 C 225.109375 98.5 225.457031 98.59375 225.617188 98.867188 C 225.773438 99.136719 225.679688 99.484375 225.40625 99.640625 L 162.398438 135.914062 C 162.308594 135.964844 162.210938 135.988281 162.113281 135.988281 " fill-opacity="1" fill-rule="nonzero"/></g><g clip-path="url(#9fbfba6aff)"><path fill="#ffffff" d="M 162.113281 145.222656 C 161.917969 145.222656 161.726562 145.121094 161.621094 144.9375 C 161.464844 144.667969 161.554688 144.320312 161.828125 144.164062 L 224.839844 107.890625 C 225.109375 107.734375 225.457031 107.828125 225.617188 108.097656 C 225.773438 108.371094 225.679688 108.714844 225.40625 108.871094 L 162.398438 145.144531 C 162.308594 145.195312 162.210938 145.222656 162.113281 145.222656 " fill-opacity="1" fill-rule="nonzero"/></g><g clip-path="url(#f75af4b589)"><path fill="#ffffff" d="M 162.113281 154.453125 C 161.917969 154.453125 161.726562 154.351562 161.621094 154.167969 C 161.464844 153.898438 161.554688 153.550781 161.828125 153.394531 L 224.839844 117.121094 C 225.109375 116.964844 225.457031 117.058594 225.617188 117.332031 C 225.773438 117.601562 225.679688 117.949219 225.40625 118.105469 L 162.398438 154.378906 C 162.308594 154.429688 162.210938 154.453125 162.113281 154.453125 " fill-opacity="1" fill-rule="nonzero"/></g><g clip-path="url(#0790d5b2d6)"><path fill="#ffffff" d="M 162.113281 163.6875 C 161.917969 163.6875 161.726562 163.585938 161.621094 163.402344 C 161.464844 163.128906 161.554688 162.785156 161.828125 162.628906 L 224.839844 126.355469 C 225.109375 126.199219 225.457031 126.289062 225.617188 126.5625 C 225.773438 126.832031 225.679688 127.179688 225.40625 127.335938 L 162.398438 163.609375 C 162.308594 163.660156 162.210938 163.6875 162.113281 163.6875 " fill-opacity="1" fill-rule="nonzero"/></g><g clip-path="url(#7dd37f26ed)"><path fill="#ffffff" d="M 162.113281 172.917969 C 161.917969 172.917969 161.726562 172.816406 161.621094 172.632812 C 161.464844 172.363281 161.554688 172.015625 161.828125 171.859375 L 224.839844 135.585938 C 225.109375 135.429688 225.457031 135.523438 225.617188 135.792969 C 225.773438 136.066406 225.679688 136.414062 225.40625 136.570312 L 162.398438 172.84375 C 162.308594 172.894531 162.210938 172.917969 162.113281 172.917969 " fill-opacity="1" fill-rule="nonzero"/></g><g clip-path="url(#ca61a66cd5)"><path fill="#ffffff" d="M 162.113281 182.148438 C 161.917969 182.148438 161.726562 182.046875 161.621094 181.867188 C 161.464844 181.59375 161.554688 181.25 161.828125 181.09375 L 224.839844 144.820312 C 225.109375 144.664062 225.457031 144.753906 225.617188 145.027344 C 225.773438 145.296875 225.679688 145.644531 225.40625 145.800781 L 162.398438 182.074219 C 162.308594 182.125 162.210938 182.148438 162.113281 182.148438 " fill-opacity="1" fill-rule="nonzero"/></g><path fill="#ffffff" d="M 217.308594 158.953125 C 216.992188 158.953125 216.738281 158.699219 216.738281 158.386719 L 216.738281 85.84375 C 216.738281 85.527344 216.992188 85.273438 217.308594 85.273438 C 217.621094 85.273438 217.875 85.527344 217.875 85.84375 L 217.875 158.386719 C 217.875 158.699219 217.621094 158.953125 217.308594 158.953125 " fill-opacity="1" fill-rule="nonzero"/><path fill="#ffffff" d="M 209.410156 163.496094 C 209.097656 163.496094 208.84375 163.242188 208.84375 162.929688 L 208.84375 90.386719 C 208.84375 90.074219 209.097656 89.820312 209.410156 89.820312 C 209.726562 89.820312 209.980469 90.074219 209.980469 90.386719 L 209.980469 162.929688 C 209.980469 163.242188 209.726562 163.496094 209.410156 163.496094 " fill-opacity="1" fill-rule="nonzero"/><path fill="#ffffff" d="M 201.515625 168.042969 C 201.199219 168.042969 200.945312 167.789062 200.945312 167.476562 L 200.945312 94.933594 C 200.945312 94.621094 201.199219 94.367188 201.515625 94.367188 C 201.828125 94.367188 202.082031 94.621094 202.082031 94.933594 L 202.082031 167.476562 C 202.082031 167.789062 201.828125 168.042969 201.515625 168.042969 " fill-opacity="1" fill-rule="nonzero"/><path fill="#ffffff" d="M 193.617188 172.589844 C 193.304688 172.589844 193.050781 172.335938 193.050781 172.023438 L 193.050781 99.480469 C 193.050781 99.164062 193.304688 98.910156 193.617188 98.910156 C 193.933594 98.910156 194.1875 99.164062 194.1875 99.480469 L 194.1875 172.023438 C 194.1875 172.335938 193.933594 172.589844 193.617188 172.589844 " fill-opacity="1" fill-rule="nonzero"/><path fill="#ffffff" d="M 185.722656 177.132812 C 185.40625 177.132812 185.152344 176.878906 185.152344 176.566406 L 185.152344 104.023438 C 185.152344 103.710938 185.40625 103.457031 185.722656 103.457031 C 186.035156 103.457031 186.289062 103.710938 186.289062 104.023438 L 186.289062 176.566406 C 186.289062 176.878906 186.035156 177.132812 185.722656 177.132812 " fill-opacity="1" fill-rule="nonzero"/><path fill="#ffffff" d="M 177.828125 181.679688 C 177.511719 181.679688 177.257812 181.425781 177.257812 181.113281 L 177.257812 108.570312 C 177.257812 108.257812 177.511719 108.003906 177.828125 108.003906 C 178.140625 108.003906 178.394531 108.257812 178.394531 108.570312 L 178.394531 181.113281 C 178.394531 181.425781 178.140625 181.679688 177.828125 181.679688 " fill-opacity="1" fill-rule="nonzero"/><path fill="#ffffff" d="M 169.929688 186.226562 C 169.613281 186.226562 169.363281 185.972656 169.363281 185.660156 L 169.363281 113.113281 C 169.363281 112.800781 169.613281 112.546875 169.929688 112.546875 C 170.242188 112.546875 170.496094 112.800781 170.496094 113.113281 L 170.496094 185.660156 C 170.496094 185.972656 170.242188 186.226562 169.929688 186.226562 " fill-opacity="1" fill-rule="nonzero"/><g clip-path="url(#8de9c3c5f2)"><path fill="#ffffff" d="M 100.242188 81.160156 L 162.113281 116.777344 L 223.988281 81.164062 L 162.113281 45.542969 Z M 162.113281 118 C 162.015625 118 161.917969 117.976562 161.832031 117.925781 L 98.820312 81.652344 C 98.644531 81.550781 98.535156 81.363281 98.535156 81.160156 C 98.535156 80.957031 98.644531 80.773438 98.820312 80.671875 L 161.828125 44.398438 C 162.003906 44.296875 162.222656 44.296875 162.398438 44.398438 L 225.40625 80.671875 C 225.585938 80.773438 225.691406 80.960938 225.691406 81.164062 C 225.691406 81.363281 225.585938 81.550781 225.40625 81.652344 L 162.398438 117.925781 C 162.3125 117.976562 162.210938 118 162.113281 118 " fill-opacity="1" fill-rule="nonzero"/></g><path fill="#ffffff" d="M 217.675781 86.015625 C 217.578125 86.015625 217.480469 85.992188 217.390625 85.941406 L 154.378906 49.667969 C 154.109375 49.511719 154.015625 49.164062 154.171875 48.894531 C 154.328125 48.621094 154.675781 48.53125 154.949219 48.6875 L 217.960938 84.957031 C 218.230469 85.117188 218.324219 85.460938 218.167969 85.734375 C 218.0625 85.914062 217.871094 86.015625 217.675781 86.015625 " fill-opacity="1" fill-rule="nonzero"/><path fill="#ffffff" d="M 209.65625 90.632812 C 209.558594 90.632812 209.460938 90.609375 209.371094 90.554688 L 146.363281 54.285156 C 146.089844 54.128906 145.996094 53.78125 146.152344 53.511719 C 146.3125 53.238281 146.65625 53.144531 146.929688 53.300781 L 209.941406 89.574219 C 210.214844 89.730469 210.304688 90.078125 210.148438 90.347656 C 210.042969 90.53125 209.851562 90.632812 209.65625 90.632812 " fill-opacity="1" fill-rule="nonzero"/><path fill="#ffffff" d="M 201.636719 95.25 C 201.539062 95.25 201.441406 95.222656 201.355469 95.171875 L 138.34375 58.898438 C 138.070312 58.742188 137.976562 58.398438 138.132812 58.125 C 138.289062 57.855469 138.640625 57.761719 138.910156 57.917969 L 201.921875 94.191406 C 202.195312 94.347656 202.289062 94.695312 202.132812 94.964844 C 202.023438 95.148438 201.835938 95.25 201.636719 95.25 " fill-opacity="1" fill-rule="nonzero"/><path fill="#ffffff" d="M 193.617188 99.863281 C 193.523438 99.863281 193.425781 99.839844 193.335938 99.789062 L 130.324219 63.515625 C 130.050781 63.359375 129.957031 63.011719 130.117188 62.742188 C 130.273438 62.472656 130.621094 62.378906 130.890625 62.535156 L 193.902344 98.808594 C 194.175781 98.964844 194.269531 99.308594 194.113281 99.582031 C 194.003906 99.761719 193.816406 99.863281 193.617188 99.863281 " fill-opacity="1" fill-rule="nonzero"/><path fill="#ffffff" d="M 185.597656 104.480469 C 185.503906 104.480469 185.40625 104.457031 185.316406 104.40625 L 122.304688 68.132812 C 122.03125 67.976562 121.941406 67.628906 122.097656 67.359375 C 122.253906 67.085938 122.601562 66.992188 122.875 67.148438 L 185.882812 103.421875 C 186.15625 103.578125 186.25 103.925781 186.09375 104.199219 C 185.988281 104.378906 185.796875 104.480469 185.597656 104.480469 " fill-opacity="1" fill-rule="nonzero"/><path fill="#ffffff" d="M 177.582031 109.097656 C 177.484375 109.097656 177.386719 109.074219 177.296875 109.019531 L 114.285156 72.75 C 114.015625 72.59375 113.917969 72.246094 114.078125 71.972656 C 114.234375 71.703125 114.582031 71.609375 114.855469 71.765625 L 177.867188 108.039062 C 178.136719 108.195312 178.230469 108.542969 178.074219 108.8125 C 177.96875 108.996094 177.777344 109.097656 177.582031 109.097656 " fill-opacity="1" fill-rule="nonzero"/><path fill="#ffffff" d="M 169.5625 113.710938 C 169.464844 113.710938 169.367188 113.6875 169.277344 113.636719 L 106.265625 77.363281 C 105.996094 77.207031 105.902344 76.863281 106.058594 76.589844 C 106.214844 76.320312 106.566406 76.226562 106.835938 76.382812 L 169.847656 112.65625 C 170.117188 112.8125 170.210938 113.160156 170.054688 113.429688 C 169.949219 113.609375 169.757812 113.710938 169.5625 113.710938 " fill-opacity="1" fill-rule="nonzero"/><path fill="#ffffff" d="M 154.296875 113.5 C 154.101562 113.5 153.910156 113.398438 153.804688 113.21875 C 153.648438 112.945312 153.742188 112.597656 154.011719 112.441406 L 217.023438 76.171875 C 217.292969 76.015625 217.640625 76.105469 217.800781 76.378906 C 217.957031 76.648438 217.863281 76.996094 217.589844 77.152344 L 154.582031 113.425781 C 154.492188 113.476562 154.394531 113.5 154.296875 113.5 " fill-opacity="1" fill-rule="nonzero"/><path fill="#ffffff" d="M 146.402344 108.957031 C 146.203125 108.957031 146.015625 108.855469 145.910156 108.671875 C 145.75 108.402344 145.84375 108.054688 146.117188 107.898438 L 209.125 71.625 C 209.398438 71.46875 209.746094 71.5625 209.902344 71.832031 C 210.0625 72.105469 209.96875 72.453125 209.695312 72.609375 L 146.683594 108.878906 C 146.597656 108.929688 146.5 108.957031 146.402344 108.957031 " fill-opacity="1" fill-rule="nonzero"/><path fill="#ffffff" d="M 138.503906 104.410156 C 138.308594 104.410156 138.117188 104.308594 138.011719 104.125 C 137.855469 103.855469 137.949219 103.507812 138.21875 103.351562 L 201.230469 67.082031 C 201.5 66.921875 201.847656 67.015625 202.007812 67.289062 C 202.164062 67.558594 202.070312 67.90625 201.800781 68.0625 L 138.789062 104.335938 C 138.699219 104.386719 138.601562 104.410156 138.503906 104.410156 " fill-opacity="1" fill-rule="nonzero"/><path fill="#ffffff" d="M 130.609375 99.863281 C 130.414062 99.863281 130.222656 99.761719 130.117188 99.582031 C 129.960938 99.308594 130.054688 98.964844 130.324219 98.804688 L 193.335938 62.535156 C 193.605469 62.378906 193.953125 62.472656 194.113281 62.742188 C 194.269531 63.011719 194.175781 63.359375 193.902344 63.515625 L 130.894531 99.789062 C 130.804688 99.839844 130.707031 99.863281 130.609375 99.863281 " fill-opacity="1" fill-rule="nonzero"/><path fill="#ffffff" d="M 122.710938 95.320312 C 122.515625 95.320312 122.324219 95.21875 122.21875 95.035156 C 122.0625 94.765625 122.15625 94.417969 122.429688 94.261719 L 185.4375 57.988281 C 185.710938 57.832031 186.054688 57.925781 186.214844 58.195312 C 186.371094 58.46875 186.277344 58.816406 186.007812 58.972656 L 122.996094 95.242188 C 122.90625 95.292969 122.808594 95.320312 122.710938 95.320312 " fill-opacity="1" fill-rule="nonzero"/><path fill="#ffffff" d="M 114.816406 90.773438 C 114.621094 90.773438 114.429688 90.671875 114.324219 90.488281 C 114.167969 90.21875 114.257812 89.871094 114.53125 89.714844 L 177.542969 53.445312 C 177.8125 53.289062 178.160156 53.378906 178.320312 53.652344 C 178.476562 53.921875 178.382812 54.269531 178.109375 54.425781 L 115.101562 90.695312 C 115.011719 90.75 114.914062 90.773438 114.816406 90.773438 " fill-opacity="1" fill-rule="nonzero"/><path fill="#ffffff" d="M 106.921875 86.226562 C 106.722656 86.226562 106.535156 86.125 106.425781 85.945312 C 106.269531 85.671875 106.363281 85.328125 106.636719 85.167969 L 169.644531 48.898438 C 169.914062 48.742188 170.265625 48.835938 170.421875 49.105469 C 170.578125 49.378906 170.484375 49.722656 170.214844 49.878906 L 107.203125 86.152344 C 107.113281 86.203125 107.015625 86.226562 106.921875 86.226562 " fill-opacity="1" fill-rule="nonzero"/></svg>