<svg xmlns="http://www.w3.org/2000/svg" xmlns:xlink="http://www.w3.org/1999/xlink" width="500" zoomAndPan="magnify" viewBox="0 0 375 374.999991" height="500" preserveAspectRatio="xMidYMid meet" version="1.0"><defs><clipPath id="12fb6b4150"><path d="M 208 27.132812 L 238 27.132812 L 238 61 L 208 61 Z M 208 27.132812 " clip-rule="nonzero"/></clipPath><clipPath id="5223afbd9d"><path d="M 113.71875 29 L 155 29 L 155 77 L 113.71875 77 Z M 113.71875 29 " clip-rule="nonzero"/></clipPath><clipPath id="9cb83681e7"><path d="M 234 113 L 261.46875 113 L 261.46875 144 L 234 144 Z M 234 113 " clip-rule="nonzero"/></clipPath><clipPath id="56607fe88d"><path d="M 113.71875 105 L 139 105 L 139 135 L 113.71875 135 Z M 113.71875 105 " clip-rule="nonzero"/></clipPath><clipPath id="33866d7dca"><path d="M 190 129 L 232 129 L 232 177.132812 L 190 177.132812 Z M 190 129 " clip-rule="nonzero"/></clipPath></defs><path fill="#eeeeee" d="M 161.605469 152.25 L 161.605469 145.949219 L 156.15625 142.8125 L 150.707031 145.949219 L 150.707031 152.25 L 156.15625 155.390625 Z M 161.605469 152.25 " fill-opacity="1" fill-rule="nonzero"/><g clip-path="url(#12fb6b4150)"><path fill="#eeeeee" d="M 237.796875 51.925781 C 237.796875 50.074219 237.796875 48.246094 237.796875 46.394531 C 237.796875 43.480469 237.796875 40.59375 237.796875 37.679688 C 237.796875 37.046875 237.820312 36.414062 237.796875 35.78125 C 237.773438 35.445312 237.570312 35.308594 237.320312 35.171875 C 237.027344 35.015625 236.757812 34.832031 236.460938 34.675781 C 234.042969 33.296875 231.648438 31.898438 229.226562 30.519531 C 227.351562 29.4375 225.476562 28.332031 223.574219 27.269531 C 223.554688 27.246094 223.507812 27.222656 223.484375 27.222656 C 223.304688 27.132812 223.101562 27.132812 222.921875 27.222656 C 221.949219 27.789062 220.953125 28.351562 219.980469 28.917969 C 218.015625 30.046875 216.023438 31.199219 214.058594 32.328125 C 212.519531 33.207031 210.984375 34.113281 209.445312 34.992188 C 209.105469 35.195312 208.652344 35.351562 208.632812 35.804688 C 208.609375 36.210938 208.632812 36.617188 208.632812 37.023438 C 208.632812 39.011719 208.632812 41 208.632812 42.984375 C 208.632812 45.175781 208.632812 47.367188 208.632812 49.554688 C 208.632812 50.210938 208.632812 50.867188 208.632812 51.519531 C 208.632812 51.90625 208.609375 52.21875 208.992188 52.445312 C 210.191406 53.167969 211.433594 53.847656 212.65625 54.570312 C 214.644531 55.71875 216.65625 56.871094 218.648438 58.023438 C 220.003906 58.8125 221.359375 59.582031 222.695312 60.371094 C 222.761719 60.417969 222.828125 60.460938 222.898438 60.484375 C 223.078125 60.574219 223.28125 60.574219 223.460938 60.484375 C 225.046875 59.582031 226.628906 58.65625 228.210938 57.753906 C 230.71875 56.308594 233.253906 54.839844 235.761719 53.394531 C 236.328125 53.054688 236.914062 52.738281 237.480469 52.402344 C 238.113281 52.039062 237.546875 51.070312 236.914062 51.429688 C 235.332031 52.332031 233.75 53.257812 232.167969 54.164062 C 229.65625 55.609375 227.125 57.074219 224.617188 58.519531 C 224.050781 58.859375 223.460938 59.175781 222.898438 59.515625 C 223.078125 59.515625 223.28125 59.515625 223.460938 59.515625 C 221.878906 58.609375 220.296875 57.683594 218.714844 56.78125 C 216.207031 55.335938 213.671875 53.867188 211.164062 52.425781 C 210.597656 52.085938 210.011719 51.769531 209.445312 51.429688 C 209.535156 51.589844 209.625 51.746094 209.714844 51.925781 C 209.714844 50.097656 209.714844 48.269531 209.714844 46.460938 C 209.714844 43.550781 209.714844 40.660156 209.714844 37.746094 C 209.714844 37.09375 209.714844 36.4375 209.714844 35.757812 C 209.625 35.917969 209.535156 36.074219 209.445312 36.257812 C 211.027344 35.351562 212.609375 34.425781 214.191406 33.523438 C 216.703125 32.078125 219.234375 30.613281 221.746094 29.167969 C 222.308594 28.828125 222.898438 28.511719 223.460938 28.171875 C 223.28125 28.171875 223.078125 28.171875 222.898438 28.171875 C 224.480469 29.074219 226.0625 30 227.644531 30.90625 C 230.15625 32.351562 232.6875 33.816406 235.195312 35.261719 C 235.761719 35.601562 236.351562 35.917969 236.914062 36.257812 C 236.824219 36.097656 236.734375 35.941406 236.644531 35.757812 C 236.644531 37.589844 236.644531 39.417969 236.644531 41.222656 C 236.644531 44.136719 236.644531 47.027344 236.644531 49.941406 C 236.644531 50.59375 236.644531 51.25 236.644531 51.925781 C 236.667969 52.671875 237.796875 52.671875 237.796875 51.925781 Z M 237.796875 51.925781 " fill-opacity="1" fill-rule="nonzero"/></g><path fill="#eeeeee" d="M 208.675781 103.410156 C 208.675781 101.558594 208.675781 99.730469 208.675781 97.878906 C 208.675781 94.964844 208.675781 92.074219 208.675781 89.160156 C 208.675781 88.53125 208.699219 87.898438 208.675781 87.265625 C 208.652344 86.925781 208.449219 86.789062 208.203125 86.65625 C 207.90625 86.496094 207.636719 86.316406 207.34375 86.160156 C 204.921875 84.78125 202.527344 83.382812 200.109375 82.003906 C 198.230469 80.921875 196.355469 79.8125 194.457031 78.753906 C 194.433594 78.730469 194.386719 78.707031 194.363281 78.707031 C 194.183594 78.617188 193.980469 78.617188 193.800781 78.707031 C 192.828125 79.273438 191.832031 79.835938 190.859375 80.402344 C 188.894531 81.53125 186.902344 82.679688 184.9375 83.808594 C 183.398438 84.691406 181.863281 85.59375 180.324219 86.476562 C 179.984375 86.679688 179.535156 86.835938 179.511719 87.289062 C 179.488281 87.695312 179.511719 88.101562 179.511719 88.507812 C 179.511719 90.492188 179.511719 92.480469 179.511719 94.46875 C 179.511719 96.660156 179.511719 98.847656 179.511719 101.039062 C 179.511719 101.695312 179.511719 102.347656 179.511719 103.003906 C 179.511719 103.386719 179.488281 103.703125 179.871094 103.929688 C 181.070312 104.652344 182.316406 105.328125 183.535156 106.050781 C 185.523438 107.203125 187.539062 108.355469 189.527344 109.507812 C 190.882812 110.296875 192.238281 111.066406 193.574219 111.855469 C 193.640625 111.898438 193.710938 111.945312 193.777344 111.96875 C 193.957031 112.058594 194.160156 112.058594 194.34375 111.96875 C 195.925781 111.066406 197.507812 110.140625 199.089844 109.234375 C 201.601562 107.789062 204.132812 106.324219 206.640625 104.878906 C 207.207031 104.539062 207.792969 104.222656 208.359375 103.882812 C 208.992188 103.523438 208.429688 102.550781 207.792969 102.914062 C 206.210938 103.816406 204.628906 104.742188 203.046875 105.644531 C 200.539062 107.089844 198.003906 108.558594 195.496094 110.003906 C 194.929688 110.34375 194.34375 110.65625 193.777344 110.996094 C 193.957031 110.996094 194.160156 110.996094 194.34375 110.996094 C 192.761719 110.09375 191.175781 109.167969 189.59375 108.265625 C 187.085938 106.820312 184.554688 105.351562 182.042969 103.90625 C 181.476562 103.566406 180.890625 103.25 180.324219 102.914062 C 180.414062 103.070312 180.507812 103.230469 180.597656 103.410156 C 180.597656 101.582031 180.597656 99.75 180.597656 97.945312 C 180.597656 95.03125 180.597656 92.140625 180.597656 89.230469 C 180.597656 88.574219 180.597656 87.921875 180.597656 87.242188 C 180.507812 87.402344 180.414062 87.558594 180.324219 87.738281 C 181.90625 86.835938 183.492188 85.910156 185.074219 85.007812 C 187.582031 83.5625 190.113281 82.09375 192.625 80.648438 C 193.1875 80.308594 193.777344 79.996094 194.34375 79.65625 C 194.160156 79.65625 193.957031 79.65625 193.777344 79.65625 C 195.359375 80.558594 196.941406 81.484375 198.523438 82.386719 C 201.035156 83.832031 203.566406 85.300781 206.078125 86.746094 C 206.640625 87.085938 207.230469 87.402344 207.792969 87.738281 C 207.703125 87.582031 207.613281 87.421875 207.523438 87.242188 C 207.523438 89.070312 207.523438 90.902344 207.523438 92.707031 C 207.523438 95.621094 207.523438 98.511719 207.523438 101.421875 C 207.523438 102.078125 207.523438 102.734375 207.523438 103.410156 C 207.546875 104.132812 208.675781 104.132812 208.675781 103.410156 Z M 208.675781 103.410156 " fill-opacity="1" fill-rule="nonzero"/><path fill="#eeeeee" d="M 186.972656 70.578125 C 186.972656 68.953125 186.972656 67.328125 186.972656 65.722656 C 186.972656 63.148438 186.972656 60.554688 186.972656 57.980469 C 186.972656 57.390625 186.972656 56.804688 186.972656 56.195312 C 186.972656 55.992188 186.859375 55.8125 186.699219 55.699219 C 185.277344 54.886719 183.851562 54.050781 182.425781 53.238281 C 180.1875 51.949219 177.929688 50.640625 175.691406 49.351562 C 175.214844 49.082031 174.71875 48.765625 174.21875 48.515625 C 173.746094 48.269531 173.113281 48.8125 172.707031 49.035156 C 170.582031 50.277344 168.433594 51.5 166.308594 52.738281 C 164.613281 53.710938 162.917969 54.660156 161.242188 55.652344 C 161.21875 55.675781 161.199219 55.675781 161.152344 55.699219 C 160.972656 55.789062 160.882812 55.992188 160.882812 56.195312 C 160.882812 57.820312 160.882812 59.445312 160.882812 61.050781 C 160.882812 63.625 160.882812 66.21875 160.882812 68.792969 C 160.882812 69.382812 160.882812 69.96875 160.882812 70.578125 C 160.882812 70.78125 160.996094 70.960938 161.152344 71.074219 C 162.578125 71.886719 164 72.722656 165.425781 73.535156 C 167.664062 74.824219 169.925781 76.132812 172.164062 77.421875 C 172.636719 77.691406 173.136719 78.007812 173.632812 78.253906 C 174.109375 78.503906 174.742188 77.960938 175.148438 77.734375 C 177.273438 76.496094 179.421875 75.273438 181.546875 74.03125 C 183.242188 73.0625 184.9375 72.113281 186.609375 71.121094 C 186.632812 71.097656 186.65625 71.097656 186.699219 71.074219 C 187.332031 70.714844 186.769531 69.742188 186.136719 70.105469 C 184.734375 70.917969 183.332031 71.730469 181.90625 72.542969 C 179.667969 73.828125 177.429688 75.117188 175.191406 76.425781 C 174.671875 76.71875 174.175781 77.015625 173.65625 77.308594 C 173.835938 77.308594 174.039062 77.308594 174.21875 77.308594 C 172.820312 76.496094 171.417969 75.679688 169.992188 74.867188 C 167.753906 73.582031 165.515625 72.292969 163.277344 70.984375 C 162.757812 70.691406 162.261719 70.398438 161.742188 70.105469 C 161.832031 70.261719 161.921875 70.421875 162.011719 70.601562 C 162.011719 68.976562 162.011719 67.347656 162.011719 65.746094 C 162.011719 63.171875 162.011719 60.574219 162.011719 58 C 162.011719 57.414062 162.011719 56.828125 162.011719 56.21875 C 161.921875 56.375 161.832031 56.535156 161.742188 56.714844 C 163.140625 55.902344 164.542969 55.089844 165.96875 54.277344 C 168.207031 52.988281 170.445312 51.703125 172.683594 50.390625 C 173.203125 50.097656 173.699219 49.804688 174.21875 49.511719 C 174.039062 49.511719 173.835938 49.511719 173.65625 49.511719 C 175.058594 50.324219 176.457031 51.136719 177.882812 51.949219 C 180.121094 53.238281 182.359375 54.523438 184.597656 55.832031 C 185.117188 56.128906 185.617188 56.421875 186.136719 56.714844 C 186.046875 56.554688 185.953125 56.398438 185.863281 56.21875 C 185.863281 57.84375 185.863281 59.46875 185.863281 61.070312 C 185.863281 63.644531 185.863281 66.242188 185.863281 68.816406 C 185.863281 69.402344 185.863281 69.992188 185.863281 70.601562 C 185.839844 71.300781 186.972656 71.300781 186.972656 70.578125 Z M 186.972656 70.578125 " fill-opacity="1" fill-rule="nonzero"/><path fill="#eeeeee" d="M 237.933594 91.375 L 237.933594 76.992188 L 225.476562 69.789062 L 212.996094 76.992188 L 212.996094 91.375 L 225.476562 98.578125 Z M 237.933594 91.375 " fill-opacity="1" fill-rule="nonzero"/><g clip-path="url(#5223afbd9d)"><path fill="#ffffff" d="M 154.074219 64.4375 L 154.074219 41.179688 L 133.929688 29.550781 L 113.765625 41.179688 L 113.765625 64.4375 L 133.929688 76.042969 Z M 154.074219 64.4375 " fill-opacity="1" fill-rule="nonzero"/></g><path fill="#ffffff" d="M 223.214844 150.242188 L 223.214844 126.984375 L 203.070312 115.355469 L 182.902344 126.984375 L 182.902344 150.242188 L 203.070312 161.847656 Z M 223.214844 150.242188 " fill-opacity="1" fill-rule="nonzero"/><path fill="#eeeeee" d="M 142.027344 95.710938 C 142.027344 93.859375 142.027344 92.007812 142.027344 90.132812 C 142.027344 89.90625 142.046875 89.660156 142.027344 89.433594 C 142.003906 89.027344 141.664062 88.890625 141.371094 88.734375 C 140.441406 88.191406 139.492188 87.648438 138.566406 87.105469 C 137.820312 86.679688 137.050781 86.25 136.304688 85.796875 C 136.125 85.707031 135.921875 85.707031 135.742188 85.796875 C 134.566406 86.476562 133.390625 87.152344 132.214844 87.828125 C 131.625 88.167969 131.039062 88.507812 130.472656 88.847656 C 130.222656 88.980469 130.042969 89.117188 130.019531 89.433594 C 130.019531 89.589844 130.019531 89.75 130.019531 89.90625 C 130.019531 91.53125 130.019531 93.179688 130.019531 94.808594 C 130.019531 95.257812 129.882812 95.9375 130.3125 96.207031 C 130.742188 96.476562 131.21875 96.726562 131.671875 96.996094 C 133.027344 97.789062 134.382812 98.554688 135.742188 99.34375 C 135.921875 99.4375 136.125 99.4375 136.304688 99.34375 C 137.886719 98.417969 139.492188 97.515625 141.074219 96.589844 C 141.300781 96.457031 141.527344 96.320312 141.753906 96.207031 C 142.386719 95.84375 141.820312 94.875 141.1875 95.234375 C 139.605469 96.160156 138 97.066406 136.417969 97.992188 C 136.191406 98.125 135.964844 98.261719 135.742188 98.375 C 135.921875 98.375 136.125 98.375 136.304688 98.375 C 134.722656 97.449219 133.117188 96.546875 131.535156 95.621094 C 131.308594 95.484375 131.082031 95.347656 130.855469 95.234375 C 130.949219 95.394531 131.039062 95.550781 131.128906 95.734375 C 131.128906 93.902344 131.128906 92.074219 131.128906 90.246094 C 131.128906 89.976562 131.128906 89.726562 131.128906 89.457031 C 131.039062 89.613281 130.949219 89.773438 130.855469 89.953125 C 132.441406 89.027344 134.042969 88.125 135.628906 87.199219 C 135.851562 87.0625 136.078125 86.925781 136.304688 86.8125 C 136.125 86.8125 135.921875 86.8125 135.742188 86.8125 C 137.324219 87.738281 138.929688 88.640625 140.511719 89.566406 C 140.738281 89.703125 140.964844 89.839844 141.1875 89.953125 C 141.097656 89.792969 141.007812 89.636719 140.917969 89.457031 C 140.917969 91.285156 140.917969 93.113281 140.917969 94.941406 C 140.917969 95.214844 140.917969 95.460938 140.917969 95.734375 C 140.894531 96.433594 142.027344 96.433594 142.027344 95.710938 Z M 142.027344 95.710938 " fill-opacity="1" fill-rule="nonzero"/><path fill="#eeeeee" d="M 226.039062 114.632812 C 226.039062 112.78125 226.039062 110.929688 226.039062 109.054688 C 226.039062 108.828125 226.0625 108.582031 226.039062 108.355469 C 226.015625 107.949219 225.679688 107.8125 225.382812 107.65625 C 224.457031 107.113281 223.507812 106.570312 222.582031 106.027344 C 221.835938 105.601562 221.066406 105.171875 220.320312 104.71875 C 220.140625 104.628906 219.9375 104.628906 219.753906 104.71875 C 218.578125 105.398438 217.402344 106.074219 216.226562 106.75 C 215.640625 107.089844 215.050781 107.429688 214.488281 107.769531 C 214.238281 107.902344 214.058594 108.039062 214.035156 108.355469 C 214.035156 108.511719 214.035156 108.671875 214.035156 108.828125 C 214.035156 110.453125 214.035156 112.101562 214.035156 113.730469 C 214.035156 114.179688 213.898438 114.859375 214.328125 115.128906 C 214.757812 115.398438 215.234375 115.648438 215.683594 115.917969 C 217.042969 116.710938 218.398438 117.476562 219.753906 118.269531 C 219.9375 118.359375 220.140625 118.359375 220.320312 118.269531 C 221.902344 117.34375 223.507812 116.4375 225.089844 115.511719 C 225.316406 115.378906 225.542969 115.242188 225.769531 115.128906 C 226.402344 114.769531 225.835938 113.796875 225.203125 114.15625 C 223.621094 115.082031 222.015625 115.988281 220.433594 116.914062 C 220.207031 117.046875 219.980469 117.183594 219.753906 117.296875 C 219.9375 117.296875 220.140625 117.296875 220.320312 117.296875 C 218.738281 116.371094 217.132812 115.46875 215.550781 114.542969 C 215.324219 114.40625 215.097656 114.269531 214.871094 114.15625 C 214.960938 114.316406 215.050781 114.472656 215.144531 114.65625 C 215.144531 112.824219 215.144531 110.996094 215.144531 109.167969 C 215.144531 108.898438 215.144531 108.648438 215.144531 108.378906 C 215.050781 108.535156 214.960938 108.695312 214.871094 108.875 C 216.453125 107.949219 218.058594 107.046875 219.640625 106.121094 C 219.867188 105.984375 220.09375 105.847656 220.320312 105.734375 C 220.140625 105.734375 219.9375 105.734375 219.753906 105.734375 C 221.335938 106.660156 222.941406 107.566406 224.523438 108.492188 C 224.75 108.625 224.976562 108.761719 225.203125 108.875 C 225.113281 108.714844 225.023438 108.558594 224.933594 108.378906 C 224.933594 110.207031 224.933594 112.035156 224.933594 113.863281 C 224.933594 114.136719 224.933594 114.382812 224.933594 114.65625 C 224.910156 115.355469 226.039062 115.355469 226.039062 114.632812 Z M 226.039062 114.632812 " fill-opacity="1" fill-rule="nonzero"/><path fill="#eeeeee" d="M 241.550781 78.164062 C 241.550781 76.3125 241.550781 74.460938 241.550781 72.589844 C 241.550781 72.363281 241.574219 72.113281 241.550781 71.886719 C 241.527344 71.480469 241.1875 71.347656 240.894531 71.1875 C 239.96875 70.644531 239.015625 70.105469 238.089844 69.5625 C 237.34375 69.132812 236.574219 68.703125 235.828125 68.253906 C 235.648438 68.164062 235.445312 68.164062 235.265625 68.253906 C 234.089844 68.929688 232.914062 69.609375 231.738281 70.285156 C 231.148438 70.625 230.5625 70.960938 229.996094 71.300781 C 229.746094 71.4375 229.566406 71.570312 229.542969 71.886719 C 229.542969 72.046875 229.542969 72.203125 229.542969 72.363281 C 229.542969 73.988281 229.542969 75.636719 229.542969 77.261719 C 229.542969 77.714844 229.410156 78.390625 229.839844 78.660156 C 230.269531 78.933594 230.742188 79.179688 231.195312 79.453125 C 232.550781 80.242188 233.90625 81.011719 235.265625 81.800781 C 235.445312 81.890625 235.648438 81.890625 235.828125 81.800781 C 237.414062 80.875 239.015625 79.972656 240.601562 79.046875 C 240.828125 78.910156 241.050781 78.773438 241.277344 78.660156 C 241.910156 78.300781 241.347656 77.328125 240.714844 77.691406 C 239.128906 78.617188 237.546875 79.519531 235.941406 80.445312 C 235.714844 80.582031 235.492188 80.71875 235.265625 80.828125 C 235.445312 80.828125 235.648438 80.828125 235.828125 80.828125 C 234.246094 79.902344 232.640625 79 231.058594 78.074219 C 230.832031 77.941406 230.605469 77.804688 230.382812 77.691406 C 230.472656 77.847656 230.5625 78.007812 230.652344 78.1875 C 230.652344 76.359375 230.652344 74.53125 230.652344 72.699219 C 230.652344 72.429688 230.652344 72.179688 230.652344 71.910156 C 230.5625 72.070312 230.472656 72.226562 230.382812 72.40625 C 231.964844 71.480469 233.570312 70.578125 235.152344 69.652344 C 235.378906 69.515625 235.605469 69.382812 235.828125 69.269531 C 235.648438 69.269531 235.445312 69.269531 235.265625 69.269531 C 236.847656 70.195312 238.453125 71.097656 240.035156 72.023438 C 240.261719 72.160156 240.488281 72.292969 240.714844 72.40625 C 240.621094 72.25 240.53125 72.089844 240.441406 71.910156 C 240.441406 73.738281 240.441406 75.570312 240.441406 77.398438 C 240.441406 77.667969 240.441406 77.917969 240.441406 78.1875 C 240.417969 78.886719 241.550781 78.886719 241.550781 78.164062 Z M 241.550781 78.164062 " fill-opacity="1" fill-rule="nonzero"/><path fill="#ffffff" d="M 177.859375 144.03125 C 177.859375 142.179688 177.859375 140.351562 177.859375 138.5 C 177.859375 135.585938 177.859375 132.695312 177.859375 129.785156 C 177.859375 129.152344 177.882812 128.519531 177.859375 127.886719 C 177.839844 127.546875 177.632812 127.414062 177.386719 127.277344 C 177.09375 127.117188 176.820312 126.9375 176.527344 126.78125 C 174.109375 125.402344 171.710938 124.003906 169.292969 122.625 C 167.414062 121.542969 165.539062 120.433594 163.640625 119.375 C 163.617188 119.351562 163.570312 119.328125 163.550781 119.328125 C 163.367188 119.238281 163.164062 119.238281 162.984375 119.328125 C 161.378906 120.253906 159.796875 121.179688 158.191406 122.082031 C 155.679688 123.527344 153.148438 124.996094 150.640625 126.441406 C 150.097656 126.757812 149.507812 127.050781 148.988281 127.390625 C 148.695312 127.570312 148.695312 127.820312 148.695312 128.113281 C 148.695312 128.453125 148.695312 128.765625 148.695312 129.105469 C 148.695312 131.882812 148.695312 134.660156 148.695312 137.4375 C 148.695312 139.605469 148.671875 141.773438 148.695312 143.941406 C 148.695312 143.988281 148.695312 144.007812 148.695312 144.054688 C 148.695312 144.257812 148.808594 144.4375 148.964844 144.550781 C 150.570312 145.476562 152.15625 146.402344 153.757812 147.304688 C 156.269531 148.75 158.800781 150.21875 161.3125 151.664062 C 161.855469 151.980469 162.394531 152.320312 162.960938 152.613281 C 163.277344 152.769531 163.480469 152.65625 163.753906 152.5 C 164.046875 152.339844 164.316406 152.160156 164.613281 152.003906 C 167.03125 150.625 169.425781 149.226562 171.847656 147.847656 C 173.722656 146.765625 175.621094 145.703125 177.5 144.597656 C 177.523438 144.574219 177.566406 144.550781 177.589844 144.550781 C 178.222656 144.191406 177.65625 143.21875 177.023438 143.578125 C 175.441406 144.484375 173.859375 145.410156 172.277344 146.3125 C 169.765625 147.757812 167.234375 149.226562 164.726562 150.671875 C 164.160156 151.007812 163.570312 151.324219 163.007812 151.664062 C 163.1875 151.664062 163.390625 151.664062 163.570312 151.664062 C 161.988281 150.761719 160.40625 149.835938 158.824219 148.929688 C 156.3125 147.488281 153.78125 146.019531 151.273438 144.574219 C 150.707031 144.234375 150.121094 143.917969 149.554688 143.578125 C 149.644531 143.738281 149.734375 143.894531 149.824219 144.078125 C 149.824219 142.246094 149.824219 140.417969 149.824219 138.613281 C 149.824219 135.699219 149.824219 132.808594 149.824219 129.894531 C 149.824219 129.242188 149.824219 128.585938 149.824219 127.910156 C 149.734375 128.066406 149.644531 128.226562 149.554688 128.40625 C 151.136719 127.503906 152.71875 126.578125 154.300781 125.675781 C 156.8125 124.230469 159.34375 122.761719 161.855469 121.316406 C 162.417969 120.976562 163.007812 120.660156 163.570312 120.324219 C 163.390625 120.324219 163.1875 120.324219 163.007812 120.324219 C 164.589844 121.226562 166.171875 122.152344 167.753906 123.054688 C 170.265625 124.5 172.796875 125.96875 175.304688 127.414062 C 175.871094 127.75 176.457031 128.066406 177.023438 128.40625 C 176.933594 128.25 176.84375 128.089844 176.753906 127.910156 C 176.753906 129.738281 176.753906 131.566406 176.753906 133.375 C 176.753906 136.285156 176.753906 139.175781 176.753906 142.089844 C 176.753906 142.746094 176.753906 143.398438 176.753906 144.078125 C 176.730469 144.753906 177.859375 144.753906 177.859375 144.03125 Z M 177.859375 144.03125 " fill-opacity="1" fill-rule="nonzero"/><path fill="#ffffff" d="M 168.726562 96.75 L 168.726562 88.371094 L 161.46875 84.195312 L 154.1875 88.371094 L 154.1875 96.75 L 161.46875 100.925781 Z M 168.726562 96.75 " fill-opacity="1" fill-rule="nonzero"/><path fill="#eeeeee" d="M 206.300781 59.199219 L 206.300781 50.820312 L 199.023438 46.644531 L 191.765625 50.820312 L 191.765625 59.199219 L 199.023438 63.398438 Z M 206.300781 59.199219 " fill-opacity="1" fill-rule="nonzero"/><g clip-path="url(#9cb83681e7)"><path fill="#eeeeee" d="M 261.0625 135.632812 C 261.0625 134.007812 261.0625 132.378906 261.0625 130.777344 C 261.0625 128.203125 261.0625 125.605469 261.0625 123.03125 C 261.0625 122.445312 261.0625 121.859375 261.0625 121.25 C 261.0625 121.046875 260.949219 120.863281 260.789062 120.75 C 259.367188 119.9375 257.941406 119.101562 256.515625 118.289062 C 254.277344 117.003906 252.019531 115.695312 249.78125 114.40625 C 249.304688 114.136719 248.808594 113.820312 248.308594 113.570312 C 247.835938 113.324219 247.203125 113.863281 246.796875 114.089844 C 244.667969 115.332031 242.523438 116.550781 240.398438 117.792969 C 238.699219 118.765625 237.003906 119.710938 235.332031 120.707031 C 235.308594 120.730469 235.285156 120.730469 235.242188 120.75 C 235.0625 120.84375 234.96875 121.046875 234.96875 121.25 C 234.96875 122.875 234.96875 124.5 234.96875 126.101562 C 234.96875 128.675781 234.96875 131.273438 234.96875 133.847656 C 234.96875 134.433594 234.96875 135.023438 234.96875 135.632812 C 234.96875 135.835938 235.082031 136.015625 235.242188 136.128906 C 236.667969 136.941406 238.089844 137.777344 239.515625 138.589844 C 241.753906 139.875 244.015625 141.1875 246.253906 142.472656 C 246.726562 142.746094 247.222656 143.0625 247.722656 143.308594 C 248.195312 143.558594 248.828125 143.015625 249.238281 142.789062 C 251.363281 141.546875 253.511719 140.328125 255.636719 139.085938 C 257.332031 138.117188 259.027344 137.167969 260.699219 136.171875 C 260.722656 136.152344 260.746094 136.152344 260.789062 136.128906 C 261.421875 135.765625 260.859375 134.796875 260.226562 135.15625 C 258.824219 135.96875 257.421875 136.785156 255.996094 137.597656 C 253.757812 138.882812 251.519531 140.171875 249.28125 141.480469 C 248.761719 141.773438 248.265625 142.066406 247.746094 142.359375 C 247.925781 142.359375 248.128906 142.359375 248.308594 142.359375 C 246.90625 141.546875 245.507812 140.734375 244.082031 139.921875 C 241.84375 138.636719 239.605469 137.347656 237.367188 136.039062 C 236.847656 135.746094 236.351562 135.453125 235.828125 135.15625 C 235.921875 135.316406 236.011719 135.472656 236.101562 135.65625 C 236.101562 134.027344 236.101562 132.402344 236.101562 130.800781 C 236.101562 128.226562 236.101562 125.628906 236.101562 123.054688 C 236.101562 122.46875 236.101562 121.878906 236.101562 121.269531 C 236.011719 121.429688 235.921875 121.585938 235.828125 121.769531 C 237.230469 120.953125 238.632812 120.140625 240.058594 119.328125 C 242.296875 118.042969 244.535156 116.753906 246.773438 115.445312 C 247.292969 115.152344 247.789062 114.859375 248.308594 114.566406 C 248.128906 114.566406 247.925781 114.566406 247.746094 114.566406 C 249.144531 115.378906 250.546875 116.191406 251.972656 117.003906 C 254.210938 118.289062 256.449219 119.578125 258.6875 120.886719 C 259.207031 121.179688 259.703125 121.472656 260.226562 121.769531 C 260.132812 121.609375 260.042969 121.453125 259.953125 121.269531 C 259.953125 122.898438 259.953125 124.523438 259.953125 126.125 C 259.953125 128.699219 259.953125 131.296875 259.953125 133.871094 C 259.953125 134.457031 259.953125 135.042969 259.953125 135.65625 C 259.929688 136.355469 261.0625 136.355469 261.0625 135.632812 Z M 261.0625 135.632812 " fill-opacity="1" fill-rule="nonzero"/></g><g clip-path="url(#56607fe88d)"><path fill="#eeeeee" d="M 138.726562 126.984375 L 138.726562 112.601562 L 126.246094 105.398438 L 113.765625 112.601562 L 113.765625 126.984375 L 126.246094 134.164062 Z M 138.726562 126.984375 " fill-opacity="1" fill-rule="nonzero"/></g><path fill="#eeeeee" d="M 176.886719 69.652344 C 176.886719 68.886719 176.886719 68.09375 176.886719 67.328125 C 176.886719 65.476562 176.886719 63.601562 176.886719 61.75 C 176.886719 59.515625 176.886719 57.257812 176.886719 55.019531 C 176.886719 53.078125 176.886719 51.160156 176.886719 49.21875 C 176.886719 48.292969 176.933594 47.367188 176.886719 46.441406 C 176.867188 46.035156 176.59375 45.921875 176.324219 45.761719 C 175.917969 45.515625 175.488281 45.289062 175.078125 45.039062 C 173.566406 44.160156 172.050781 43.277344 170.511719 42.421875 C 168.570312 41.316406 166.648438 40.183594 164.703125 39.078125 C 162.960938 38.0625 161.199219 37.070312 159.457031 36.054688 C 158.507812 35.511719 157.535156 34.945312 156.585938 34.40625 C 156.539062 34.382812 156.496094 34.359375 156.449219 34.335938 C 156.269531 34.246094 156.066406 34.246094 155.886719 34.335938 C 155.230469 34.722656 154.550781 35.105469 153.894531 35.488281 C 152.289062 36.414062 150.683594 37.339844 149.078125 38.265625 C 147.136719 39.394531 145.191406 40.5 143.246094 41.628906 C 141.574219 42.601562 139.898438 43.574219 138.226562 44.519531 C 137.414062 44.996094 136.578125 45.425781 135.785156 45.921875 C 135.761719 45.921875 135.761719 45.945312 135.742188 45.945312 C 135.558594 46.035156 135.46875 46.238281 135.46875 46.441406 C 135.46875 47.207031 135.46875 48 135.46875 48.765625 C 135.46875 50.617188 135.46875 52.492188 135.46875 54.34375 C 135.46875 56.578125 135.46875 58.835938 135.46875 61.070312 C 135.46875 63.015625 135.46875 64.933594 135.46875 66.875 C 135.46875 67.800781 135.421875 68.726562 135.46875 69.652344 C 135.492188 70.058594 135.761719 70.171875 136.035156 70.328125 C 136.441406 70.578125 136.871094 70.804688 137.277344 71.050781 C 138.792969 71.933594 140.308594 72.8125 141.84375 73.671875 C 143.789062 74.777344 145.710938 75.90625 147.65625 77.015625 C 149.394531 78.03125 151.160156 79.023438 152.902344 80.039062 C 153.851562 80.582031 154.820312 81.144531 155.773438 81.6875 C 155.816406 81.710938 155.863281 81.734375 155.90625 81.753906 C 156.089844 81.847656 156.292969 81.847656 156.472656 81.753906 C 157.128906 81.371094 157.804688 80.988281 158.460938 80.605469 C 160.066406 79.679688 161.671875 78.753906 163.277344 77.828125 C 165.222656 76.699219 167.167969 75.589844 169.109375 74.460938 C 170.785156 73.492188 172.457031 72.519531 174.128906 71.570312 C 174.945312 71.097656 175.78125 70.667969 176.570312 70.171875 C 176.59375 70.171875 176.59375 70.148438 176.617188 70.148438 C 177.25 69.789062 176.683594 68.816406 176.050781 69.179688 C 175.394531 69.5625 174.71875 69.945312 174.0625 70.328125 C 172.457031 71.253906 170.851562 72.179688 169.246094 73.105469 C 167.300781 74.238281 165.359375 75.34375 163.414062 76.472656 C 161.742188 77.441406 160.066406 78.414062 158.394531 79.363281 C 157.828125 79.679688 157.285156 79.996094 156.722656 80.308594 C 156.472656 80.46875 156.179688 80.582031 155.929688 80.761719 C 155.929688 80.761719 155.90625 80.785156 155.886719 80.785156 C 156.066406 80.785156 156.269531 80.785156 156.449219 80.785156 C 155.792969 80.402344 155.117188 80.015625 154.460938 79.632812 C 152.855469 78.707031 151.25 77.78125 149.644531 76.855469 C 147.699219 75.726562 145.757812 74.621094 143.8125 73.492188 C 142.136719 72.519531 140.464844 71.550781 138.792969 70.601562 C 138.226562 70.285156 137.683594 69.96875 137.121094 69.652344 C 136.871094 69.496094 136.597656 69.335938 136.328125 69.199219 C 136.304688 69.199219 136.304688 69.179688 136.28125 69.179688 C 136.375 69.335938 136.464844 69.496094 136.554688 69.675781 C 136.554688 68.90625 136.554688 68.140625 136.554688 67.371094 C 136.554688 65.519531 136.554688 63.667969 136.554688 61.839844 C 136.554688 59.605469 136.554688 57.347656 136.554688 55.109375 C 136.554688 53.167969 136.554688 51.25 136.554688 49.308594 C 136.554688 48.675781 136.554688 48.019531 136.554688 47.386719 C 136.554688 47.09375 136.578125 46.777344 136.554688 46.484375 C 136.554688 46.460938 136.554688 46.460938 136.554688 46.441406 C 136.464844 46.597656 136.375 46.757812 136.28125 46.9375 C 136.9375 46.554688 137.617188 46.167969 138.273438 45.785156 C 139.878906 44.859375 141.484375 43.933594 143.089844 43.007812 C 145.03125 41.878906 146.976562 40.773438 148.921875 39.644531 C 150.59375 38.671875 152.265625 37.703125 153.941406 36.753906 C 154.503906 36.4375 155.046875 36.121094 155.613281 35.804688 C 155.863281 35.648438 156.15625 35.535156 156.40625 35.351562 C 156.40625 35.351562 156.425781 35.332031 156.449219 35.332031 C 156.269531 35.332031 156.066406 35.332031 155.886719 35.332031 C 156.539062 35.714844 157.21875 36.097656 157.875 36.480469 C 159.480469 37.40625 161.085938 38.332031 162.691406 39.257812 C 164.632812 40.390625 166.578125 41.496094 168.523438 42.625 C 170.195312 43.59375 171.871094 44.566406 173.542969 45.515625 C 174.109375 45.832031 174.648438 46.148438 175.214844 46.460938 C 175.464844 46.621094 175.734375 46.777344 176.007812 46.914062 C 176.03125 46.914062 176.03125 46.9375 176.050781 46.9375 C 175.960938 46.777344 175.871094 46.621094 175.78125 46.441406 C 175.78125 47.207031 175.78125 47.976562 175.78125 48.742188 C 175.78125 50.59375 175.78125 52.445312 175.78125 54.277344 C 175.78125 56.511719 175.78125 58.769531 175.78125 61.003906 C 175.78125 62.945312 175.78125 64.867188 175.78125 66.808594 C 175.78125 67.753906 175.734375 68.679688 175.78125 69.628906 C 175.78125 69.652344 175.78125 69.652344 175.78125 69.675781 C 175.757812 70.375 176.886719 70.375 176.886719 69.652344 Z M 176.886719 69.652344 " fill-opacity="1" fill-rule="nonzero"/><g clip-path="url(#33866d7dca)"><path fill="#eeeeee" d="M 231.851562 164.875 C 231.851562 164.105469 231.851562 163.316406 231.851562 162.546875 C 231.851562 160.695312 231.851562 158.820312 231.851562 156.96875 C 231.851562 154.734375 231.851562 152.476562 231.851562 150.242188 C 231.851562 148.300781 231.851562 146.378906 231.851562 144.4375 C 231.851562 143.511719 231.894531 142.585938 231.851562 141.660156 C 231.828125 141.253906 231.558594 141.140625 231.285156 140.984375 C 230.878906 140.734375 230.449219 140.507812 230.042969 140.261719 C 228.527344 139.378906 227.011719 138.5 225.476562 137.640625 C 223.53125 136.535156 221.609375 135.40625 219.664062 134.300781 C 217.921875 133.285156 216.160156 132.289062 214.417969 131.273438 C 213.46875 130.730469 212.496094 130.167969 211.546875 129.625 C 211.503906 129.601562 211.457031 129.582031 211.414062 129.558594 C 211.230469 129.46875 211.027344 129.46875 210.847656 129.558594 C 209.445312 130.371094 208.042969 131.183594 206.640625 131.996094 C 203.792969 133.644531 200.96875 135.269531 198.117188 136.917969 C 195.902344 138.207031 193.6875 139.46875 191.449219 140.757812 C 191.0625 140.984375 190.429688 141.210938 190.410156 141.726562 C 190.386719 142.316406 190.410156 142.902344 190.410156 143.46875 C 190.410156 146.335938 190.410156 149.203125 190.410156 152.070312 C 190.410156 155.230469 190.410156 158.371094 190.410156 161.53125 C 190.410156 162.480469 190.410156 163.40625 190.410156 164.355469 C 190.410156 164.535156 190.410156 164.714844 190.410156 164.894531 C 190.429688 165.1875 190.589844 165.347656 190.816406 165.484375 C 192.578125 166.5 194.320312 167.515625 196.082031 168.53125 C 198.953125 170.203125 201.847656 171.851562 204.71875 173.519531 C 206.664062 174.648438 208.609375 175.757812 210.554688 176.886719 C 210.644531 176.929688 210.757812 177 210.847656 177.042969 C 211.027344 177.132812 211.230469 177.132812 211.414062 177.042969 C 212.066406 176.660156 212.746094 176.277344 213.402344 175.890625 C 215.007812 174.964844 216.613281 174.039062 218.21875 173.113281 C 220.160156 171.984375 222.105469 170.878906 224.050781 169.75 C 225.722656 168.78125 227.398438 167.808594 229.070312 166.859375 C 229.882812 166.386719 230.71875 165.957031 231.511719 165.460938 C 231.535156 165.460938 231.535156 165.4375 231.554688 165.4375 C 232.191406 165.078125 231.625 164.105469 230.992188 164.464844 C 230.335938 164.851562 229.65625 165.234375 229 165.617188 C 227.398438 166.542969 225.792969 167.46875 224.1875 168.394531 C 222.242188 169.523438 220.296875 170.632812 218.351562 171.761719 C 216.679688 172.730469 215.007812 173.703125 213.332031 174.648438 C 212.769531 174.964844 212.226562 175.28125 211.660156 175.597656 C 211.414062 175.757812 211.117188 175.871094 210.871094 176.050781 C 210.871094 176.050781 210.847656 176.074219 210.824219 176.074219 C 211.003906 176.074219 211.207031 176.074219 211.390625 176.074219 C 210.734375 175.6875 210.054688 175.304688 209.398438 174.921875 C 207.792969 173.996094 206.191406 173.070312 204.585938 172.144531 C 202.640625 171.015625 200.695312 169.910156 198.75 168.78125 C 197.078125 167.808594 195.40625 166.835938 193.730469 165.890625 C 193.167969 165.574219 192.625 165.257812 192.058594 164.941406 C 191.808594 164.78125 191.539062 164.625 191.269531 164.488281 C 191.246094 164.488281 191.246094 164.464844 191.222656 164.464844 C 191.3125 164.625 191.402344 164.78125 191.492188 164.964844 C 191.492188 164.195312 191.492188 163.429688 191.492188 162.660156 C 191.492188 160.808594 191.492188 158.957031 191.492188 157.128906 C 191.492188 154.894531 191.492188 152.632812 191.492188 150.398438 C 191.492188 148.457031 191.492188 146.539062 191.492188 144.597656 C 191.492188 143.964844 191.492188 143.308594 191.492188 142.675781 C 191.492188 142.382812 191.515625 142.066406 191.492188 141.773438 C 191.492188 141.75 191.492188 141.75 191.492188 141.726562 C 191.402344 141.886719 191.3125 142.042969 191.222656 142.226562 C 191.878906 141.839844 192.554688 141.457031 193.210938 141.074219 C 194.816406 140.148438 196.421875 139.222656 198.027344 138.296875 C 199.972656 137.167969 201.917969 136.0625 203.859375 134.933594 C 205.535156 133.960938 207.207031 132.988281 208.878906 132.042969 C 209.445312 131.726562 209.988281 131.410156 210.554688 131.09375 C 210.800781 130.933594 211.09375 130.820312 211.34375 130.640625 C 211.34375 130.640625 211.367188 130.617188 211.390625 130.617188 C 211.207031 130.617188 211.003906 130.617188 210.824219 130.617188 C 211.480469 131.003906 212.160156 131.386719 212.8125 131.769531 C 214.417969 132.695312 216.023438 133.621094 217.628906 134.546875 C 219.574219 135.675781 221.519531 136.785156 223.460938 137.914062 C 225.136719 138.882812 226.808594 139.855469 228.480469 140.800781 C 229.046875 141.117188 229.589844 141.433594 230.15625 141.75 C 230.402344 141.910156 230.675781 142.066406 230.945312 142.203125 C 230.96875 142.203125 230.96875 142.226562 230.992188 142.226562 C 230.902344 142.066406 230.808594 141.910156 230.71875 141.726562 C 230.71875 142.496094 230.71875 143.265625 230.71875 144.03125 C 230.71875 145.882812 230.71875 147.734375 230.71875 149.5625 C 230.71875 151.800781 230.71875 154.058594 230.71875 156.292969 C 230.71875 158.234375 230.71875 160.152344 230.71875 162.097656 C 230.71875 163.042969 230.675781 163.96875 230.71875 164.917969 C 230.71875 164.941406 230.71875 164.941406 230.71875 164.964844 C 230.71875 165.59375 231.851562 165.59375 231.851562 164.875 Z M 231.851562 164.875 " fill-opacity="1" fill-rule="nonzero"/></g><path fill="#eeeeee" d="M 174.671875 116.574219 C 174.671875 114.722656 174.671875 112.871094 174.671875 110.996094 C 174.671875 110.769531 174.695312 110.523438 174.671875 110.296875 C 174.648438 109.890625 174.3125 109.753906 174.015625 109.597656 C 173.089844 109.054688 172.140625 108.511719 171.214844 107.972656 C 170.46875 107.542969 169.699219 107.113281 168.953125 106.660156 C 168.773438 106.570312 168.570312 106.570312 168.386719 106.660156 C 167.210938 107.339844 166.035156 108.015625 164.859375 108.695312 C 164.273438 109.03125 163.683594 109.371094 163.121094 109.710938 C 162.871094 109.84375 162.691406 109.980469 162.667969 110.296875 C 162.667969 110.453125 162.667969 110.613281 162.667969 110.769531 C 162.667969 112.398438 162.667969 114.046875 162.667969 115.671875 C 162.667969 116.121094 162.53125 116.800781 162.960938 117.070312 C 163.390625 117.34375 163.867188 117.589844 164.316406 117.859375 C 165.675781 118.652344 167.03125 119.417969 168.386719 120.210938 C 168.570312 120.300781 168.773438 120.300781 168.953125 120.210938 C 170.535156 119.285156 172.140625 118.378906 173.722656 117.453125 C 173.949219 117.320312 174.175781 117.183594 174.402344 117.070312 C 175.035156 116.710938 174.46875 115.738281 173.835938 116.101562 C 172.253906 117.027344 170.648438 117.929688 169.066406 118.855469 C 168.839844 118.992188 168.613281 119.125 168.386719 119.238281 C 168.570312 119.238281 168.773438 119.238281 168.953125 119.238281 C 167.371094 118.3125 165.765625 117.410156 164.183594 116.484375 C 163.957031 116.347656 163.730469 116.210938 163.503906 116.101562 C 163.59375 116.257812 163.683594 116.417969 163.773438 116.597656 C 163.773438 114.769531 163.773438 112.9375 163.773438 111.109375 C 163.773438 110.839844 163.773438 110.589844 163.773438 110.320312 C 163.683594 110.476562 163.59375 110.636719 163.503906 110.816406 C 165.085938 109.890625 166.691406 108.988281 168.273438 108.0625 C 168.5 107.925781 168.726562 107.789062 168.953125 107.675781 C 168.773438 107.675781 168.570312 107.675781 168.386719 107.675781 C 169.96875 108.601562 171.574219 109.507812 173.15625 110.433594 C 173.382812 110.566406 173.609375 110.703125 173.835938 110.816406 C 173.746094 110.65625 173.65625 110.5 173.566406 110.320312 C 173.566406 112.148438 173.566406 113.976562 173.566406 115.804688 C 173.566406 116.078125 173.566406 116.324219 173.566406 116.597656 C 173.542969 117.296875 174.671875 117.296875 174.671875 116.574219 Z M 174.671875 116.574219 " fill-opacity="1" fill-rule="nonzero"/><path fill="#eeeeee" d="M 190.726562 93.046875 C 190.726562 90.605469 190.726562 88.144531 190.726562 85.707031 C 190.726562 85.367188 190.726562 85.007812 190.726562 84.667969 C 190.726562 84.464844 190.613281 84.285156 190.453125 84.171875 C 188.304688 82.929688 186.15625 81.710938 184.03125 80.46875 C 183.761719 80.308594 183.492188 80.128906 183.195312 79.996094 C 182.8125 79.792969 182.425781 80.105469 182.109375 80.289062 C 180.867188 81.011719 179.625 81.710938 178.378906 82.433594 C 177.363281 83.019531 176.367188 83.585938 175.351562 84.171875 C 175.171875 84.261719 175.078125 84.464844 175.078125 84.667969 C 175.078125 87.105469 175.078125 89.566406 175.078125 92.007812 C 175.078125 92.34375 175.078125 92.707031 175.078125 93.046875 C 175.078125 93.25 175.191406 93.429688 175.351562 93.542969 C 177.5 94.785156 179.648438 96.003906 181.773438 97.246094 C 182.042969 97.402344 182.316406 97.585938 182.609375 97.71875 C 182.992188 97.921875 183.378906 97.605469 183.695312 97.425781 C 184.9375 96.703125 186.179688 96.003906 187.425781 95.28125 C 188.441406 94.695312 189.4375 94.128906 190.453125 93.542969 C 191.085938 93.179688 190.523438 92.210938 189.886719 92.570312 C 187.761719 93.789062 185.636719 95.011719 183.511719 96.253906 C 183.21875 96.433594 182.925781 96.589844 182.609375 96.769531 C 182.789062 96.769531 182.992188 96.769531 183.171875 96.769531 C 181.046875 95.550781 178.921875 94.332031 176.796875 93.089844 C 176.503906 92.910156 176.210938 92.753906 175.894531 92.570312 C 175.984375 92.730469 176.074219 92.886719 176.164062 93.066406 C 176.164062 90.628906 176.164062 88.167969 176.164062 85.730469 C 176.164062 85.390625 176.164062 85.03125 176.164062 84.691406 C 176.074219 84.847656 175.984375 85.007812 175.894531 85.1875 C 178.019531 83.96875 180.144531 82.75 182.269531 81.507812 C 182.5625 81.328125 182.855469 81.167969 183.171875 80.988281 C 182.992188 80.988281 182.789062 80.988281 182.609375 80.988281 C 184.734375 82.207031 186.859375 83.425781 188.984375 84.667969 C 189.277344 84.847656 189.570312 85.007812 189.886719 85.1875 C 189.796875 85.03125 189.707031 84.871094 189.617188 84.691406 C 189.617188 87.128906 189.617188 89.589844 189.617188 92.03125 C 189.617188 92.367188 189.617188 92.730469 189.617188 93.066406 C 189.59375 93.769531 190.726562 93.769531 190.726562 93.046875 Z M 190.726562 93.046875 " fill-opacity="1" fill-rule="nonzero"/><path fill="#ffffff" d="M 229.09375 64.4375 C 229.09375 61.996094 229.09375 59.535156 229.09375 57.097656 C 229.09375 56.757812 229.09375 56.398438 229.09375 56.058594 C 229.09375 55.855469 228.980469 55.675781 228.820312 55.5625 C 226.671875 54.320312 224.523438 53.101562 222.398438 51.859375 C 222.128906 51.703125 221.859375 51.519531 221.5625 51.386719 C 221.179688 51.183594 220.792969 51.5 220.476562 51.679688 C 219.234375 52.402344 217.992188 53.101562 216.746094 53.824219 C 215.730469 54.410156 214.734375 54.976562 213.71875 55.5625 C 213.539062 55.652344 213.445312 55.855469 213.445312 56.058594 C 213.445312 58.496094 213.445312 60.960938 213.445312 63.398438 C 213.445312 63.738281 213.445312 64.097656 213.445312 64.4375 C 213.445312 64.640625 213.558594 64.820312 213.71875 64.933594 C 215.867188 66.175781 218.015625 67.394531 220.140625 68.636719 C 220.410156 68.792969 220.683594 68.976562 220.976562 69.109375 C 221.359375 69.3125 221.746094 68.996094 222.0625 68.816406 C 223.304688 68.09375 224.546875 67.394531 225.792969 66.671875 C 226.808594 66.085938 227.804688 65.519531 228.820312 64.933594 C 229.453125 64.570312 228.890625 63.601562 228.253906 63.960938 C 226.128906 65.183594 224.003906 66.402344 221.878906 67.644531 C 221.585938 67.824219 221.292969 67.980469 220.976562 68.164062 C 221.15625 68.164062 221.359375 68.164062 221.539062 68.164062 C 219.414062 66.941406 217.289062 65.722656 215.164062 64.480469 C 214.871094 64.300781 214.578125 64.144531 214.261719 63.960938 C 214.351562 64.121094 214.441406 64.277344 214.53125 64.460938 C 214.53125 62.019531 214.53125 59.558594 214.53125 57.121094 C 214.53125 56.78125 214.53125 56.421875 214.53125 56.082031 C 214.441406 56.238281 214.351562 56.398438 214.261719 56.578125 C 216.386719 55.359375 218.511719 54.140625 220.636719 52.898438 C 220.929688 52.71875 221.222656 52.558594 221.539062 52.378906 C 221.359375 52.378906 221.15625 52.378906 220.976562 52.378906 C 223.101562 53.597656 225.226562 54.816406 227.351562 56.058594 C 227.644531 56.238281 227.9375 56.398438 228.253906 56.578125 C 228.164062 56.421875 228.074219 56.261719 227.984375 56.082031 C 227.984375 58.519531 227.984375 60.980469 227.984375 63.421875 C 227.984375 63.757812 227.984375 64.121094 227.984375 64.460938 C 227.960938 65.160156 229.09375 65.160156 229.09375 64.4375 Z M 229.09375 64.4375 " fill-opacity="1" fill-rule="nonzero"/><path fill="#ffffff" d="M 252.742188 103.816406 C 252.742188 102.191406 252.742188 100.566406 252.742188 98.960938 C 252.742188 96.386719 252.742188 93.789062 252.742188 91.214844 C 252.742188 90.628906 252.742188 90.042969 252.742188 89.433594 C 252.742188 89.230469 252.628906 89.050781 252.46875 88.9375 C 251.046875 88.125 249.621094 87.289062 248.195312 86.476562 C 245.957031 85.1875 243.699219 83.878906 241.460938 82.589844 C 240.984375 82.320312 240.488281 82.003906 239.988281 81.753906 C 239.515625 81.507812 238.882812 82.050781 238.476562 82.273438 C 236.351562 83.515625 234.203125 84.734375 232.078125 85.976562 C 230.382812 86.949219 228.683594 87.898438 227.011719 88.890625 C 226.988281 88.914062 226.96875 88.914062 226.921875 88.9375 C 226.742188 89.027344 226.652344 89.230469 226.652344 89.433594 C 226.652344 91.058594 226.652344 92.683594 226.652344 94.289062 C 226.652344 96.863281 226.652344 99.457031 226.652344 102.03125 C 226.652344 102.621094 226.652344 103.207031 226.652344 103.816406 C 226.652344 104.019531 226.761719 104.199219 226.921875 104.3125 C 228.347656 105.125 229.769531 105.960938 231.195312 106.773438 C 233.433594 108.0625 235.695312 109.371094 237.933594 110.65625 C 238.40625 110.929688 238.90625 111.246094 239.402344 111.492188 C 239.875 111.742188 240.511719 111.199219 240.917969 110.972656 C 243.042969 109.730469 245.191406 108.511719 247.316406 107.269531 C 249.011719 106.300781 250.707031 105.351562 252.378906 104.359375 C 252.402344 104.335938 252.425781 104.335938 252.46875 104.3125 C 253.101562 103.953125 252.539062 102.980469 251.90625 103.34375 C 250.503906 104.15625 249.101562 104.96875 247.675781 105.78125 C 245.4375 107.066406 243.199219 108.355469 240.960938 109.664062 C 240.441406 109.957031 239.945312 110.25 239.425781 110.546875 C 239.605469 110.546875 239.808594 110.546875 239.988281 110.546875 C 238.589844 109.730469 237.1875 108.917969 235.761719 108.105469 C 233.523438 106.820312 231.285156 105.53125 229.046875 104.222656 C 228.527344 103.929688 228.03125 103.636719 227.507812 103.34375 C 227.601562 103.5 227.691406 103.660156 227.78125 103.839844 C 227.78125 102.214844 227.78125 100.585938 227.78125 98.984375 C 227.78125 96.410156 227.78125 93.8125 227.78125 91.238281 C 227.78125 90.652344 227.78125 90.066406 227.78125 89.457031 C 227.691406 89.613281 227.601562 89.773438 227.507812 89.953125 C 228.910156 89.140625 230.3125 88.328125 231.738281 87.511719 C 233.976562 86.226562 236.214844 84.9375 238.453125 83.628906 C 238.972656 83.335938 239.46875 83.042969 239.988281 82.75 C 239.808594 82.75 239.605469 82.75 239.425781 82.75 C 240.828125 83.5625 242.226562 84.375 243.652344 85.1875 C 245.890625 86.476562 248.128906 87.761719 250.367188 89.070312 C 250.886719 89.363281 251.382812 89.660156 251.90625 89.953125 C 251.8125 89.792969 251.722656 89.636719 251.632812 89.457031 C 251.632812 91.082031 251.632812 92.707031 251.632812 94.308594 C 251.632812 96.882812 251.632812 99.480469 251.632812 102.054688 C 251.632812 102.640625 251.632812 103.230469 251.632812 103.839844 C 251.609375 104.539062 252.742188 104.539062 252.742188 103.816406 Z M 252.742188 103.816406 " fill-opacity="1" fill-rule="nonzero"/><path fill="#ffffff" d="M 154.980469 121.226562 C 154.980469 119.601562 154.980469 117.972656 154.980469 116.371094 C 154.980469 113.796875 154.980469 111.199219 154.980469 108.625 C 154.980469 108.039062 154.980469 107.453125 154.980469 106.84375 C 154.980469 106.640625 154.867188 106.457031 154.710938 106.34375 C 153.308594 105.53125 151.90625 104.71875 150.480469 103.90625 C 148.242188 102.621094 146.003906 101.332031 143.765625 100.023438 C 143.246094 99.730469 142.75 99.4375 142.230469 99.140625 C 142.046875 99.050781 141.84375 99.050781 141.664062 99.140625 C 140.78125 99.640625 139.921875 100.160156 139.042969 100.65625 C 137.277344 101.671875 135.515625 102.6875 133.75 103.703125 C 132.371094 104.492188 131.015625 105.285156 129.636719 106.074219 C 129.320312 106.253906 128.914062 106.414062 128.890625 106.84375 C 128.867188 107.203125 128.890625 107.566406 128.890625 107.925781 C 128.890625 109.710938 128.890625 111.472656 128.890625 113.253906 C 128.890625 115.195312 128.890625 117.140625 128.890625 119.101562 C 128.890625 119.691406 128.890625 120.277344 128.890625 120.863281 C 128.890625 121.226562 128.890625 121.519531 129.230469 121.746094 C 130.292969 122.398438 131.398438 122.988281 132.484375 123.621094 C 134.269531 124.65625 136.058594 125.675781 137.84375 126.710938 C 139.042969 127.414062 140.261719 128.113281 141.460938 128.789062 C 141.527344 128.835938 141.574219 128.859375 141.640625 128.902344 C 141.820312 128.992188 142.027344 128.992188 142.207031 128.902344 C 143.609375 128.089844 145.011719 127.277344 146.433594 126.464844 C 148.671875 125.175781 150.910156 123.890625 153.148438 122.582031 C 153.667969 122.285156 154.167969 121.992188 154.6875 121.699219 C 155.320312 121.339844 154.753906 120.367188 154.121094 120.730469 C 152.71875 121.542969 151.316406 122.355469 149.894531 123.167969 C 147.65625 124.453125 145.417969 125.742188 143.179688 127.050781 C 142.660156 127.34375 142.160156 127.636719 141.640625 127.933594 C 141.820312 127.933594 142.027344 127.933594 142.207031 127.933594 C 140.804688 127.117188 139.402344 126.304688 137.980469 125.492188 C 135.742188 124.207031 133.503906 122.917969 131.265625 121.609375 C 130.742188 121.316406 130.246094 121.023438 129.726562 120.730469 C 129.816406 120.886719 129.90625 121.046875 129.996094 121.226562 C 129.996094 119.601562 129.996094 117.972656 129.996094 116.371094 C 129.996094 113.796875 129.996094 111.199219 129.996094 108.625 C 129.996094 108.039062 129.996094 107.453125 129.996094 106.84375 C 129.90625 107 129.816406 107.160156 129.726562 107.339844 C 131.128906 106.527344 132.53125 105.714844 133.953125 104.898438 C 136.191406 103.613281 138.429688 102.324219 140.667969 101.015625 C 141.1875 100.722656 141.6875 100.429688 142.207031 100.136719 C 142.027344 100.136719 141.820312 100.136719 141.640625 100.136719 C 143.042969 100.949219 144.445312 101.761719 145.867188 102.574219 C 148.105469 103.863281 150.34375 105.148438 152.582031 106.457031 C 153.105469 106.75 153.601562 107.046875 154.121094 107.339844 C 154.03125 107.179688 153.941406 107.023438 153.851562 106.84375 C 153.851562 108.46875 153.851562 110.09375 153.851562 111.695312 C 153.851562 114.269531 153.851562 116.867188 153.851562 119.441406 C 153.851562 120.027344 153.851562 120.617188 153.851562 121.226562 C 153.851562 121.972656 154.980469 121.972656 154.980469 121.226562 Z M 154.980469 121.226562 " fill-opacity="1" fill-rule="nonzero"/></svg>