<svg id="Camada_1" data-name="Camada 1" xmlns="http://www.w3.org/2000/svg" width="1920" height="1920" viewBox="0 0 1920 1920">
  <defs>
    <style>
      .cls-1 {
        fill: #fff;
      }
    </style>
  </defs>
  <title>IconsGeo_Prancheta 2</title>
  <g>
    <rect class="cls-1" x="955.22" y="10" width="9.56" height="1900"/>
    <rect class="cls-1" x="955.22" y="10" width="9.56" height="1900" transform="translate(-58.39 62.18) rotate(-3.6)"/>
    <rect class="cls-1" x="955.22" y="10" width="9.56" height="1900" transform="translate(-112.75 127.89) rotate(-7.2)"/>
    <rect class="cls-1" x="955.22" y="10" width="9.56" height="1900" transform="translate(-162.88 196.89) rotate(-10.8)"/>
    <rect class="cls-1" x="955.22" y="10" width="9.56" height="1900" transform="translate(-208.58 268.9) rotate(-14.4)"/>
    <rect class="cls-1" x="955.22" y="10" width="9.56" height="1900" transform="translate(-249.67 343.64) rotate(-18)"/>
    <rect class="cls-1" x="955.22" y="10.01" width="9.56" height="1900" transform="translate(-285.99 420.81) rotate(-21.6)"/>
    <rect class="cls-1" x="955.22" y="10.01" width="9.57" height="1900" transform="translate(-317.38 500.12) rotate(-25.2)"/>
    <rect class="cls-1" x="955.22" y="10" width="9.56" height="1899.99" transform="translate(-343.74 581.23) rotate(-28.8)"/>
    <rect class="cls-1" x="955.22" y="10" width="9.56" height="1899.99" transform="translate(-364.95 663.84) rotate(-32.4)"/>
    <rect class="cls-1" x="955.22" y="10" width="9.56" height="1899.99" transform="translate(-380.93 747.62) rotate(-36)"/>
    <rect class="cls-1" x="955.22" y="10.01" width="9.56" height="1900" transform="translate(-391.62 832.24) rotate(-39.6)"/>
    <rect class="cls-1" x="955.23" y="10.01" width="9.55" height="1900" transform="translate(-396.98 917.36) rotate(-43.2)"/>
    <rect class="cls-1" x="955.22" y="10" width="9.56" height="1900" transform="translate(-396.98 1002.64) rotate(-46.8)"/>
    <rect class="cls-1" x="955.22" y="10" width="9.56" height="1899.99" transform="translate(-391.62 1087.77) rotate(-50.4)"/>
    <rect class="cls-1" x="955.22" y="10" width="9.56" height="1900" transform="translate(-380.93 1172.38) rotate(-54)"/>
    <rect class="cls-1" x="955.22" y="10" width="9.56" height="1899.99" transform="translate(-364.95 1256.17) rotate(-57.6)"/>
    <rect class="cls-1" x="955.22" y="10" width="9.57" height="1900" transform="translate(-343.74 1338.77) rotate(-61.2)"/>
    <rect class="cls-1" x="955.22" y="10" width="9.56" height="1900" transform="translate(-317.38 1419.88) rotate(-64.8)"/>
    <rect class="cls-1" x="955.22" y="10" width="9.56" height="1900" transform="translate(-285.98 1499.19) rotate(-68.4)"/>
    <rect class="cls-1" x="955.22" y="10.01" width="9.56" height="1900" transform="translate(-249.68 1576.36) rotate(-72)"/>
    <rect class="cls-1" x="955.22" y="10" width="9.57" height="1900" transform="translate(-208.58 1651.09) rotate(-75.6)"/>
    <rect class="cls-1" x="955.22" y="10" width="9.56" height="1900" transform="translate(-162.88 1723.11) rotate(-79.2)"/>
    <rect class="cls-1" x="955.22" y="10" width="9.56" height="1900" transform="matrix(0.13, -0.99, 0.99, 0.13, -112.74, 1792.12)"/>
    <rect class="cls-1" x="955.22" y="10" width="9.56" height="1899.99" transform="translate(-58.38 1857.83) rotate(-86.4)"/>
    <rect class="cls-1" x="10" y="955.22" width="1900" height="9.56"/>
    <rect class="cls-1" x="10" y="955.22" width="1899.99" height="9.56" transform="translate(-58.12 61.88) rotate(-3.58)"/>
    <rect class="cls-1" x="10" y="955.22" width="1900" height="9.56" transform="translate(-112.47 127.53) rotate(-7.18)"/>
    <rect class="cls-1" x="10" y="955.22" width="1900" height="9.56" transform="translate(-162.95 196.99) rotate(-10.81)"/>
    <rect class="cls-1" x="10" y="955.22" width="1900" height="9.57" transform="translate(-208.78 269.23) rotate(-14.42)"/>
    <rect class="cls-1" x="10" y="955.22" width="1900" height="9.56" transform="translate(-249.4 343.11) rotate(-17.97)"/>
    <rect class="cls-1" x="10" y="955.22" width="1900" height="9.56" transform="translate(-286.02 420.9) rotate(-21.6)"/>
    <rect class="cls-1" x="10" y="955.22" width="1900" height="9.56" transform="translate(-317.49 500.4) rotate(-25.21)"/>
    <rect class="cls-1" x="10" y="955.22" width="1900" height="9.57" transform="translate(-343.52 580.47) rotate(-28.77)"/>
    <rect class="cls-1" x="10.01" y="955.22" width="1899.99" height="9.56" transform="translate(-365.12 664.59) rotate(-32.43)"/>
    <rect class="cls-1" x="10" y="955.22" width="1900" height="9.56" transform="translate(-381 748.07) rotate(-36.02)"/>
    <rect class="cls-1" x="10" y="955.22" width="1899.99" height="9.56" transform="translate(-391.73 833.36) rotate(-39.65)"/>
    <rect class="cls-1" x="10" y="955.22" width="1900" height="9.56" transform="translate(-396.99 917.8) rotate(-43.22)"/>
    <rect class="cls-1" x="10" y="955.23" width="1900" height="9.55" transform="translate(-396.96 1003.17) rotate(-46.82)"/>
    <rect class="cls-1" x="10" y="955.23" width="1900" height="9.56" transform="translate(-391.55 1088.5) rotate(-50.43)"/>
    <rect class="cls-1" x="10.01" y="955.22" width="1899.99" height="9.56" transform="translate(-381 1171.94) rotate(-53.98)"/>
    <rect class="cls-1" x="10.01" y="955.22" width="1899.99" height="9.56" transform="translate(-364.72 1257.2) rotate(-57.64)"/>
    <rect class="cls-1" x="10.01" y="955.22" width="1899.99" height="9.56" transform="translate(-344.02 1337.8) rotate(-61.16)"/>
    <rect class="cls-1" x="10" y="955.22" width="1900" height="9.57" transform="translate(-317.3 1420.13) rotate(-64.81)"/>
    <rect class="cls-1" x="10" y="955.23" width="1900" height="9.56" transform="translate(-285.54 1500.23) rotate(-68.45)"/>
    <rect class="cls-1" x="10" y="955.22" width="1900" height="9.56" transform="translate(-249.4 1576.89) rotate(-72.03)"/>
    <rect class="cls-1" x="10" y="955.22" width="1900" height="9.56" transform="translate(-208.12 1651.88) rotate(-75.64)"/>
    <rect class="cls-1" x="10" y="955.22" width="1900" height="9.56" transform="translate(-162.95 1723.01) rotate(-79.19)"/>
    <rect class="cls-1" x="10" y="955.22" width="1900" height="9.56" transform="translate(-112.47 1792.47) rotate(-82.82)"/>
    <rect class="cls-1" x="10" y="955.22" width="1900" height="9.56" transform="translate(-58.12 1858.12) rotate(-86.42)"/>
  </g>
</svg>
