<svg width="54" height="54" viewBox="0 0 54 54" fill="none" xmlns="http://www.w3.org/2000/svg">
<g id="&#240;&#159;&#166;&#134; icon &#34;settings&#34;">
<path id="Vector" d="M27 34.5C31.1423 34.5 34.5 31.1423 34.5 27C34.5 22.8577 31.1423 19.5 27 19.5C22.8577 19.5 19.5 22.8577 19.5 27C19.5 31.1423 22.8577 34.5 27 34.5Z" stroke="white" stroke-width="4" stroke-linecap="round" stroke-linejoin="round"/>
<path id="Vector_2" d="M46.056 22.9885L43.3118 16.362L47 12L42 7L37.6617 10.7074L30.8945 7.92435L29.3382 2H24.4525L22.8728 8.00283L16.261 10.7899L12 7L7 12L10.6334 16.4721L7.93125 23.1157L2 24.5V29.5L8.00278 31.1388L10.7894 37.7492L7 42L12 47L16.4779 43.3508L22.9925 46.0308L24.5 52H29.5L31.0112 46.033L37.6378 43.2887C38.7423 44.0782 42 47 42 47L47 42L43.2897 37.6235L46.0347 30.995L51.9998 29.443L52 24.5L46.056 22.9885Z" stroke="white" stroke-width="4" stroke-linecap="round" stroke-linejoin="round"/>
</g>
</svg>
