<svg width="54" height="43" viewBox="0 0 54 43" fill="none" xmlns="http://www.w3.org/2000/svg">
<g id="&#240;&#159;&#166;&#134; icon &#34;leaderboard&#34;">
<path id="Vector" d="M35.3334 40.8889H18.6667V22.8334V12C18.6667 11.0796 19.4129 10.3334 20.3334 10.3334H33.6667C34.5872 10.3334 35.3334 11.0796 35.3334 12V28.3889V40.8889Z" stroke="white" stroke-width="4" stroke-linecap="round" stroke-linejoin="round"/>
<path id="Vector_2" d="M35.3334 2H18.6667" stroke="white" stroke-width="4" stroke-linecap="round" stroke-linejoin="round"/>
<path id="Vector_3" d="M50.3333 40.8889H35.3333V30.0556C35.3333 29.135 36.0794 28.3889 37 28.3889H50.3333C51.2539 28.3889 52 29.135 52 30.0556V39.2222C52 40.1428 51.2539 40.8889 50.3333 40.8889Z" stroke="white" stroke-width="4" stroke-linecap="round" stroke-linejoin="round"/>
<path id="Vector_4" d="M18.6667 40.8888V24.4999C18.6667 23.5794 17.9205 22.8333 17 22.8333H3.66667C2.74619 22.8333 2 23.5794 2 24.4999V39.2221C2 40.1427 2.74619 40.8888 3.66667 40.8888H18.6667Z" stroke="white" stroke-width="4" stroke-linecap="round" stroke-linejoin="round"/>
</g>
</svg>
