<svg id="Camada_1" data-name="Camada 1" xmlns="http://www.w3.org/2000/svg" width="1920" height="1920" viewBox="0 0 1920 1920">
  <defs>
    <style>
      .cls-1 {
        fill: #fff;
      }
    </style>
  </defs>
  <title>IconsGeo_Prancheta 1</title>
  <g>
    <path class="cls-1" d="M960,1910,94.31,1435.19V484.81l4.45-2.44L960,10l865.69,474.81v950.38l-4.45,2.44ZM111.47,1425,960,1890.43,1808.53,1425V495L960,29.57,111.47,495Z"/>
    <polygon class="cls-1" points="968.58 1900.21 951.42 1900.21 951.42 928.04 99.02 497.55 106.75 482.23 968.58 917.49 968.58 1900.21"/>
    <rect class="cls-1" x="908.45" y="697.75" width="960.22" height="17.16" transform="translate(-169.32 701.67) rotate(-26.79)"/>
    <path class="cls-1" d="M913.66,1824.35,149.23,1405.07V566.32L913.66,952.38ZM166.39,1394.91,896.5,1795.36V962.94L166.39,594.2Z"/>
    <path class="cls-1" d="M860.41,1735.9,203.47,1375.59V654.76L860.41,986.53ZM220.63,1365.43l622.62,341.49V997.08L220.63,682.64Z"/>
    <path class="cls-1" d="M804.84,1644.86l-547-300V744.61l547,276.25ZM275,1334.69l512.68,281.19V1031.42L275,772.49Z"/>
    <path class="cls-1" d="M745.62,1546.78l-426.55-234V844.7l426.55,215.43Zm-409.4-244.12,392.25,215.13V1070.68L336.22,872.58Z"/>
    <path class="cls-1" d="M688.79,1451.7,375.9,1280.08V936.67l312.89,158ZM393.06,1269.93l278.57,152.78V1105.24L393.06,964.55Z"/>
    <path class="cls-1" d="M636.05,1365.25,427.64,1250.94V1022.12l208.41,105.25ZM444.79,1240.78l174.1,95.48V1137.93L444.79,1050Z"/>
    <path class="cls-1" d="M589.72,1288.3l-114.88-63V1099.07l114.88,58ZM492,1215.13l80.56,44.18v-91.66L492,1127Z"/>
    <path class="cls-1" d="M1006.34,1822.7v-872l764.43-386.06v838.75l-4.45,2.44Zm17.16-861.41v832.42l730.11-400.45V592.55Z"/>
    <path class="cls-1" d="M1059.59,1734.25V984.88l656.94-331.77v720.83l-4.46,2.44Zm17.16-738.82v709.84l622.62-341.49V681Z"/>
    <path class="cls-1" d="M1115.16,1643.21v-624l547-276.25v600.23Zm17.16-613.44v584.46L1645,1333V770.84Z"/>
    <path class="cls-1" d="M1174.38,1545.13V1058.48l426.55-215.43v468.11Zm17.15-476.1v447.11L1583.78,1301V870.93Z"/>
    <path class="cls-1" d="M1231.21,1450.05V1093L1544.1,935v343.42Zm17.16-346.46v317.47l278.57-152.77V962.9Z"/>
    <path class="cls-1" d="M1284,1363.61V1125.72l208.41-105.25v228.82Zm17.16-227.33v198.34l174.1-95.49V1048.35Z"/>
    <path class="cls-1" d="M1330.28,1286.65V1155.44l114.88-58v126.21ZM1347.44,1166v91.67l80.56-44.18V1125.3Z"/>
    <path class="cls-1" d="M958.24,866.57l-3.82-1.89L195.2,488.87l763-408.25,4,2.12,762.64,402.09ZM232.67,488.28,958.22,847.42l729-363L958.26,100Z"/>
    <path class="cls-1" d="M958.22,803l-3.82-1.88-636.33-315L958.18,143.6l4,2.12,639.16,337ZM355.54,485.5,958.19,783.81l605.57-301.53L958.24,163Z"/>
    <path class="cls-1" d="M958.27,738.39l-3.82-1.89L444,483.82,958.23,208.66l4,2.12L1475,481.1ZM481.45,483.23l476.8,236,479.11-238.57L958.29,228.08Z"/>
    <path class="cls-1" d="M959.25,675.36l-3.82-1.89L567.35,481.36,959.21,271.69,1353,479.3ZM604.82,480.78,959.23,656.2l356.14-177.33L959.27,291.11Z"/>
    <path class="cls-1" d="M959.81,615,685.09,479l274.68-147,276,145.53ZM722.56,478.43,959.78,595.85l238.39-118.71L959.82,351.47Z"/>
    <path class="cls-1" d="M960.23,565.73,781.17,477.1l179-95.78,179.92,94.85ZM818.64,476.51l141.57,70.07,142.28-70.85-142.24-75Z"/>
    <path class="cls-1" d="M959.59,524.91,861.42,476.3l98.13-52.5,98.65,52Zm-60.7-49.19,60.68,30,61-30.39-61-32.15Z"/>
  </g>
</svg>
