<svg width="40" height="40" viewBox="0 0 54 50" fill="none" xmlns="http://www.w3.org/2000/svg">
<g id="&#240;&#159;&#166;&#134; icon &#34;wallet&#34;">
<path id="Vector" d="M46.4444 47.5496H7.55556C4.48731 47.5496 2 45.0624 2 41.994V16.994C2 13.9258 4.48731 11.4385 7.55556 11.4385H46.4444C49.5128 11.4385 52 13.9258 52 16.994V41.994C52 45.0624 49.5128 47.5496 46.4444 47.5496Z" stroke="white" stroke-width="4"/>
<path id="Vector_2" d="M39.5 30.8829C38.733 30.8829 38.1111 30.2609 38.1111 29.494C38.1111 28.727 38.733 28.1051 39.5 28.1051C40.2669 28.1051 40.8889 28.727 40.8889 29.494C40.8889 30.2609 40.2669 30.8829 39.5 30.8829Z" fill="black" stroke="white" stroke-width="4" stroke-linecap="round" stroke-linejoin="round"/>
<path id="Vector_3" d="M43.6667 11.4385V7.55859C43.6667 3.90842 40.2067 1.25011 36.6797 2.19061L6.12408 10.3388C3.69214 10.9873 2 13.1898 2 15.7068V16.9941" stroke="white" stroke-width="4"/>
</g>
</svg>
