<svg width="35" height="35" viewBox="0 0 54 44" fill="none" xmlns="http://www.w3.org/2000/svg">
<g id="&#240;&#159;&#166;&#134; icon &#34;add folder&#34;">
<path id="Vector" d="M42 7H47M47 7H52M47 7V2M47 7V12" stroke="white" stroke-width="4" stroke-linecap="round" stroke-linejoin="round"/>
<path id="Vector_2" d="M50.5 42H3.5C2.67157 42 2 41.3285 2 40.5V19.5H50.5C51.3285 19.5 52 20.1715 52 21V40.5C52 41.3285 51.3285 42 50.5 42Z" stroke="white" stroke-width="4" stroke-linecap="round" stroke-linejoin="round"/>
<path id="Vector_3" d="M2 19.5V3.5C2 2.67157 2.67157 2 3.5 2H18.9451C19.3032 2 19.6494 2.1281 19.9213 2.36113L27.8288 9.13887C28.1005 9.3719 28.4468 9.5 28.805 9.5H32" stroke="white" stroke-width="4" stroke-linecap="round" stroke-linejoin="round"/>
</g>
</svg>
