<svg width="38" height="38" viewBox="0 0 54 54" fill="none" xmlns="http://www.w3.org/2000/svg">
<g id="&#240;&#159;&#166;&#134; icon &#34;coin&#34;">
<path id="Vector" d="M27 52C40.807 52 52 40.807 52 27C52 13.1929 40.807 2 27 2C13.1929 2 2 13.1929 2 27C2 40.807 13.1929 52 27 52Z" fill="#FFF8F8" fill-opacity="0.17" stroke="white" stroke-width="4" stroke-linecap="round" stroke-linejoin="round"/>
<g id="Vector_2">
<path d="M34.5 18.25C32.7875 16.5375 29.7718 15.3464 27 15.2718ZM19.5 34.5C21.1112 36.6483 24.107 37.8735 27 37.9775ZM27 15.2718C23.7022 15.1831 20.75 16.6749 20.75 20.75C20.75 28.25 34.5 24.5 34.5 32C34.5 36.2775 30.8405 38.1155 27 37.9775M27 15.2718V10.75ZM27 37.9775V43.25Z" fill="#FFF8F8" fill-opacity="0.17"/>
<path d="M34.5 18.25C32.7875 16.5375 29.7718 15.3464 27 15.2718M27 15.2718C23.7022 15.1831 20.75 16.6749 20.75 20.75C20.75 28.25 34.5 24.5 34.5 32C34.5 36.2775 30.8405 38.1155 27 37.9775M27 15.2718V10.75M19.5 34.5C21.1112 36.6483 24.107 37.8735 27 37.9775M27 37.9775V43.25" stroke="white" stroke-width="4" stroke-linecap="round" stroke-linejoin="round"/>
</g>
</g>
</svg>
