<svg id="Camada_1" data-name="Camada 1" xmlns="http://www.w3.org/2000/svg" width="1920" height="1920" viewBox="0 0 1920 1920">
  <defs>
    <style>
      .cls-1 {
        fill: #fff;
      }
    </style>
  </defs>
  <title>IconsGeo_Prancheta 4</title>
  <g>
    <path class="cls-1" d="M960,1176.54a7,7,0,0,1-3.59-1L781.77,1070.77a7,7,0,0,1-3.39-6V855.22a7,7,0,0,1,3.39-6L956.41,744.45a7,7,0,0,1,7.18,0l174.64,104.78a7,7,0,0,1,3.39,6v209.56a7,7,0,0,1-3.39,6L963.59,1175.55A7,7,0,0,1,960,1176.54ZM792.35,1060.83,960,1161.41l167.65-100.58V859.17L960,758.59,792.35,859.17Zm342.28,4h0Z"/>
    <path class="cls-1" d="M785.37,1281.32a7,7,0,0,1-3.6-1L607.14,1175.55a7,7,0,0,1-3.39-6V960a7,7,0,0,1,3.39-6L781.77,849.23a7,7,0,0,1,7.19,0L963.59,954a7,7,0,0,1,3.4,6v209.56a7,7,0,0,1-3.4,6L789,1280.33A7,7,0,0,1,785.37,1281.32ZM617.72,1165.6l167.65,100.59L953,1165.6V964L785.37,863.37,617.72,964Zm342.28,4h0Z"/>
    <path class="cls-1" d="M610.74,1176.54a7,7,0,0,1-3.6-1L432.51,1070.77a7,7,0,0,1-3.39-6V855.22a7,7,0,0,1,3.39-6L607.14,744.45a7,7,0,0,1,7.19,0L789,849.23a7,7,0,0,1,3.39,6v209.56a7,7,0,0,1-3.39,6L614.33,1175.55A7,7,0,0,1,610.74,1176.54ZM443.09,1060.83l167.65,100.58,167.64-100.58V859.17L610.74,758.59,443.09,859.17Zm342.28,4h0Z"/>
    <path class="cls-1" d="M785.37,862.2a7,7,0,0,1-3.6-1L607.14,756.43a7,7,0,0,1-3.39-6V540.88a7,7,0,0,1,3.39-6L781.77,430.11a7,7,0,0,1,7.19,0L963.59,534.89a7,7,0,0,1,3.4,6V750.44a7,7,0,0,1-3.4,6L789,861.21A7,7,0,0,1,785.37,862.2ZM617.72,746.48,785.37,847.07,953,746.48V544.83L785.37,444.25,617.72,544.83Zm342.28,4h0Z"/>
    <path class="cls-1" d="M610.74,757.43a7,7,0,0,1-3.6-1L432.51,651.65a7,7,0,0,1-3.39-6V436.1a7,7,0,0,1,14,0V641.71L610.74,742.29,778.38,641.71V440.06L607.14,337.31a7,7,0,0,1,7.19-12L789,430.11a7,7,0,0,1,3.39,6V645.66a7,7,0,0,1-3.39,6L614.33,756.43A7,7,0,0,1,610.74,757.43Z"/>
    <path class="cls-1" d="M261.47,757.42a7,7,0,0,1-3.59-1L83.24,651.65a7,7,0,0,1-3.39-6V436.1a7,7,0,1,1,14,0V641.7L261.47,742.29,429.12,641.7V440.05L257.88,337.31a7,7,0,1,1,7.18-12L439.7,430.11a7,7,0,0,1,3.39,6V645.66a7,7,0,0,1-3.39,6L265.06,756.43A7,7,0,0,1,261.47,757.42Z"/>
    <path class="cls-1" d="M436.1,862.21a6.89,6.89,0,0,1-3.59-1L257.88,756.43a7,7,0,0,1,7.18-12L439.7,849.23a7,7,0,0,1-3.6,13ZM610.73,547.87a6.94,6.94,0,0,1-3.59-1l-171-102.62-171,102.62a7,7,0,1,1-7.18-12L432.51,430.11a7,7,0,0,1,7.19,0L614.33,534.89a7,7,0,0,1-3.6,13Z"/>
    <path class="cls-1" d="M1134.63,862.21a7,7,0,0,1-7-7V649.61L960,549,792.35,649.61V855.22a7,7,0,1,1-14,0V645.66a7,7,0,0,1,3.39-6L956.41,534.89a7,7,0,0,1,7.18,0l174.64,104.78a7,7,0,0,1,3.39,6V855.22A7,7,0,0,1,1134.63,862.21Z"/>
    <path class="cls-1" d="M1134.63,862.2a7,7,0,0,1-3.59-1L956.41,756.43a7,7,0,0,1-3.4-6V540.88a7,7,0,0,1,3.4-6L1131,430.11a7,7,0,0,1,7.19,0l174.63,104.78a7,7,0,0,1,3.39,6V750.44a7,7,0,0,1-3.39,6L1138.23,861.21A7,7,0,0,1,1134.63,862.2ZM967,746.48l167.64,100.59,167.65-100.59V544.83L1134.63,444.25,967,544.83Zm342.27,4h0Z"/>
    <path class="cls-1" d="M1134.63,443.09a7,7,0,0,1-7-7V226.54a7,7,0,0,1,14,0V436.1A7,7,0,0,1,1134.63,443.09Zm-349.26,0a7,7,0,0,1-7-7V226.54a7,7,0,0,1,3.39-6L956.41,115.78a7,7,0,1,1,7.18,12L792.35,230.5V436.1A7,7,0,0,1,785.37,443.09Z"/>
    <path class="cls-1" d="M785.37,443.09a7,7,0,0,1-3.6-13L953,327.37V125.72L781.77,23A7,7,0,0,1,789,11L963.59,115.77a7,7,0,0,1,3.4,6V331.32a7,7,0,0,1-3.4,6L789,442.09A6.89,6.89,0,0,1,785.37,443.09Z"/>
    <path class="cls-1" d="M1309.27,547.87a7,7,0,0,1-3.6-13L1480.3,430.12a7,7,0,1,1,7.19,12L1312.86,546.87A6.94,6.94,0,0,1,1309.27,547.87Zm174.62-314.34a6.94,6.94,0,0,1-3.59-1l-171-102.62-171,102.62a7,7,0,1,1-7.19-12l174.63-104.78a7,7,0,0,1,7.19,0l174.63,104.78a7,7,0,0,1-3.6,13Z"/>
    <path class="cls-1" d="M1483.9,652.65a7,7,0,0,1-3.6-13l171.24-102.74V335.28L1483.9,234.69,1316.25,335.28v205.6a7,7,0,1,1-14,0V331.32a7,7,0,0,1,3.39-6L1480.3,220.56a7,7,0,0,1,7.19,0l174.63,104.77a7,7,0,0,1,3.39,6V540.88a7,7,0,0,1-3.39,6L1487.49,651.65A7,7,0,0,1,1483.9,652.65Z"/>
    <path class="cls-1" d="M1658.52,547.87a6.88,6.88,0,0,1-3.58-1L1480.3,442.09a7,7,0,0,1-3.39-6V226.54a7,7,0,0,1,3.39-6l174.64-104.78a7,7,0,0,1,7.18,0l174.64,104.78a7,7,0,0,1,3.39,6V436.11a7,7,0,0,1-14,0V230.5L1658.53,129.91,1490.88,230.5V432.15L1662.12,534.9a7,7,0,0,1-3.6,13Z"/>
    <path class="cls-1" d="M1309.26,1176.54a7,7,0,0,1-7-7V964L1131,861.21a7,7,0,1,1,7.19-12L1312.86,954a7,7,0,0,1,3.39,6v209.56A7,7,0,0,1,1309.26,1176.54Z"/>
    <path class="cls-1" d="M1309.26,1176.54a7,7,0,0,1-3.59-1L1131,1070.77a7,7,0,0,1-3.39-6V855.22a7,7,0,0,1,3.39-6l174.63-104.78a7,7,0,0,1,7.19,0l174.63,104.78a7,7,0,0,1,3.39,6v209.56a7,7,0,0,1-3.39,6l-174.63,104.78A7,7,0,0,1,1309.26,1176.54Zm-167.64-115.71,167.64,100.58,167.65-100.58V859.17L1309.26,758.59,1141.62,859.17Zm342.28,4h0Z"/>
    <path class="cls-1" d="M1483.9,1490.88a7,7,0,0,1-3.6-1l-174.63-104.78a7,7,0,0,1-3.39-6V1169.56a7,7,0,0,1,3.39-6l174.63-104.78a7,7,0,0,1,7.19,0l174.63,104.78a7,7,0,0,1,3.39,6v209.56a7,7,0,0,1-3.39,6l-174.63,104.78A7,7,0,0,1,1483.9,1490.88Zm-167.65-115.72,167.65,100.59,167.64-100.59V1173.51L1483.9,1072.93l-167.65,100.58Zm342.28,4h0Z"/>
    <path class="cls-1" d="M960,1595.66a7,7,0,0,1-3.59-1L781.77,1489.89a7,7,0,0,1-3.39-6V1274.34a7,7,0,0,1,3.39-6l174.64-104.78a7,7,0,0,1,7.18,0l174.64,104.78a7,7,0,0,1,3.39,6V1483.9a7,7,0,0,1-3.39,6L963.59,1594.67A7,7,0,0,1,960,1595.66ZM792.35,1479.94,960,1580.53l167.65-100.59V1278.29L960,1177.71,792.35,1278.29Zm342.28,4h0Z"/>
    <path class="cls-1" d="M785.37,1700.44a7,7,0,0,1-3.6-13L953,1584.72V1383.07L785.37,1282.49,617.72,1383.07v205.61a7,7,0,0,1-14,0V1379.12a7,7,0,0,1,3.39-6l174.63-104.78a7,7,0,0,1,7.19,0l174.63,104.78a7,7,0,0,1,3.4,6v209.56a7,7,0,0,1-3.4,6L789,1699.45A7,7,0,0,1,785.37,1700.44Z"/>
    <path class="cls-1" d="M436.1,1910a6.93,6.93,0,0,1-3.59-1L257.88,1804.22a7,7,0,0,1-3.39-6V1588.68a7,7,0,0,1,3.39-6l174.63-104.78a7,7,0,0,1,7.19,0l174.63,104.78a7,7,0,0,1-7.19,12L436.1,1492,268.46,1592.63v201.65L436.1,1894.87l171-102.62a7,7,0,1,1,7.19,12L439.7,1909A6.94,6.94,0,0,1,436.1,1910Z"/>
    <path class="cls-1" d="M610.74,1595.66a7,7,0,0,1-3.6-1L432.51,1489.89a7,7,0,0,1-3.39-6V1274.34a7,7,0,1,1,14,0v205.6l167.65,100.59,167.64-100.59v-205.6a7,7,0,1,1,14,0V1483.9a7,7,0,0,1-3.39,6L614.33,1594.67A7,7,0,0,1,610.74,1595.66Z"/>
    <path class="cls-1" d="M610.74,1176.54a7,7,0,0,1-7-7V964L436.1,863.37,265.06,966a7,7,0,0,1-7.18-12L432.51,849.23a7,7,0,0,1,7.19,0L614.33,954a7,7,0,0,1,3.39,6v209.56A7,7,0,0,1,610.74,1176.54Z"/>
    <path class="cls-1" d="M86.84,1490.88a7,7,0,0,1-7-7V1274.34a7,7,0,0,1,3.39-6l174.64-104.78a7,7,0,0,1,7.18,0L439.7,1268.35a7,7,0,0,1-7.19,12l-171-102.62L93.82,1278.29V1483.9A7,7,0,0,1,86.84,1490.88Z"/>
    <path class="cls-1" d="M960,1805.22a6.91,6.91,0,0,1-3.59-1L781.77,1699.45a7,7,0,0,1-3.39-6V1483.9a7,7,0,0,1,3.39-6l174.64-104.78a7,7,0,0,1,7.18,0l174.64,104.78a7,7,0,0,1,3.39,6v209.56a7,7,0,0,1-3.39,6L963.59,1804.22A6.91,6.91,0,0,1,960,1805.22ZM792.35,1689.5,960,1790.09l167.65-100.59V1487.85L960,1387.27,792.35,1487.85Zm342.28,4h0Z"/>
    <path class="cls-1" d="M1134.63,1910a6.91,6.91,0,0,1-3.59-1L956.41,1804.22a7,7,0,0,1-3.4-6V1588.68a7,7,0,0,1,3.4-6L1131,1477.91a7,7,0,0,1,7.19,0l174.63,104.78a7,7,0,0,1-7.19,12l-171-102.63L967,1592.63v201.65l167.64,100.59,171-102.62a7,7,0,1,1,7.19,12L1138.23,1909A6.94,6.94,0,0,1,1134.63,1910Z"/>
    <path class="cls-1" d="M1658.53,1386.1a7,7,0,0,1-3.59-1L1480.3,1280.33a7,7,0,0,1-3.39-6V1064.78a7,7,0,1,1,14,0v205.6L1658.53,1371l167.65-100.59V1068.73L1654.94,966a7,7,0,0,1,7.18-12l174.64,104.78a7,7,0,0,1,3.39,6v209.56a7,7,0,0,1-3.39,6l-174.64,104.78A7,7,0,0,1,1658.53,1386.1Z"/>
  </g>
</svg>
