<svg id="Camada_1" data-name="Camada 1" xmlns="http://www.w3.org/2000/svg" width="1920" height="1920" viewBox="0 0 1920 1920">
  <defs>
    <style>
      .cls-1 {
        fill: #fff;
      }
    </style>
  </defs>
  <title>IconsGeo_Prancheta 3</title>
  <g>
    <g>
      <path class="cls-1" d="M960,1910c-253.75,0-492.32-98.82-671.75-278.25S10,1213.75,10,960s98.82-492.32,278.25-671.75S706.25,10,960,10s492.32,98.82,671.75,278.25S1910,706.25,1910,960s-98.82,492.32-278.25,671.75S1213.75,1910,960,1910ZM960,24.4c-249.91,0-484.86,97.32-661.57,274S24.4,710.09,24.4,960s97.32,484.86,274,661.57,411.66,274,661.57,274,484.86-97.32,661.57-274,274-411.66,274-661.57-97.32-484.86-274-661.57S1209.91,24.4,960,24.4Z"/>
      <path class="cls-1" d="M905.72,1855.72c-239.25,0-464.19-93.17-633.37-262.35S10,1199.26,10,960s93.17-464.19,262.35-633.37S666.47,64.28,905.72,64.28s464.2,93.17,633.38,262.35S1801.45,720.74,1801.45,960s-93.17,464.19-262.35,633.37S1145,1855.72,905.72,1855.72Zm0-1777c-235.41,0-456.73,91.67-623.19,258.13S24.4,724.59,24.4,960s91.68,456.73,258.13,623.19,387.78,258.13,623.19,258.13,456.73-91.67,623.19-258.13S1787.05,1195.41,1787.05,960s-91.68-456.73-258.14-623.19S1141.13,78.68,905.72,78.68Z"/>
      <path class="cls-1" d="M848.08,1805c-223.86,0-434.32-87.18-592.61-245.47S10,1190.77,10,966.91,97.18,532.59,255.47,374.3,624.22,128.83,848.08,128.83,1282.4,216,1440.69,374.3s245.47,368.75,245.47,592.61-87.18,434.32-245.47,592.61S1071.94,1805,848.08,1805Zm0-1661.76c-220,0-426.86,85.68-582.43,241.25S24.4,746.89,24.4,966.91s85.68,426.86,241.25,582.43,362.42,241.25,582.43,241.25,426.85-85.68,582.43-241.25,241.25-362.42,241.25-582.43-85.68-426.86-241.25-582.43S1068.09,143.23,848.08,143.23Z"/>
      <path class="cls-1" d="M781,1746.82c-206,0-399.58-80.2-545.21-225.83S10,1181.74,10,975.79,90.2,576.21,235.83,430.58,575.08,204.75,781,204.75s399.57,80.2,545.2,225.83,225.83,339.25,225.83,545.21-80.2,399.57-225.83,545.2S987,1746.82,781,1746.82Zm0-1527.67C363.83,219.15,24.4,558.58,24.4,975.79S363.83,1732.42,781,1732.42,1537.67,1393,1537.67,975.79,1198.25,219.15,781,219.15Z"/>
      <path class="cls-1" d="M713.63,1679.27c-388,0-703.63-315.65-703.63-703.63S325.65,272,713.63,272s703.63,315.65,703.63,703.63S1101.61,1679.27,713.63,1679.27Zm0-1392.86c-380,0-689.23,309.19-689.23,689.23s309.19,689.23,689.23,689.23,689.23-309.19,689.23-689.23S1093.67,286.41,713.63,286.41Z"/>
    </g>
    <g>
      <path class="cls-1" d="M652.8,1596.81C298.36,1596.81,10,1311.14,10,960S298.36,323.19,652.8,323.19,1295.59,608.86,1295.59,960,1007.24,1596.81,652.8,1596.81Zm0-1259.22C306.3,337.59,24.4,616.8,24.4,960s281.9,622.41,628.4,622.41S1281.19,1303.2,1281.19,960,999.3,337.59,652.8,337.59Z"/>
      <path class="cls-1" d="M965,1296.17c-182.32,0-330.65-147-330.65-327.6S782.63,641,965,641s330.64,147,330.64,327.6S1147.27,1296.17,965,1296.17Zm0-640.8c-174.38,0-316.25,140.5-316.25,313.2s141.87,313.2,316.25,313.2,316.24-140.5,316.24-313.2S1139.33,655.37,965,655.37Z"/>
      <path class="cls-1" d="M1021.13,1240.52c-151.34,0-274.46-122-274.46-271.95s123.12-271.94,274.46-271.94,274.46,122,274.46,271.94S1172.47,1240.52,1021.13,1240.52Zm0-529.49c-143.4,0-260.06,115.53-260.06,257.54s116.66,257.55,260.06,257.55,260.06-115.54,260.06-257.55S1164.53,711,1021.13,711Z"/>
      <path class="cls-1" d="M1076.93,1176.67c-120.58,0-218.67-97.2-218.67-216.67s98.09-216.67,218.67-216.67,218.66,97.2,218.66,216.67S1197.5,1176.67,1076.93,1176.67Zm0-418.94c-112.63,0-204.27,90.74-204.27,202.27s91.64,202.27,204.27,202.27,204.26-90.74,204.26-202.27S1189.56,757.73,1076.93,757.73Z"/>
      <path class="cls-1" d="M907.17,1353.4c-214.18,0-388.42-172.63-388.42-384.83S693,583.74,907.17,583.74s388.42,172.63,388.42,384.83S1121.35,1353.4,907.17,1353.4Zm0-755.26c-206.24,0-374,166.18-374,370.43S700.93,1339,907.17,1339s374-166.17,374-370.43S1113.41,598.14,907.17,598.14Z"/>
      <path class="cls-1" d="M856.74,1403.35c-242,0-438.84-195-438.84-434.78S614.76,533.79,856.74,533.79s438.85,195,438.85,434.78S1098.73,1403.35,856.74,1403.35Zm0-855.16c-234,0-424.44,188.58-424.44,420.38S622.7,1389,856.74,1389s424.45-188.58,424.45-420.38S1090.79,548.19,856.74,548.19Z"/>
      <path class="cls-1" d="M805.65,1454c-270.16,0-489.95-217.75-489.95-485.4s219.79-485.4,490-485.4,489.94,217.75,489.94,485.4S1075.81,1454,805.65,1454Zm0-956.4c-262.22,0-475.55,211.29-475.55,471s213.33,471,475.55,471,475.54-211.29,475.54-471S1067.86,497.57,805.65,497.57Z"/>
      <path class="cls-1" d="M750.74,1508.36c-300.43,0-544.85-242.15-544.85-539.79S450.31,428.79,750.74,428.79s544.85,242.14,544.85,539.78S1051.18,1508.36,750.74,1508.36Zm0-1065.17c-292.49,0-530.45,235.68-530.45,525.38S458.25,1494,750.74,1494s530.45-235.69,530.45-525.39S1043.23,443.19,750.74,443.19Z"/>
      <path class="cls-1" d="M695,1561.4c-331.15,0-600.56-266.9-600.56-595s269.41-595,600.56-595,600.55,266.9,600.55,595S1026.19,1561.4,695,1561.4Zm0-1175.53c-323.21,0-586.16,260.44-586.16,580.56S371.83,1547,695,1547s586.15-260.44,586.15-580.57S1018.25,385.87,695,385.87Z"/>
    </g>
  </g>
</svg>
