<svg width="38" height="38" viewBox="0 0 54 48" fill="none" xmlns="http://www.w3.org/2000/svg">
<g id="&#240;&#159;&#166;&#134; icon &#34;view&#34;">
<path id="Vector" d="M4.7027 11.4595H9.43243M9.43243 11.4595C12.0446 11.4595 14.1622 13.577 14.1622 16.1892C14.1622 18.8014 12.0446 20.9189 9.43243 20.9189H2M9.43243 11.4595C12.0446 11.4595 14.1622 9.34189 14.1622 6.72973C14.1622 4.11757 12.0446 2 9.43243 2H2" stroke="white" stroke-width="4" stroke-linecap="round" stroke-linejoin="round"/>
<path id="Vector_2" d="M50.6486 29.027C50.6486 37.9829 39.7584 45.2432 26.3243 45.2432C12.8904 45.2432 2 37.9829 2 29.027" stroke="white" stroke-width="4" stroke-linecap="round" stroke-linejoin="round"/>
<path id="Vector_3" d="M31.7298 2H29.0271C24.5489 2 20.9189 5.63014 20.9189 10.1081V15.5135M20.9189 15.5135C20.9189 18.4989 23.3389 20.9189 26.3244 20.9189H27.6757C30.6611 20.9189 33.0811 18.4989 33.0811 15.5135V14.1622C33.0811 11.1768 30.6611 8.75676 27.6757 8.75676H26.3244C23.3389 8.75676 20.9189 11.1768 20.9189 14.1622V15.5135Z" stroke="white" stroke-width="4" stroke-linecap="round" stroke-linejoin="round"/>
<path id="Vector_4" d="M39.8378 11.4595V7.40541C39.8378 4.42008 42.2578 2 45.2432 2H46.5946C49.58 2 52 4.42008 52 7.40541V11.4595V15.5135C52 18.4989 49.58 20.9189 46.5946 20.9189H45.2432C42.2578 20.9189 39.8378 18.4989 39.8378 15.5135V11.4595Z" stroke="white" stroke-width="4" stroke-linecap="round" stroke-linejoin="round"/>
</g>
</svg>
